EpundaSlab-Italic.glyphspackage
{
glyphname = exclam;
kernLeft = KO_exclam;
layers = (
{
layerId = m003;
shapes = (
{
closed = 1;
nodes = (
(76,180,l),
(191,700,l),
(121,700,l),
(16,180,l)
);
},
{
closed = 1;
nodes = (
(31,-8,o),
(55,12,o),
(60,37,cs),
(66,62,o),
(50,82,o),
(25,82,cs),
(0,82,o),
(-24,62,o),
(-30,37,cs),
(-35,12,o),
(-19,-8,o),
(6,-8,cs)
);
}
);
width = 120;
},
{
layerId = m004;
shapes = (
{
closed = 1;
nodes = (
(184,250,l),
(300,700,l),
(120,700,l),
(44,250,l)
);
},
{
closed = 1;
nodes = (
(114,-8,o),
(169,36,o),
(180,92,cs),
(192,147,o),
(157,192,o),
(102,192,cs),
(46,192,o),
(-8,147,o),
(-20,92,cs),
(-31,36,o),
(3,-8,o),
(59,-8,cs)
);
}
);
width = 228;
}
);
metricLeft = "=period";
metricRight = "=|";
note = exclam;
unicode = 33;
userData = {
KernOnSpecialSpacing = {
L = "spaced-off";
};
};
}
{
glyphname = quotedbl;
kernLeft = KO_quotedbl;
kernRight = KO_quotedbl;
layers = (
{
layerId = m004;
shapes = (
{
closed = 1;
nodes = (
(85,440,l),
(185,440,l),
(261,700,l),
(121,700,l)
);
},
{
closed = 1;
nodes = (
(265,440,l),
(365,440,l),
(441,700,l),
(301,700,l)
);
}
);
width = 370;
},
{
layerId = m003;
shapes = (
{
closed = 1;
nodes = (
(109,500,l),
(149,500,l),
(201,700,l),
(141,700,l)
);
},
{
closed = 1;
nodes = (
(229,500,l),
(269,500,l),
(321,700,l),
(261,700,l)
);
}
);
width = 270;
}
);
metricRight = "=|";
note = quotedbl;
unicode = 34;
userData = {
KernOnSpecialSpacing = {
L = quotes;
R = quotes;
};
};
}
{
glyphname = numbersign;
kernLeft = KO_numbersign;
kernRight = KO_numbersign;
layers = (
{
layerId = m003;
shapes = (
{
closed = 1;
nodes = (
(66,0,l),
(121,0,l),
(333,500,l),
(278,500,l)
);
},
{
closed = 1;
nodes = (
(266,0,l),
(321,0,l),
(534,500,l),
(479,500,l)
);
},
{
closed = 1;
nodes = (
(110,378,l),
(87,323,l),
(587,323,l),
(610,378,l)
);
},
{
closed = 1;
nodes = (
(13,177,l),
(-10,122,l),
(490,122,l),
(513,177,l)
);
}
);
width = 600;
},
{
layerId = m004;
shapes = (
{
closed = 1;
nodes = (
(104,0,l),
(220,0,l),
(458,560,l),
(342,560,l)
);
},
{
closed = 1;
nodes = (
(304,0,l),
(420,0,l),
(659,560,l),
(543,560,l)
);
},
{
closed = 1;
nodes = (
(174,438,l),
(125,323,l),
(686,323,l),
(735,438,l)
);
},
{
closed = 1;
nodes = (
(77,237,l),
(28,122,l),
(589,122,l),
(638,237,l)
);
}
);
width = 750;
}
);
note = numbersign;
unicode = 35;
}
{
glyphname = dollar;
kernRight = KO_dollar;
layers = (
{
layerId = m004;
name = "Black Italic";
shapes = (
{
ref = S;
},
{
closed = 1;
nodes = (
(371,605,l),
(400,742,l),
(280,742,l),
(251,605,l)
);
},
{
closed = 1;
nodes = (
(137,69,l),
(106,-75,l),
(226,-75,l),
(257,69,l)
);
}
);
width = 532;
},
{
layerId = m003;
name = "Light Italic";
shapes = (
{
ref = S;
},
{
closed = 1;
nodes = (
(330,638,l),
(352,742,l),
(292,742,l),
(270,638,l)
);
},
{
closed = 1;
nodes = (
(138,19,l),
(118,-75,l),
(178,-75,l),
(198,19,l)
);
}
);
width = 488;
}
);
unicode = 36;
userData = {
KernOnSpecialSpacing = {
L = symbols;
R = symbols;
};
};
}
{
glyphname = ampersand;
kernRight = KO_ampersand;
layers = (
{
layerId = m003;
shapes = (
{
closed = 1;
nodes = (
(258,52,l),
(136,52,o),
(85,99,o),
(104,187,cs),
(122,275,o),
(194,327,o),
(316,327,c),
(328,382,l),
(222,382,o),
(178,421,o),
(195,500,cs),
(212,579,o),
(272,618,o),
(378,618,c),
(391,678,l),
(247,678,o),
(152,614,o),
(128,500,cs),
(114,436,o),
(142,380,o),
(197,354,c),
(113,333,o),
(48,265,o),
(32,187,c),
(4,59,o),
(75,-8,o),
(245,-8,c)
);
},
{
closed = 1;
nodes = (
(375,-8,o),
(477,59,o),
(505,187,c),
(445,187,l),
(426,99,o),
(340,52,o),
(258,52,c),
(245,-8,l)
);
},
{
closed = 1;
nodes = (
(553,632,l),
(509,658,o),
(456,678,o),
(391,678,c),
(378,618,l),
(429,618,o),
(471,600,o),
(513,580,c)
);
},
{
closed = 1;
nodes = (
(505,187,l),
(572,505,l),
(510,495,l),
(445,187,l)
);
},
{
closed = 1;
nodes = (
(594,327,l),
(616,382,l),
(328,382,l),
(316,327,l)
);
}
);
width = 633;
},
{
layerId = m004;
shapes = (
{
closed = 1;
nodes = (
(281,112,l),
(239,112,o),
(183,134,o),
(199,207,cs),
(214,280,o),
(279,297,o),
(321,297,c),
(345,412,l),
(319,412,o),
(268,416,o),
(283,485,cs),
(297,554,o),
(351,559,o),
(377,559,c),
(402,679,l),
(218,679,o),
(123,614,o),
(99,500,cs),
(85,436,o),
(113,381,o),
(168,355,c),
(84,334,o),
(20,270,o),
(3,192,cs),
(-24,64,o),
(46,-8,o),
(256,-8,c)
);
},
{
closed = 1;
nodes = (
(466,-8,o),
(529,64,o),
(556,192,c),
(380,207,l),
(364,134,o),
(323,112,o),
(281,112,c),
(256,-8,l)
);
},
{
closed = 1;
nodes = (
(604,633,l),
(559,654,o),
(494,679,o),
(402,679,c),
(377,559,l),
(446,559,o),
(494,548,o),
(551,521,c)
);
},
{
closed = 1;
nodes = (
(556,192,l),
(623,505,l),
(441,495,l),
(376,192,l)
);
},
{
closed = 1;
nodes = (
(639,297,l),
(673,412,l),
(345,412,l),
(321,297,l)
);
}
);
width = 654;
}
);
unicode = 38;
userData = {
KernOnSpecialSpacing = {
L = symbols;
R = symbols;
};
};
}
{
glyphname = quotesingle;
kernLeft = KO_quotesingle;
kernRight = KO_quotesingle;
layers = (
{
layerId = m004;
shapes = (
{
closed = 1;
nodes = (
(85,440,l),
(185,440,l),
(261,700,l),
(121,700,l)
);
}
);
width = 190;
},
{
layerId = m003;
shapes = (
{
closed = 1;
nodes = (
(109,500,l),
(149,500,l),
(201,700,l),
(141,700,l)
);
}
);
width = 150;
}
);
metricRight = "=|";
note = quotesingle;
unicode = 39;
userData = {
KernOnSpecialSpacing = {
L = quotes;
R = quotes;
};
};
}
{
glyphname = parenleft;
kernLeft = KO_parenleft;
kernRight = KO_parenleft;
layers = (
{
layerId = m003;
shapes = (
{
closed = 1;
nodes = (
(138,550,o),
(249,671,o),
(284,699,c),
(256,743,l),
(189,706,o),
(77,563,o),
(77,332,cs),
(77,99,o),
(189,-44,o),
(256,-82,c),
(284,-38,l),
(249,-10,o),
(138,111,o),
(138,332,cs)
);
}
);
width = 345;
},
{
layerId = m004;
shapes = (
{
closed = 1;
nodes = (
(250,550,o),
(386,671,o),
(427,699,c),
(327,783,l),
(252,746,o),
(90,603,o),
(32,332,cs),
(-26,59,o),
(76,-84,o),
(135,-122,c),
(271,-38,l),
(242,-10,o),
(156,111,o),
(203,332,cs)
);
}
);
width = 332;
}
);
metricLeft = "=O";
note = parenleft;
unicode = 40;
userData = {
KernOnSpecialSpacing = {
R = parenthesis;
};
};
}
{
glyphname = parenright;
kernLeft = KO_parenright;
kernRight = KO_parenright;
layers = (
{
layerId = m004;
shapes = (
{
closed = 1;
nodes = (
(114,111,o),
(-22,-10,o),
(-63,-38,c),
(37,-122,l),
(112,-84,o),
(274,59,o),
(332,332,cs),
(390,603,o),
(288,746,o),
(229,783,c),
(93,699,l),
(122,671,o),
(208,550,o),
(161,332,cs)
);
}
);
width = 330;
},
{
layerId = m003;
shapes = (
{
closed = 1;
nodes = (
(141,111,o),
(5,-10,o),
(-36,-38,c),
(-18,-82,l),
(57,-44,o),
(200,99,o),
(249,332,cs),
(298,563,o),
(217,706,o),
(158,743,c),
(120,699,l),
(149,671,o),
(235,550,o),
(188,332,cs)
);
}
);
width = 277;
}
);
metricRight = "=O";
note = parenright;
unicode = 41;
userData = {
KernOnSpecialSpacing = {
L = parenthesis;
};
};
}
{
glyphname = asterisk;
kernLeft = KO_asterisk;
kernRight = KO_asterisk;
layers = (
{
layerId = m003;
shapes = (
{
closed = 1;
nodes = (
(244,350,l),
(299,350,l),
(374,700,l),
(319,700,l)
);
},
{
closed = 1;
nodes = (
(130,461,l),
(148,414,l),
(488,589,l),
(470,636,l)
);
},
{
closed = 1;
nodes = (
(195,636,l),
(157,589,l),
(423,414,l),
(461,461,l)
);
}
);
width = 500;
},
{
layerId = m004;
shapes = (
{
closed = 1;
nodes = (
(220,330,l),
(315,330,l),
(398,720,l),
(303,720,l)
);
},
{
closed = 1;
nodes = (
(103,468,l),
(135,387,l),
(515,582,l),
(483,663,l)
);
},
{
closed = 1;
nodes = (
(194,663,l),
(128,582,l),
(424,387,l),
(490,468,l)
);
}
);
width = 500;
}
);
note = asterisk;
unicode = 42;
userData = {
KernOnSpecialSpacing = {
L = quotes;
R = quotes;
};
};
}
{
glyphname = plus;
kernLeft = KO_plus;
kernRight = KO_plus;
layers = (
{
layerId = m003;
shapes = (
{
closed = 1;
nodes = (
(105,320,l),
(525,320,l),
(538,380,l),
(118,380,l)
);
},
{
closed = 1;
nodes = (
(336,560,l),
(247,140,l),
(307,140,l),
(396,560,l)
);
}
);
width = 600;
},
{
layerId = m004;
shapes = (
{
closed = 1;
nodes = (
(59,290,l),
(559,290,l),
(584,410,l),
(84,410,l)
);
},
{
closed = 1;
nodes = (
(314,600,l),
(208,100,l),
(328,100,l),
(434,600,l)
);
}
);
width = 600;
}
);
unicode = 43;
userData = {
KernOnSpecialSpacing = {
L = math;
R = math;
};
};
}
{
glyphname = comma;
kernLeft = KO_comma;
kernRight = KO_comma;
layers = (
{
layerId = m003;
shapes = (
{
closed = 1;
nodes = (
(40,-8,o),
(64,12,o),
(69,37,cs),
(75,62,o),
(59,82,o),
(34,82,cs),
(9,82,o),
(-15,62,o),
(-21,37,cs),
(-26,12,o),
(-10,-8,o),
(15,-8,cs)
);
},
{
closed = 1;
nodes = (
(-25,-133,l),
(10,-108,o),
(116,0,o),
(65,67,c),
(15,-8,l),
(8,-38,o),
(-26,-81,o),
(-61,-106,c)
);
}
);
width = 143;
},
{
layerId = m004;
shapes = (
{
closed = 1;
nodes = (
(114,-8,o),
(169,37,o),
(180,92,cs),
(192,147,o),
(157,192,o),
(102,192,cs),
(47,192,o),
(-8,147,o),
(-20,92,c),
(-31,37,o),
(4,-8,o),
(59,-8,cs)
);
},
{
closed = 1;
nodes = (
(26,-213,l),
(138,-131,o),
(260,72,o),
(162,167,c),
(59,-8,l),
(47,-63,o),
(0,-113,o),
(-42,-146,c)
);
}
);
width = 253;
}
);
metricLeft = "=i";
metricRight = "=|";
unicode = 44;
userData = {
KernOnSpecialSpacing = {
L = period;
R = period;
};
};
}
{
glyphname = hyphen;
kernLeft = KO_hyphen;
kernRight = KO_hyphen;
layers = (
{
layerId = m003;
shapes = (
{
closed = 1;
nodes = (
(5,225,l),
(291,225,l),
(302,275,l),
(16,275,l)
);
}
);
width = 307;
},
{
layerId = m004;
shapes = (
{
closed = 1;
nodes = (
(-5,180,l),
(361,180,l),
(390,320,l),
(24,320,l)
);
}
);
width = 385;
}
);
metricLeft = "=H";
metricRight = "=|";
unicode = 45;
userData = {
KernOnSpecialSpacing = {
L = hyphen;
R = hyphen;
};
};
}
{
glyphname = period;
kernLeft = KO_period;
kernRight = KO_period;
layers = (
{
layerId = m003;
shapes = (
{
closed = 1;
nodes = (
(30,-8,o),
(55,12,o),
(60,37,cs),
(65,62,o),
(50,82,o),
(25,82,cs),
(0,82,o),
(-25,62,o),
(-30,37,cs),
(-35,12,o),
(-20,-8,o),
(5,-8,cs)
);
}
);
width = 120;
},
{
layerId = m004;
shapes = (
{
closed = 1;
nodes = (
(114,-8,o),
(169,36,o),
(180,92,cs),
(192,147,o),
(157,192,o),
(102,192,cs),
(46,192,o),
(-8,147,o),
(-20,92,cs),
(-31,36,o),
(3,-8,o),
(59,-8,cs)
);
}
);
width = 228;
}
);
metricLeft = "=i";
metricRight = "=|";
unicode = 46;
userData = {
KernOnSpecialSpacing = {
L = period;
R = period;
};
};
}
{
glyphname = slash;
kernLeft = KO_slash;
kernRight = KO_slash;
layers = (
{
layerId = m003;
shapes = (
{
closed = 1;
nodes = (
(-35,-125,l),
(20,-125,l),
(372,700,l),
(317,700,l)
);
}
);
width = 321;
},
{
layerId = m004;
shapes = (
{
closed = 1;
nodes = (
(-35,-125,l),
(100,-125,l),
(452,700,l),
(317,700,l)
);
}
);
width = 401;
}
);
note = slash;
unicode = 47;
userData = {
KernOnSpecialSpacing = {
L = slash;
R = slash;
};
};
}
{
glyphname = colon;
kernLeft = KO_colon;
kernRight = KO_colon;
layers = (
{
layerId = m003;
shapes = (
{
closed = 1;
nodes = (
(108,358,o),
(133,378,o),
(138,403,cs),
(143,428,o),
(127,448,o),
(102,448,cs),
(77,448,o),
(53,428,o),
(48,403,cs),
(43,378,o),
(58,358,o),
(83,358,cs)
);
},
{
closed = 1;
nodes = (
(31,-8,o),
(55,12,o),
(60,37,cs),
(65,62,o),
(50,82,o),
(25,82,cs),
(0,82,o),
(-25,62,o),
(-30,37,cs),
(-35,12,o),
(-19,-8,o),
(6,-8,cs)
);
}
);
width = 120;
},
{
layerId = m004;
shapes = (
{
closed = 1;
nodes = (
(181,308,o),
(236,352,o),
(248,408,cs),
(259,463,o),
(224,508,o),
(169,508,cs),
(113,508,o),
(59,463,o),
(48,408,cs),
(36,352,o),
(70,308,o),
(126,308,cs)
);
},
{
closed = 1;
nodes = (
(114,-8,o),
(169,37,o),
(180,92,cs),
(192,147,o),
(157,192,o),
(102,192,cs),
(47,192,o),
(-8,147,o),
(-20,92,c),
(-31,37,o),
(4,-8,o),
(59,-8,cs)
);
}
);
width = 228;
}
);
metricLeft = "=i";
metricRight = "=|";
note = colon;
unicode = 58;
userData = {
KernOnName = colon;
KernOnSpecialSpacing = {
L = "spaced-off";
R = "spaced-off";
};
};
}
{
glyphname = semicolon;
kernLeft = KO_colon;
layers = (
{
layerId = m004;
shapes = (
{
closed = 1;
nodes = (
(114,-8,o),
(169,37,o),
(180,92,cs),
(192,147,o),
(157,192,o),
(102,192,cs),
(47,192,o),
(-8,147,o),
(-20,92,c),
(-31,37,o),
(4,-8,o),
(59,-8,cs)
);
},
{
closed = 1;
nodes = (
(26,-213,l),
(138,-131,o),
(260,72,o),
(162,167,c),
(59,-8,l),
(47,-63,o),
(0,-113,o),
(-42,-146,c)
);
},
{
closed = 1;
nodes = (
(181,308,o),
(236,352,o),
(248,408,cs),
(259,463,o),
(224,508,o),
(169,508,cs),
(113,508,o),
(59,463,o),
(48,408,cs),
(36,352,o),
(70,308,o),
(126,308,cs)
);
}
);
width = 273;
},
{
layerId = m003;
shapes = (
{
closed = 1;
nodes = (
(41,-8,o),
(65,12,o),
(70,37,cs),
(76,62,o),
(60,82,o),
(35,82,cs),
(10,82,o),
(-14,62,o),
(-20,37,cs),
(-25,12,o),
(-9,-8,o),
(16,-8,cs)
);
},
{
closed = 1;
nodes = (
(-24,-133,l),
(12,-108,o),
(118,0,o),
(66,67,c),
(16,-8,l),
(9,-38,o),
(-25,-81,o),
(-60,-106,c)
);
},
{
closed = 1;
nodes = (
(109,358,o),
(133,378,o),
(138,403,cs),
(143,428,o),
(128,448,o),
(103,448,cs),
(78,448,o),
(53,428,o),
(48,403,cs),
(43,378,o),
(59,358,o),
(84,358,cs)
);
}
);
width = 154;
}
);
metricLeft = "=i";
note = semicolon;
unicode = 59;
userData = {
KernOnSpecialSpacing = {
L = "spaced-off";
R = "spaced-off";
};
};
}
{
glyphname = less;
kernLeft = KO_less;
kernRight = KO_less;
layers = (
{
layerId = m003;
shapes = (
{
closed = 1;
nodes = (
(108,393,l),
(91,315,l),
(537,529,l),
(520,591,l)
);
},
{
closed = 1;
nodes = (
(106,383,l),
(91,315,l),
(420,119,l),
(460,169,l)
);
}
);
width = 600;
},
{
layerId = m004;
shapes = (
{
closed = 1;
nodes = (
(80,427,l),
(47,271,l),
(572,523,l),
(538,647,l)
);
},
{
closed = 1;
nodes = (
(76,407,l),
(47,271,l),
(412,53,l),
(495,155,l)
);
}
);
width = 600;
}
);
unicode = 60;
userData = {
KernOnSpecialSpacing = {
L = math;
R = math;
};
};
}
{
glyphname = equal;
kernLeft = KO_equal;
kernRight = KO_equal;
layers = (
{
layerId = m003;
shapes = (
{
closed = 1;
nodes = (
(124,410,l),
(544,410,l),
(557,470,l),
(137,470,l)
);
},
{
closed = 1;
nodes = (
(86,230,l),
(506,230,l),
(519,290,l),
(99,290,l)
);
}
);
width = 600;
},
{
layerId = m004;
shapes = (
{
closed = 1;
nodes = (
(80,390,l),
(580,390,l),
(605,510,l),
(105,510,l)
);
},
{
closed = 1;
nodes = (
(37,190,l),
(537,190,l),
(563,310,l),
(63,310,l)
);
}
);
width = 600;
}
);
metricRight = "=|";
unicode = 61;
userData = {
KernOnSpecialSpacing = {
L = math;
R = math;
};
};
}
{
glyphname = greater;
kernLeft = KO_greater;
kernRight = KO_greater;
layers = (
{
layerId = m003;
shapes = (
{
closed = 1;
nodes = (
(140,529,l),
(490,295,l),
(509,383,l),
(181,581,l)
);
},
{
closed = 1;
nodes = (
(79,99,l),
(490,295,l),
(509,383,l),
(64,169,l)
);
}
);
width = 600;
},
{
layerId = m004;
shapes = (
{
closed = 1;
nodes = (
(106,533,l),
(523,281,l),
(552,417,l),
(188,637,l)
);
},
{
closed = 1;
nodes = (
(62,43,l),
(519,261,l),
(552,417,l),
(27,165,l)
);
}
);
width = 600;
}
);
unicode = 62;
userData = {
KernOnSpecialSpacing = {
L = math;
R = math;
};
};
}
{
glyphname = question;
kernLeft = KO_question;
kernRight = KO_question;
layers = (
{
layerId = m003;
shapes = (
{
closed = 1;
nodes = (
(141,-8,o),
(165,12,o),
(170,37,cs),
(176,62,o),
(160,82,o),
(135,82,cs),
(110,82,o),
(86,62,o),
(80,37,cs),
(75,12,o),
(91,-8,o),
(116,-8,cs)
);
},
{
closed = 1;
nodes = (
(165,621,o),
(213,653,o),
(276,653,c),
(288,708,l),
(214,708,o),
(146,668,o),
(109,645,c),
(134,601,l)
);
},
{
closed = 1;
nodes = (
(276,653,l),
(370,653,o),
(387,607,o),
(375,552,cs),
(352,443,o),
(185,458,o),
(153,310,c),
(213,310,l),
(238,425,o),
(407,410,o),
(437,552,c),
(454,634,o),
(414,708,o),
(288,708,c)
);
},
{
closed = 1;
nodes = (
(126,180,l),
(186,180,l),
(213,310,l),
(153,310,l)
);
}
);
width = 418;
},
{
layerId = m004;
shapes = (
{
closed = 1;
nodes = (
(193,-8,o),
(246,36,o),
(258,92,cs),
(270,148,o),
(235,192,o),
(179,192,cs),
(123,192,o),
(70,148,o),
(58,92,cs),
(46,36,o),
(81,-8,o),
(137,-8,cs)
);
},
{
closed = 1;
nodes = (
(191,572,o),
(224,588,o),
(284,588,c),
(309,708,l),
(195,708,o),
(123,653,o),
(85,625,c),
(142,536,l)
);
},
{
closed = 1;
nodes = (
(284,588,l),
(344,588,o),
(347,557,o),
(342,532,c),
(324,450,o),
(155,501,o),
(114,310,c),
(294,310,l),
(312,392,o),
(483,341,o),
(524,532,cs),
(541,614,o),
(495,708,o),
(309,708,c)
);
},
{
closed = 1;
nodes = (
(102,250,l),
(282,250,l),
(294,310,l),
(114,310,l)
);
}
);
width = 479;
}
);
unicode = 63;
userData = {
KernOnSpecialSpacing = {
L = "spaced-off";
};
};
}
{
glyphname = at;
kernRight = KO_at;
layers = (
{
layerId = m003;
shapes = (
{
closed = 1;
nodes = (
(465,605,l),
(267,605,o),
(83,500,o),
(30,250,cs),
(-23,0,o),
(115,-110,o),
(313,-110,cs),
(408,-110,o),
(514,-74,o),
(590,-21,c),
(569,19,l),
(493,-31,o),
(401,-54,o),
(325,-54,cs),
(177,-54,o),
(28,12,o),
(79,250,cs),
(130,488,o),
(306,550,o),
(454,550,c)
);
},
{
closed = 1;
nodes = (
(372,144,l),
(288,144,o),
(257,189,o),
(270,250,cs),
(285,320,o),
(362,347,o),
(546,347,c),
(557,402,l),
(532,402,l),
(330,402,o),
(233,356,o),
(210,250,cs),
(190,158,o),
(238,89,o),
(361,89,c)
);
},
{
closed = 1;
nodes = (
(617,399,ls),
(645,531,o),
(611,605,o),
(465,605,c),
(454,550,l),
(564,550,o),
(579,504,o),
(557,402,c),
(606,347,l)
);
},
{
closed = 1;
nodes = (
(554,257,o),
(464,144,o),
(372,144,c),
(361,89,l),
(472,89,o),
(582,237,o),
(582,237,c),
(554,257,l)
);
},
{
closed = 1;
nodes = (
(606,347,l),
(557,402,l),
(505,157,l),
(562,142,l)
);
},
{
closed = 1;
nodes = (
(492,97,l),
(552,97,l),
(582,237,l),
(505,157,l)
);
},
{
pos = (552,97);
ref = _serif.I.BR;
}
);
width = 681;
},
{
layerId = m004;
shapes = (
{
closed = 1;
nodes = (
(510,605,l),
(252,605,o),
(68,500,o),
(15,250,cs),
(-38,0,o),
(130,-110,o),
(358,-110,cs),
(453,-110,o),
(559,-74,o),
(635,-21,c),
(622,59,l),
(547,9,o),
(455,-14,o),
(379,-14,cs),
(231,-14,o),
(80,42,o),
(124,250,cs),
(168,458,o),
(338,490,o),
(456,490,c)
);
},
{
closed = 1;
nodes = (
(410,204,l),
(385,204,o),
(368,219,o),
(375,250,cs),
(384,290,o),
(409,317,o),
(484,317,c),
(502,402,l),
(477,402,l),
(315,402,o),
(218,356,o),
(195,250,cs),
(175,158,o),
(223,89,o),
(326,89,c)
);
},
{
closed = 1;
nodes = (
(682,399,ls),
(711,531,o),
(662,605,o),
(510,605,c),
(456,489,l),
(512,489,o),
(516,467,o),
(502,402,c),
(664,317,l)
);
},
{
closed = 1;
nodes = (
(586,277,o),
(445,204,o),
(410,204,c),
(326,89,l),
(437,89,o),
(586,277,o),
(586,277,c),
(586,277,l)
);
},
{
closed = 1;
nodes = (
(664,317,l),
(502,402,l),
(450,157,l),
(627,142,l)
);
},
{
closed = 1;
nodes = (
(437,97,l),
(617,97,l),
(647,237,l),
(450,157,l)
);
},
{
pos = (617,97);
ref = _serif.I.BR;
}
);
width = 722;
}
);
metricLeft = "=o";
unicode = 64;
userData = {
KernOnSpecialSpacing = {
L = symbols;
R = symbols;
};
};
}
{
glyphname = A;
kernLeft = KO_A;
kernRight = KO_A;
layers = (
{
anchors = (
{
name = bottom;
pos = (251,0);
},
{
name = ogonek;
pos = (505,0);
},
{
name = top;
pos = (393,667);
}
);
layerId = m003;
shapes = (
{
closed = 1;
nodes = (
(69,0,l),
(394,628,l),
(374,628,l),
(433,0,l),
(505,0,l),
(431,667,l),
(355,667,l),
(-3,0,l)
);
},
{
pos = (17,0);
ref = _serif.I.BL;
},
{
pos = (69,0);
ref = _serif.I.BR;
},
{
pos = (433,0);
ref = _serif.I.BL;
},
{
closed = 1;
nodes = (
(440,158,l),
(453,218,l),
(141,218,l),
(128,158,l)
);
},
{
pos = (485,0);
ref = _serif.I.BR;
},
{
pos = (355,667);
ref = _serif.I.TL;
}
);
width = 608;
},
{
anchors = (
{
name = bottom;
pos = (277,0);
},
{
name = ogonek;
pos = (567,0);
},
{
name = top;
pos = (417,657);
}
);
layerId = m004;
shapes = (
{
closed = 1;
nodes = (
(174,0,l),
(469,667,l),
(369,667,l),
(380,0,l),
(567,0,l),
(509,667,l),
(329,667,l),
(-13,0,l)
);
},
{
pos = (17,0);
ref = _serif.I.BL;
},
{
pos = (174,0);
ref = _serif.I.BR;
},
{
pos = (380,0);
ref = _serif.I.BL;
},
{
closed = 1;
nodes = (
(471,178,l),
(497,298,l),
(185,298,l),
(159,178,l)
);
},
{
pos = (537,0);
ref = _serif.I.BR;
},
{
pos = (319,667);
ref = _serif.I.TL;
}
);
width = 660;
}
);
unicode = 65;
userData = {
KernOnName = A;
};
}
{
glyphname = B;
kernLeft = KO_H;
kernRight = KO_B;
layers = (
{
anchors = (
{
name = bottom;
pos = (217,0);
},
{
name = center;
pos = (288,334);
},
{
name = top;
pos = (359,667);
}
);
layerId = m003;
shapes = (
{
closed = 1;
nodes = (
(103,60,l),
(158,320,l),
(280,320,ls),
(402,320,o),
(454,279,o),
(435,191,cs),
(417,103,o),
(347,60,o),
(225,60,c)
);
},
{
closed = 1;
nodes = (
(449,616,o),
(493,577,o),
(476,498,cs),
(459,419,o),
(399,380,o),
(293,380,cs),
(171,380,l),
(220,613,l),
(220,613,o),
(268,616,o),
(343,616,cs)
);
},
{
closed = 1;
nodes = (
(382,0,o),
(480,63,o),
(507,191,cs),
(524,269,o),
(487,331,o),
(412,352,c),
(478,378,o),
(529,434,o),
(543,498,cs),
(567,612,o),
(500,676,o),
(356,676,cs),
(281,676,o),
(232,667,o),
(169,667,c),
(27,0,l),
(212,0,l)
);
},
{
pos = (169,667);
ref = _serif.I.TL;
},
{
pos = (27,0);
ref = _serif.I.BL;
}
);
width = 523;
},
{
anchors = (
{
name = bottom;
pos = (235,0);
},
{
name = center;
pos = (306,334);
},
{
name = top;
pos = (377,667);
}
);
layerId = m004;
shapes = (
{
closed = 1;
nodes = (
(234,120,l),
(271,290,l),
(313,290,ls),
(355,290,o),
(413,279,o),
(398,206,cs),
(382,133,o),
(318,120,o),
(276,120,c)
);
},
{
closed = 1;
nodes = (
(395,556,o),
(446,552,o),
(432,483,cs),
(417,414,o),
(364,410,o),
(338,410,cs),
(296,410,l),
(326,553,l),
(326,553,o),
(326,556,o),
(369,556,cs)
);
},
{
closed = 1;
nodes = (
(461,0,o),
(559,63,o),
(586,191,cs),
(603,269,o),
(566,331,o),
(491,352,c),
(557,378,o),
(608,434,o),
(622,498,cs),
(646,612,o),
(579,676,o),
(435,676,cs),
(290,676,o),
(259,667,o),
(169,667,c),
(27,0,l),
(291,0,l)
);
},
{
pos = (169,667);
ref = _serif.I.TL;
},
{
pos = (27,0);
ref = _serif.I.BL;
}
);
width = 602;
}
);
metricLeft = "=H";
metricRight = "=H/4";
unicode = 66;
}
{
glyphname = C;
kernLeft = KO_O;
kernRight = KO_C;
layers = (
{
anchors = (
{
name = bottom;
pos = (278,0);
},
{
name = top;
pos = (420,667);
}
);
layerId = m003;
shapes = (
{
closed = 1;
nodes = (
(459,614,o),
(502,596,o),
(543,576,c),
(583,628,l),
(539,654,o),
(486,674,o),
(421,674,cs),
(216,674,o),
(101,512,o),
(62,332,c),
(134,332,l),
(168,489,o),
(253,614,o),
(408,614,cs)
);
},
{
closed = 1;
nodes = (
(133,50,o),
(101,175,o),
(134,332,c),
(62,332,l),
(24,152,o),
(71,-10,o),
(276,-10,cs),
(341,-10,o),
(402,10,o),
(458,36,c),
(440,88,l),
(389,68,o),
(339,50,o),
(288,50,cs)
);
},
{
pos = (583,628);
ref = _serif.C.TR;
},
{
pos = (458,36);
ref = _serif.C.BR;
}
);
width = 533;
},
{
anchors = (
{
name = bottom;
pos = (288,0);
},
{
name = top;
pos = (430,667);
}
);
layerId = m004;
shapes = (
{
closed = 1;
nodes = (
(475,556,o),
(524,545,o),
(581,518,c),
(634,630,l),
(588,651,o),
(524,676,o),
(432,676,c),
(187,676,o),
(71,514,o),
(33,334,c),
(225,334,l),
(246,434,o),
(291,556,o),
(406,556,cs)
);
},
{
closed = 1;
nodes = (
(197,112,o),
(204,234,o),
(225,334,c),
(33,334,l),
(-5,154,o),
(41,-9,o),
(286,-9,cs),
(378,-9,o),
(453,17,o),
(508,38,c),
(503,150,l),
(434,123,o),
(381,112,o),
(312,112,cs)
);
},
{
pos = (634,630);
ref = _serif.C.TR;
},
{
pos = (508,38);
ref = _serif.C.BR;
}
);
width = 568;
}
);
metricLeft = "=O";
metricRight = "=o";
unicode = 67;
userData = {
KernOnName = C;
};
}
{
glyphname = D;
kernLeft = KO_H;
kernRight = KO_O;
layers = (
{
anchors = (
{
name = bottom;
pos = (211,0);
},
{
name = center;
pos = (164,350);
},
{
name = top;
pos = (353,667);
}
);
layerId = m003;
shapes = (
{
closed = 1;
nodes = (
(222,0,l),
(427,0,o),
(545,156,o),
(583,336,cs),
(622,516,o),
(571,676,o),
(356,676,c),
(294,676,o),
(232,667,o),
(169,667,c),
(27,0,l)
);
},
{
closed = 1;
nodes = (
(220,612,l),
(220,612,o),
(268,616,o),
(343,616,cs),
(508,616,o),
(545,493,o),
(511,336,cs),
(478,179,o),
(390,60,o),
(235,60,cs),
(175,60,o),
(103,60,o),
(103,60,c)
);
},
{
pos = (169,667);
ref = _serif.I.TL;
},
{
pos = (27,0);
ref = _serif.I.BL;
}
);
width = 610;
},
{
anchors = (
{
name = bottom;
pos = (262,0);
},
{
name = center;
pos = (205,350);
},
{
name = top;
pos = (394,667);
}
);
layerId = m004;
shapes = (
{
closed = 1;
nodes = (
(262,0,l),
(507,0,o),
(625,156,o),
(663,336,cs),
(702,516,o),
(651,676,o),
(396,676,c),
(333,676,o),
(268,667,o),
(169,667,c),
(27,0,l)
);
},
{
closed = 1;
nodes = (
(338,555,l),
(338,555,o),
(345,556,o),
(370,556,cs),
(455,556,o),
(505,493,o),
(471,336,cs),
(438,179,o),
(362,120,o),
(287,120,cs),
(277,120,o),
(245,120,o),
(245,120,c)
);
},
{
pos = (169,667);
ref = _serif.I.TL;
},
{
pos = (27,0);
ref = _serif.I.BL;
}
);
width = 660;
}
);
metricLeft = "=H";
metricRight = "=O";
unicode = 68;
userData = {
KernOnName = D;
};
}
{
glyphname = E;
kernLeft = KO_H;
kernRight = KO_E;
layers = (
{
anchors = (
{
name = bottom;
pos = (199,0);
},
{
name = ogonek;
pos = (408,0);
},
{
name = top;
pos = (341,667);
},
{
name = topleft;
pos = (109,667);
}
);
layerId = m003;
shapes = (
{
closed = 1;
nodes = (
(29,0,l),
(408,0,l),
(421,60,l),
(105,60,l),
(160,320,l),
(417,320,l),
(430,380,l),
(173,380,l),
(221,607,l),
(538,607,l),
(551,667,l),
(171,667,l)
);
},
{
pos = (171,667);
ref = _serif.I.TL;
},
{
pos = (29,0);
ref = _serif.I.BL;
},
{
pos = (408,0);
ref = _serif.Z.BR;
},
{
pos = (551,667);
ref = _serif.E.TR;
},
{
pos = (417,320);
ref = _serif.Z.BR;
},
{
pos = (430,380);
ref = _serif.E.TR;
}
);
width = 503;
},
{
anchors = (
{
name = bottom;
pos = (246,0);
},
{
name = ogonek;
pos = (486,0);
},
{
name = top;
pos = (388,657);
},
{
name = topleft;
pos = (144,667);
}
);
layerId = m004;
shapes = (
{
closed = 1;
nodes = (
(27,0,l),
(486,0,l),
(506,140,l),
(240,140,l),
(267,265,l),
(473,265,l),
(503,405,l),
(296,405,l),
(322,527,l),
(589,527,l),
(629,667,l),
(169,667,l)
);
},
{
pos = (169,667);
ref = _serif.I.TL;
},
{
pos = (27,0);
ref = _serif.I.BL;
},
{
pos = (486,0);
ref = _serif.Z.BR;
},
{
pos = (629,667);
ref = _serif.E.TR;
},
{
pos = (474,265);
ref = _serif.Z.BR;
},
{
pos = (503,405);
ref = _serif.E.TR;
}
);
width = 550;
}
);
metricLeft = "=H";
metricRight = "=H";
unicode = 69;
}
{
glyphname = F;
kernLeft = KO_H;
kernRight = KO_F;
layers = (
{
anchors = (
{
name = bottom;
pos = (276,0);
},
{
name = top;
pos = (418,667);
}
);
layerId = m003;
shapes = (
{
closed = 1;
nodes = (
(27,0,l),
(90,0,l),
(154,300,l),
(411,300,l),
(424,360,l),
(167,360,l),
(219,607,l),
(536,607,l),
(549,667,l),
(169,667,l)
);
},
{
pos = (169,667);
ref = _serif.I.TL;
},
{
pos = (549,667);
ref = _serif.E.TR;
},
{
pos = (411,300);
ref = _serif.Z.BR;
},
{
pos = (424,360);
ref = _serif.E.TR;
},
{
pos = (27,0);
ref = _serif.I.BL;
},
{
pos = (90,0);
ref = _serif.I.BR;
}
);
width = 463;
},
{
anchors = (
{
name = bottom;
pos = (335,0);
},
{
name = top;
pos = (477,667);
}
);
layerId = m004;
shapes = (
{
closed = 1;
nodes = (
(27,0,l),
(210,0,l),
(263,250,l),
(470,250,l),
(500,390,l),
(293,390,l),
(322,527,l),
(599,527,l),
(629,667,l),
(169,667,l)
);
},
{
pos = (169,667);
ref = _serif.I.TL;
},
{
pos = (629,667);
ref = _serif.E.TR;
},
{
pos = (471,250);
ref = _serif.Z.BR;
},
{
pos = (500,390);
ref = _serif.E.TR;
},
{
pos = (27,0);
ref = _serif.I.BL;
},
{
pos = (210,0);
ref = _serif.I.BR;
}
);
width = 578;
}
);
metricLeft = "=H";
unicode = 70;
userData = {
KernOnName = F;
};
}
{
glyphname = G;
kernLeft = KO_O;
kernRight = KO_G;
layers = (
{
anchors = (
{
name = bottom;
pos = (277,0);
},
{
name = top;
pos = (419,667);
}
);
layerId = m003;
shapes = (
{
closed = 1;
nodes = (
(460,616,o),
(502,598,o),
(544,578,c),
(584,630,l),
(540,656,o),
(487,676,o),
(422,676,cs),
(217,676,o),
(101,514,o),
(63,334,cs),
(25,154,o),
(71,-10,o),
(276,-10,cs),
(377,-10,o),
(475,37,o),
(475,37,c),
(419,69,l),
(373,56,o),
(332,50,o),
(289,50,cs),
(134,50,o),
(102,177,o),
(135,334,cs),
(169,491,o),
(254,616,o),
(409,616,cs)
);
},
{
closed = 1;
nodes = (
(475,37,l),
(546,370,l),
(483,370,l),
(419,69,l)
);
},
{
closed = 1;
nodes = (
(350,340,l),
(534,315,l),
(548,380,l),
(359,380,l)
);
},
{
pos = (584,630);
ref = _serif.C.TR;
}
);
width = 530;
},
{
anchors = (
{
name = bottom;
pos = (288,0);
},
{
name = top;
pos = (430,667);
}
);
layerId = m004;
shapes = (
{
closed = 1;
nodes = (
(475,556,o),
(524,545,o),
(581,518,c),
(634,630,l),
(589,651,o),
(524,676,o),
(432,676,cs),
(187,676,o),
(71,514,o),
(33,334,cs),
(-5,154,o),
(41,-10,o),
(286,-10,cs),
(427,-10,o),
(525,37,o),
(525,37,c),
(446,149,l),
(401,136,o),
(359,120,o),
(314,120,cs),
(199,120,o),
(204,234,o),
(225,334,cs),
(246,434,o),
(291,556,o),
(406,556,cs)
);
},
{
closed = 1;
nodes = (
(525,37,l),
(601,393,l),
(418,393,l),
(353,89,l)
);
},
{
closed = 1;
nodes = (
(308,303,l),
(571,253,l),
(605,413,l),
(332,413,l)
);
},
{
pos = (634,630);
ref = _serif.C.TR;
}
);
width = 581;
}
);
metricLeft = "=O";
unicode = 71;
userData = {
KernOnName = G;
};
}
{
glyphname = H;
kernLeft = KO_H;
kernRight = KO_H;
layers = (
{
anchors = (
{
name = bottom;
pos = (254,0);
},
{
name = center;
pos = (325,334);
},
{
name = top;
pos = (390,637);
},
{
name = topleft;
pos = (107,667);
}
);
layerId = m003;
shapes = (
{
closed = 1;
nodes = (
(418,0,l),
(481,0,l),
(623,667,l),
(560,667,l),
(499,380,l),
(171,380,l),
(232,667,l),
(169,667,l),
(27,0,l),
(90,0,l),
(158,320,l),
(486,320,l)
);
},
{
pos = (169,667);
ref = _serif.I.TL;
},
{
pos = (560,667);
ref = _serif.I.TL;
},
{
pos = (232,667);
ref = _serif.I.TR;
},
{
pos = (623,667);
ref = _serif.I.TR;
},
{
pos = (27,0);
ref = _serif.I.BL;
},
{
pos = (418,0);
ref = _serif.I.BL;
},
{
pos = (90,0);
ref = _serif.I.BR;
},
{
pos = (481,0);
ref = _serif.I.BR;
}
);
width = 614;
},
{
anchors = (
{
name = bottom;
pos = (289,0);
},
{
name = center;
pos = (360,334);
},
{
name = top;
pos = (429,657);
},
{
name = topleft;
pos = (142,657);
}
);
layerId = m004;
shapes = (
{
closed = 1;
nodes = (
(368,0,l),
(551,0,l),
(693,667,l),
(510,667,l),
(457,420,l),
(299,420,l),
(352,667,l),
(169,667,l),
(27,0,l),
(210,0,l),
(270,280,l),
(428,280,l)
);
},
{
pos = (169,667);
ref = _serif.I.TL;
},
{
pos = (510,667);
ref = _serif.I.TL;
},
{
pos = (352,667);
ref = _serif.I.TR;
},
{
pos = (693,667);
ref = _serif.I.TR;
},
{
pos = (27,0);
ref = _serif.I.BL;
},
{
pos = (368,0);
ref = _serif.I.BL;
},
{
pos = (210,0);
ref = _serif.I.BR;
},
{
pos = (551,0);
ref = _serif.I.BR;
}
);
width = 684;
}
);
unicode = 72;
userData = {
KernOnName = H;
};
}
{
glyphname = I;
kernLeft = KO_H;
kernRight = KO_H;
layers = (
{
anchors = (
{
name = bottom;
pos = (59,0);
},
{
name = ogonek;
pos = (90,0);
},
{
name = top;
pos = (194,637);
},
{
name = topleft;
pos = (100,637);
}
);
layerId = m003;
shapes = (
{
closed = 1;
nodes = (
(90,0,l),
(232,667,l),
(169,667,l),
(27,0,l)
);
},
{
pos = (169,667);
ref = _serif.I.TL;
},
{
pos = (27,0);
ref = _serif.I.BL;
},
{
pos = (90,0);
ref = _serif.I.BR;
},
{
pos = (232,667);
ref = _serif.I.TR;
}
);
width = 223;
},
{
anchors = (
{
name = bottom;
pos = (118,0);
},
{
name = ogonek;
pos = (209,0);
},
{
name = top;
pos = (258,657);
},
{
name = topleft;
pos = (142,657);
}
);
layerId = m004;
shapes = (
{
closed = 1;
nodes = (
(209,0,l),
(351,667,l),
(169,667,l),
(27,0,l)
);
},
{
pos = (169,667);
ref = _serif.I.TL;
},
{
pos = (27,0);
ref = _serif.I.BL;
},
{
pos = (209,0);
ref = _serif.I.BR;
},
{
pos = (351,667);
ref = _serif.I.TR;
}
);
width = 341;
}
);
metricLeft = "=H";
metricRight = "=|";
unicode = 73;
userData = {
KernOnName = I;
};
}
{
glyphname = K;
kernLeft = KO_H;
kernRight = KO_K;
layers = (
{
anchors = (
{
name = bottom;
pos = (222,0);
},
{
name = top;
pos = (362,657);
}
);
layerId = m003;
shapes = (
{
closed = 1;
nodes = (
(399,0,l),
(477,0,l),
(294,381,l),
(220,380,l)
);
},
{
closed = 1;
nodes = (
(231,666,l),
(169,666,l),
(27,0,l),
(89,0,l)
);
},
{
closed = 1;
nodes = (
(102,208,l),
(609,667,l),
(524,667,l),
(122,300,l)
);
},
{
pos = (89,0);
ref = _serif.I.BR;
},
{
pos = (437,0);
ref = _serif.I.BR;
},
{
pos = (231,666);
ref = _serif.I.TR;
},
{
pos = (559,667);
ref = _serif.I.TR;
},
{
pos = (27,0);
ref = _serif.I.BL;
},
{
pos = (169,666);
ref = _serif.I.TL;
}
);
width = 563;
},
{
anchors = (
{
name = bottom;
pos = (275,0);
},
{
name = top;
pos = (415,657);
}
);
layerId = m004;
shapes = (
{
closed = 1;
nodes = (
(352,0,l),
(557,0,l),
(438,420,l),
(256,420,l)
);
},
{
closed = 1;
nodes = (
(351,666,l),
(169,666,l),
(27,0,l),
(209,0,l)
);
},
{
closed = 1;
nodes = (
(242,158,l),
(689,667,l),
(504,667,l),
(193,305,l)
);
},
{
pos = (209,0);
ref = _serif.I.BR;
},
{
pos = (507,0);
ref = _serif.I.BR;
},
{
pos = (351,666);
ref = _serif.I.TR;
},
{
pos = (639,667);
ref = _serif.I.TR;
},
{
pos = (27,0);
ref = _serif.I.BL;
},
{
pos = (169,666);
ref = _serif.I.TL;
}
);
width = 633;
}
);
metricLeft = "=H";
unicode = 75;
}
{
glyphname = L;
kernLeft = KO_H;
kernRight = KO_L;
layers = (
{
anchors = (
{
name = bottom;
pos = (169,0);
},
{
name = center;
pos = (240,334);
},
{
name = top;
pos = (304,637);
},
{
name = topright;
pos = (453,667);
}
);
layerId = m003;
shapes = (
{
closed = 1;
nodes = (
(232,667,l),
(169,667,l),
(27,0,l),
(90,0,l)
);
},
{
closed = 1;
nodes = (
(377,0,l),
(390,60,l),
(40,60,l),
(27,0,l)
);
},
{
pos = (169,667);
ref = _serif.I.TL;
},
{
pos = (377,0);
ref = _serif.Z.BR;
},
{
pos = (27,0);
ref = _serif.I.BL;
},
{
pos = (232,667);
ref = _serif.I.TR;
}
);
width = 430;
},
{
anchors = (
{
name = bottom;
pos = (220,0);
},
{
name = center;
pos = (291,334);
},
{
name = top;
pos = (360,657);
},
{
name = topright;
pos = (577,657);
}
);
layerId = m004;
shapes = (
{
closed = 1;
nodes = (
(352,667,l),
(169,667,l),
(27,0,l),
(210,0,l)
);
},
{
closed = 1;
nodes = (
(457,0,l),
(482,120,l),
(52,120,l),
(27,0,l)
);
},
{
pos = (169,667);
ref = _serif.I.TL;
},
{
pos = (457,0);
ref = _serif.Z.BR;
},
{
pos = (27,0);
ref = _serif.I.BL;
},
{
pos = (352,667);
ref = _serif.I.TR;
}
);
width = 510;
}
);
metricLeft = "=H";
unicode = 76;
userData = {
KernOnName = L;
};
}
{
glyphname = M;
kernLeft = KO_H;
kernRight = KO_H;
layers = (
{
anchors = (
{
name = bottom;
pos = (312,0);
},
{
name = top;
pos = (454,667);
}
);
layerId = m003;
shapes = (
{
closed = 1;
nodes = (
(350,-1,l),
(708,667,l),
(640,667,l),
(326,68,l),
(267,667,l),
(200,667,l),
(274,-1,l)
);
},
{
closed = 1;
nodes = (
(90,0,l),
(232,667,l),
(169,667,l),
(27,0,l)
);
},
{
closed = 1;
nodes = (
(597,0,l),
(739,667,l),
(676,667,l),
(534,0,l)
);
},
{
pos = (27,0);
ref = _serif.I.BL;
},
{
pos = (90,0);
ref = _serif.I.BR;
},
{
pos = (534,0);
ref = _serif.I.BL;
},
{
pos = (169,667);
ref = _serif.I.TL;
},
{
pos = (597,0);
ref = _serif.I.BR;
},
{
pos = (739,667);
ref = _serif.I.TR;
}
);
width = 730;
},
{
anchors = (
{
name = bottom;
pos = (367,0);
},
{
name = top;
pos = (507,657);
}
);
layerId = m004;
shapes = (
{
closed = 1;
nodes = (
(407,0,l),
(749,667,l),
(609,667,l),
(433,310,l),
(409,667,l),
(269,667,l),
(327,0,l)
);
},
{
closed = 1;
nodes = (
(210,0,l),
(352,667,l),
(169,667,l),
(27,0,l)
);
},
{
closed = 1;
nodes = (
(707,0,l),
(849,667,l),
(666,667,l),
(524,0,l)
);
},
{
pos = (27,0);
ref = _serif.I.BL;
},
{
pos = (210,0);
ref = _serif.I.BR;
},
{
pos = (524,0);
ref = _serif.I.BL;
},
{
pos = (169,667);
ref = _serif.I.TL;
},
{
pos = (707,0);
ref = _serif.I.BR;
},
{
pos = (849,667);
ref = _serif.I.TR;
}
);
width = 840;
}
);
metricLeft = "=H";
metricRight = "=H";
unicode = 77;
}
{
glyphname = N;
kernLeft = KO_H;
kernRight = KO_N;
layers = (
{
anchors = (
{
name = bottom;
pos = (255,0);
},
{
name = top;
pos = (390,637);
}
);
layerId = m003;
shapes = (
{
closed = 1;
nodes = (
(399,0,l),
(482,0,l),
(623,666,l),
(560,666,l),
(439,95,l),
(253,667,l),
(169,666,l),
(28,0,l),
(91,0,l),
(212,572,l)
);
},
{
pos = (169,666);
ref = _serif.I.TL;
},
{
pos = (560,666);
ref = _serif.I.TL;
},
{
pos = (28,0);
ref = _serif.I.BL;
},
{
pos = (91,0);
ref = _serif.I.BR;
},
{
pos = (623,666);
ref = _serif.I.TR;
}
);
width = 615;
},
{
anchors = (
{
name = bottom;
pos = (292,0);
},
{
name = top;
pos = (432,657);
}
);
layerId = m004;
shapes = (
{
closed = 1;
nodes = (
(402,0,l),
(557,0,l),
(698,666,l),
(543,666,l),
(467,305,l),
(324,667,l),
(168,666,l),
(27,0,l),
(182,0,l),
(258,360,l)
);
},
{
pos = (168,666);
ref = _serif.I.TL;
},
{
pos = (543,666);
ref = _serif.I.TL;
},
{
pos = (27,0);
ref = _serif.I.BL;
},
{
pos = (182,0);
ref = _serif.I.BR;
},
{
pos = (698,666);
ref = _serif.I.TR;
}
);
width = 690;
}
);
metricLeft = "=H";
metricRight = "=H";
unicode = 78;
userData = {
KernOnName = N;
};
}
{
glyphname = O;
kernLeft = KO_O;
kernRight = KO_O;
layers = (
{
anchors = (
{
name = bottom;
pos = (279,0);
},
{
name = center;
pos = (350,334);
},
{
name = ogonek;
pos = (547,10);
},
{
name = top;
pos = (414,637);
},
{
name = topleft;
pos = (102,637);
},
{
name = topright;
pos = (718,597);
}
);
layerId = m003;
shapes = (
{
closed = 1;
nodes = (
(482,-10,o),
(599,154,o),
(637,334,cs),
(675,514,o),
(628,676,o),
(423,676,c),
(218,676,o),
(101,514,o),
(63,334,cs),
(25,154,o),
(72,-10,o),
(277,-10,cs)
);
},
{
closed = 1;
nodes = (
(134,50,o),
(101,177,o),
(135,334,cs),
(168,491,o),
(255,616,o),
(410,616,cs),
(565,616,o),
(598,491,o),
(565,334,cs),
(531,177,o),
(444,50,o),
(289,50,cs)
);
}
);
width = 664;
},
{
anchors = (
{
name = bottom;
pos = (289,0);
},
{
name = center;
pos = (360,334);
},
{
name = ogonek;
pos = (565,10);
},
{
name = top;
pos = (429,657);
},
{
name = topleft;
pos = (107,657);
},
{
name = topright;
pos = (751,657);
}
);
layerId = m004;
shapes = (
{
closed = 1;
nodes = (
(532,-10,o),
(649,154,o),
(687,334,cs),
(725,514,o),
(678,676,o),
(433,676,cs),
(187,676,o),
(71,514,o),
(33,334,cs),
(-5,154,o),
(41,-10,o),
(287,-10,cs)
);
},
{
closed = 1;
nodes = (
(197,110,o),
(204,234,o),
(225,334,cs),
(246,434,o),
(292,556,o),
(407,556,cs),
(522,556,o),
(516,434,o),
(495,334,cs),
(474,234,o),
(427,110,o),
(312,110,cs)
);
}
);
width = 684;
}
);
unicode = 79;
userData = {
KernOnName = O;
};
}
{
glyphname = P;
kernLeft = KO_H;
kernRight = KO_P;
layers = (
{
layerId = m003;
shapes = (
{
closed = 1;
nodes = (
(89,0,l),
(149,285,l),
(149,285,o),
(196,282,o),
(271,282,cs),
(419,282,o),
(514,363,o),
(538,478,cs),
(563,595,o),
(488,677,o),
(356,677,cs),
(281,677,o),
(232,667,o),
(169,667,c),
(27,0,l)
);
},
{
pos = (27,0);
ref = _serif.I.BL;
},
{
pos = (89,0);
ref = _serif.I.BR;
},
{
pos = (169,667);
ref = _serif.I.TL;
},
{
closed = 1;
nodes = (
(210,342,o),
(163,345,o),
(163,345,c),
(220,613,l),
(220,613,o),
(268,616,o),
(343,616,cs),
(441,616,o),
(485,566,o),
(466,477,cs),
(448,390,o),
(383,342,o),
(285,342,cs)
);
}
);
width = 514;
},
{
layerId = m004;
shapes = (
{
closed = 1;
nodes = (
(209,0,l),
(263,255,l),
(263,255,o),
(279,252,o),
(304,252,cs),
(497,252,o),
(587,331,o),
(615,463,cs),
(643,595,o),
(568,677,o),
(396,677,cs),
(291,677,o),
(259,667,o),
(169,667,c),
(27,0,l)
);
},
{
pos = (27,0);
ref = _serif.I.BL;
},
{
pos = (209,0);
ref = _serif.I.BR;
},
{
pos = (169,667);
ref = _serif.I.TL;
},
{
closed = 1;
nodes = (
(306,372,o),
(290,375,o),
(290,375,c),
(327,553,l),
(327,553,o),
(345,556,o),
(370,556,cs),
(415,556,o),
(435,520,o),
(423,462,cs),
(411,407,o),
(376,372,o),
(331,372,cs)
);
}
);
width = 635;
}
);
metricLeft = "=H";
unicode = 80;
userData = {
KernOnName = P;
};
}
{
glyphname = Q;
kernLeft = KO_O;
kernRight = KO_Q;
layers = (
{
layerId = m003;
shapes = (
{
closed = 1;
nodes = (
(248,-2,l),
(232,-118,o),
(265,-208,o),
(399,-208,cs),
(455,-208,o),
(507,-188,o),
(550,-159,c),
(532,-117,l),
(498,-136,o),
(462,-153,o),
(410,-153,cs),
(323,-153,o),
(296,-83,o),
(307,-2,c)
);
},
{
closed = 1;
nodes = (
(25,156,o),
(72,-8,o),
(277,-8,c),
(482,-8,o),
(599,156,o),
(637,336,cs),
(676,516,o),
(628,678,o),
(423,678,cs),
(218,678,o),
(102,516,o),
(63,336,cs)
);
},
{
closed = 1;
nodes = (
(169,493,o),
(255,618,o),
(410,618,cs),
(565,618,o),
(599,493,o),
(565,336,cs),
(532,179,o),
(445,52,o),
(290,52,cs),
(135,52,o),
(102,179,o),
(135,336,cs)
);
}
);
width = 680;
},
{
layerId = m004;
shapes = (
{
closed = 1;
nodes = (
(198,-2,l),
(182,-118,o),
(215,-208,o),
(399,-208,cs),
(455,-208,o),
(507,-188,o),
(550,-159,c),
(545,-57,l),
(511,-76,o),
(475,-93,o),
(423,-93,cs),
(376,-93,o),
(336,-83,o),
(347,-2,c)
);
},
{
closed = 1;
nodes = (
(-5,154,o),
(41,-10,o),
(287,-10,cs),
(527,-10,o),
(649,154,o),
(687,334,cs),
(725,514,o),
(678,676,o),
(433,676,cs),
(192,676,o),
(71,514,o),
(33,334,cs)
);
},
{
closed = 1;
nodes = (
(246,434,o),
(292,556,o),
(419,556,cs),
(522,556,o),
(516,434,o),
(495,334,cs),
(474,234,o),
(428,110,o),
(301,110,c),
(198,110,o),
(204,234,o),
(225,334,cs)
);
}
);
width = 684;
}
);
metricLeft = "=O";
unicode = 81;
userData = {
KernOnName = Q;
};
}
{
glyphname = R;
kernLeft = KO_H;
kernRight = KO_R;
layers = (
{
anchors = (
{
name = bottom;
pos = (213,0);
},
{
name = top;
pos = (348,637);
}
);
layerId = m003;
shapes = (
{
closed = 1;
nodes = (
(89,0,l),
(149,285,l),
(149,285,o),
(196,282,o),
(271,282,cs),
(404,282,o),
(514,363,o),
(538,478,cs),
(563,595,o),
(488,676,o),
(356,676,cs),
(251,676,o),
(232,667,o),
(169,667,c),
(27,0,l)
);
},
{
closed = 1;
nodes = (
(437,0,l),
(336,309,l),
(272,302,l),
(364,0,l)
);
},
{
closed = 1;
nodes = (
(210,342,o),
(163,345,o),
(163,345,c),
(220,612,l),
(220,612,o),
(268,616,o),
(343,616,cs),
(441,616,o),
(485,566,o),
(466,477,cs),
(448,390,o),
(383,342,o),
(285,342,cs)
);
},
{
pos = (27,0);
ref = _serif.I.BL;
},
{
pos = (89,0);
ref = _serif.I.BR;
},
{
pos = (407,0);
ref = _serif.I.BR;
},
{
pos = (169,667);
ref = _serif.I.TL;
}
);
width = 535;
},
{
anchors = (
{
name = bottom;
pos = (269,0);
},
{
name = top;
pos = (409,657);
}
);
layerId = m004;
shapes = (
{
closed = 1;
nodes = (
(209,0,l),
(263,255,l),
(263,255,o),
(279,252,o),
(304,252,cs),
(477,252,o),
(587,331,o),
(615,463,c),
(643,595,o),
(568,677,o),
(396,677,cs),
(291,677,o),
(259,667,o),
(169,667,c),
(27,0,l)
);
},
{
closed = 1;
nodes = (
(532,0,l),
(431,309,l),
(249,302,l),
(341,0,l)
);
},
{
closed = 1;
nodes = (
(306,372,o),
(290,375,o),
(290,375,c),
(327,553,l),
(327,553,o),
(345,556,o),
(370,556,cs),
(415,556,o),
(435,520,o),
(423,462,cs),
(411,407,o),
(376,372,o),
(331,372,cs)
);
},
{
pos = (27,0);
ref = _serif.I.BL;
},
{
pos = (209,0);
ref = _serif.I.BR;
},
{
pos = (482,0);
ref = _serif.I.BR;
},
{
pos = (169,667);
ref = _serif.I.TL;
}
);
width = 610;
}
);
metricLeft = "=H";
unicode = 82;
}
{
glyphname = S;
kernLeft = KO_S;
kernRight = KO_S;
layers = (
{
anchors = (
{
name = bottom;
pos = (125,0);
},
{
name = top;
pos = (267,667);
}
);
layerId = m003;
shapes = (
{
closed = 1;
nodes = (
(422,300,o),
(363,357,o),
(206,385,cs),
(140,396,o),
(109,435,o),
(123,500,c),
(137,565,o),
(192,616,o),
(255,616,c),
(268,676,l),
(198,676,o),
(85,618,o),
(60,500,c),
(39,400,o),
(86,340,o),
(192,320,cs),
(276,305,o),
(344,274,o),
(327,194,cs),
(308,106,o),
(236,50,o),
(134,50,c),
(122,-10,l),
(282,-10,o),
(374,77,o),
(399,194,cs)
);
},
{
closed = 1;
nodes = (
(306,616,o),
(348,598,o),
(390,578,c),
(430,630,l),
(385,656,o),
(333,676,o),
(268,676,c),
(255,616,l)
);
},
{
closed = 1;
nodes = (
(83,50,o),
(41,68,o),
(0,88,c),
(-40,36,l),
(4,10,o),
(57,-10,o),
(122,-10,c),
(134,50,l)
);
},
{
pos = (-40,36);
ref = _serif.S.BL;
},
{
pos = (430,630);
ref = _serif.C.TR;
}
);
width = 416;
},
{
anchors = (
{
name = bottom;
pos = (165,0);
},
{
name = top;
pos = (307,667);
}
);
layerId = m004;
shapes = (
{
closed = 1;
nodes = (
(506,320,o),
(453,400,o),
(294,425,cs),
(229,435,o),
(227,469,o),
(233,500,cs),
(240,531,o),
(274,556,o),
(322,556,c),
(308,676,l),
(198,676,o),
(81,598,o),
(56,480,cs),
(35,380,o),
(79,307,o),
(183,280,cs),
(272,257,o),
(297,241,o),
(287,194,cs),
(275,137,o),
(235,120,o),
(189,120,c),
(162,-10,l),
(362,-10,o),
(458,97,o),
(483,214,cs)
);
},
{
closed = 1;
nodes = (
(371,556,o),
(400,545,o),
(457,518,c),
(510,630,l),
(464,651,o),
(400,676,o),
(308,676,c),
(322,556,l)
);
},
{
closed = 1;
nodes = (
(120,120,o),
(72,133,o),
(15,160,c),
(-40,38,l),
(5,17,o),
(70,-10,o),
(162,-10,c),
(189,120,l)
);
},
{
pos = (-40,38);
ref = _serif.S.BL;
},
{
pos = (510,630);
ref = _serif.C.TR;
}
);
width = 496;
}
);
metricRight = "=|";
unicode = 83;
}
{
glyphname = T;
kernLeft = KO_T;
kernRight = KO_T;
layers = (
{
anchors = (
{
name = bottom;
pos = (190,0);
},
{
name = center;
pos = (261,334);
},
{
name = top;
pos = (325,637);
}
);
layerId = m003;
shapes = (
{
closed = 1;
nodes = (
(349,607,l),
(536,607,l),
(549,667,l),
(114,667,l),
(101,607,l),
(286,607,l),
(157,0,l),
(220,0,l)
);
},
{
pos = (220,0);
ref = _serif.I.BR;
},
{
pos = (114,667);
ref = _serif.T.TL;
},
{
pos = (549,667);
ref = _serif.T.TR;
},
{
pos = (157,0);
ref = _serif.I.BL;
}
);
width = 485;
},
{
anchors = (
{
name = bottom;
pos = (218,0);
},
{
name = center;
pos = (289,334);
},
{
name = top;
pos = (358,657);
}
);
layerId = m004;
shapes = (
{
closed = 1;
nodes = (
(421,527,l),
(586,527,l),
(616,667,l),
(104,667,l),
(74,527,l),
(239,527,l),
(127,0,l),
(309,0,l)
);
},
{
pos = (309,0);
ref = _serif.I.BR;
},
{
pos = (104,667);
ref = _serif.T.TL;
},
{
pos = (616,667);
ref = _serif.T.TR;
},
{
pos = (127,0);
ref = _serif.I.BL;
}
);
width = 542;
}
);
unicode = 84;
userData = {
KernOnName = T;
};
}
{
glyphname = U;
kernLeft = KO_U;
kernRight = KO_U;
layers = (
{
anchors = (
{
name = bottom;
pos = (256,0);
},
{
name = ogonek;
pos = (327,0);
},
{
name = top;
pos = (391,637);
},
{
name = topright;
pos = (680,637);
}
);
layerId = m003;
shapes = (
{
closed = 1;
nodes = (
(491,336,l),
(448,131,o),
(386,52,o),
(267,52,c),
(148,52,o),
(120,131,o),
(163,336,c),
(100,336,l),
(47,87,o),
(90,-8,o),
(254,-8,c),
(418,-8,o),
(501,87,o),
(554,336,c)
);
},
{
closed = 1;
nodes = (
(491,336,l),
(554,336,l),
(625,667,l),
(562,667,l)
);
},
{
closed = 1;
nodes = (
(234,667,l),
(171,667,l),
(100,336,l),
(163,336,l)
);
},
{
pos = (171,667);
ref = _serif.I.TL;
},
{
pos = (562,667);
ref = _serif.I.TL;
},
{
pos = (625,667);
ref = _serif.I.TR;
},
{
pos = (234,667);
ref = _serif.I.TR;
}
);
width = 618;
},
{
anchors = (
{
name = bottom;
pos = (256,0);
},
{
name = ogonek;
pos = (346,0);
},
{
name = top;
pos = (396,657);
},
{
name = topright;
pos = (685,657);
}
);
layerId = m004;
shapes = (
{
closed = 1;
nodes = (
(411,336,l),
(380,191,o),
(359,112,o),
(280,112,c),
(201,112,o),
(212,191,o),
(243,336,c),
(60,336,l),
(7,87,o),
(50,-8,o),
(254,-8,c),
(458,-8,o),
(541,87,o),
(594,336,c)
);
},
{
closed = 1;
nodes = (
(411,336,l),
(594,336,l),
(665,667,l),
(482,667,l)
);
},
{
closed = 1;
nodes = (
(314,667,l),
(131,667,l),
(60,336,l),
(243,336,l)
);
},
{
pos = (131,667);
ref = _serif.I.TL;
},
{
pos = (482,667);
ref = _serif.I.TL;
},
{
pos = (665,667);
ref = _serif.I.TR;
},
{
pos = (314,667);
ref = _serif.I.TR;
}
);
width = 618;
}
);
metricRight = "=|";
unicode = 85;
userData = {
KernOnName = U;
};
}
{
glyphname = V;
kernLeft = KO_V;
kernRight = KO_V;
layers = (
{
layerId = m003;
shapes = (
{
closed = 1;
nodes = (
(176,667,l),
(109,667,l),
(183,0,l),
(259,0,l),
(617,667,l),
(549,667,l),
(236,69,l)
);
},
{
pos = (129,667);
ref = _serif.I.TL;
},
{
pos = (549,667);
ref = _serif.I.TL;
},
{
pos = (597,667);
ref = _serif.I.TR;
},
{
pos = (176,667);
ref = _serif.I.TR;
}
);
width = 548;
},
{
layerId = m004;
shapes = (
{
closed = 1;
nodes = (
(300,667,l),
(100,667,l),
(148,0,l),
(348,0,l),
(680,667,l),
(480,667,l),
(303,259,l)
);
},
{
pos = (130,667);
ref = _serif.I.TL;
},
{
pos = (480,667);
ref = _serif.I.TL;
},
{
pos = (650,667);
ref = _serif.I.TR;
},
{
pos = (300,667);
ref = _serif.I.TR;
}
);
width = 602;
}
);
metricRight = "=|";
unicode = 86;
userData = {
KernOnName = V;
};
}
{
glyphname = W;
kernLeft = KO_W;
kernRight = KO_W;
layers = (
{
anchors = (
{
name = bottom;
pos = (361,0);
},
{
name = top;
pos = (496,637);
}
);
layerId = m003;
shapes = (
{
closed = 1;
nodes = (
(176,667,l),
(109,667,l),
(143,0,l),
(219,0,l),
(537,667,l),
(469,667,l),
(196,69,l)
);
},
{
closed = 1;
nodes = (
(536,667,l),
(469,667,l),
(503,0,l),
(579,0,l),
(897,667,l),
(829,667,l),
(556,69,l)
);
},
{
pos = (129,667);
ref = _serif.I.TL;
},
{
pos = (829,667);
ref = _serif.I.TL;
},
{
pos = (877,667);
ref = _serif.I.TR;
},
{
pos = (176,667);
ref = _serif.I.TR;
}
);
width = 828;
},
{
anchors = (
{
name = bottom;
pos = (416,0);
},
{
name = top;
pos = (556,657);
}
);
layerId = m004;
shapes = (
{
closed = 1;
nodes = (
(300,667,l),
(100,667,l),
(118,0,l),
(318,0,l),
(630,667,l),
(460,667,l),
(283,259,l)
);
},
{
closed = 1;
nodes = (
(630,667,l),
(460,667,l),
(478,0,l),
(678,0,l),
(980,667,l),
(780,667,l),
(623,259,l)
);
},
{
pos = (130,667);
ref = _serif.I.TL;
},
{
pos = (790,667);
ref = _serif.I.TL;
},
{
pos = (960,667);
ref = _serif.I.TR;
},
{
pos = (300,667);
ref = _serif.I.TR;
}
);
width = 912;
}
);
metricLeft = "=V";
metricRight = "=V";
unicode = 87;
userData = {
KernOnName = W;
};
}
{
glyphname = X;
kernLeft = KO_X;
kernRight = KO_K;
layers = (
{
layerId = m003;
shapes = (
{
closed = 1;
nodes = (
(389,0,l),
(463,0,l),
(342,350,l),
(596,667,l),
(524,667,l),
(271,350,l)
);
},
{
closed = 1;
nodes = (
(213,667,l),
(141,667,l),
(261,350,l),
(-10,0,l),
(64,0,l),
(332,350,l)
);
},
{
pos = (171,667);
ref = _serif.I.TL;
},
{
pos = (524,667);
ref = _serif.I.TL;
},
{
pos = (389,0);
ref = _serif.I.BL;
},
{
pos = (20,0);
ref = _serif.I.BL;
},
{
pos = (64,0);
ref = _serif.I.BR;
},
{
pos = (433,0);
ref = _serif.I.BR;
},
{
pos = (213,667);
ref = _serif.I.TR;
},
{
pos = (566,667);
ref = _serif.I.TR;
}
);
width = 559;
},
{
layerId = m004;
shapes = (
{
closed = 1;
nodes = (
(350,0,l),
(544,0,l),
(442,350,l),
(677,667,l),
(485,667,l),
(281,350,l)
);
},
{
closed = 1;
nodes = (
(314,667,l),
(122,667,l),
(221,350,l),
(-29,0,l),
(165,0,l),
(382,350,l)
);
},
{
pos = (172,667);
ref = _serif.I.TL;
},
{
pos = (485,667);
ref = _serif.I.TL;
},
{
pos = (340,0);
ref = _serif.I.BL;
},
{
pos = (21,0);
ref = _serif.I.BL;
},
{
pos = (175,0);
ref = _serif.I.BR;
},
{
pos = (504,0);
ref = _serif.I.BR;
},
{
pos = (324,667);
ref = _serif.I.TR;
},
{
pos = (637,667);
ref = _serif.I.TR;
}
);
width = 630;
}
);
metricLeft = "=|";
metricRight = "=K";
unicode = 88;
userData = {
KernOnName = X;
};
}
{
glyphname = Y;
kernLeft = KO_Y;
kernRight = KO_Y;
layers = (
{
anchors = (
{
name = bottom;
pos = (201,0);
},
{
name = top;
pos = (336,637);
},
{
name = topleft;
pos = (102,637);
}
);
layerId = m003;
shapes = (
{
closed = 1;
nodes = (
(161,667,l),
(89,667,l),
(234,300,l),
(297,300,l),
(597,667,l),
(524,667,l),
(280,370,l)
);
},
{
closed = 1;
nodes = (
(170,0,l),
(233,0,l),
(303,330,l),
(240,330,l)
);
},
{
pos = (119,667);
ref = _serif.I.TL;
},
{
pos = (524,667);
ref = _serif.I.TL;
},
{
pos = (161,667);
ref = _serif.I.TR;
},
{
pos = (567,667);
ref = _serif.I.TR;
},
{
pos = (170,0);
ref = _serif.I.BL;
},
{
pos = (233,0);
ref = _serif.I.BR;
}
);
width = 508;
},
{
anchors = (
{
name = bottom;
pos = (241,0);
},
{
name = top;
pos = (381,657);
},
{
name = topleft;
pos = (107,657);
}
);
layerId = m004;
shapes = (
{
closed = 1;
nodes = (
(286,667,l),
(89,667,l),
(203,251,l),
(386,251,l),
(677,667,l),
(479,667,l),
(332,430,l)
);
},
{
closed = 1;
nodes = (
(150,0,l),
(333,0,l),
(403,330,l),
(220,330,l)
);
},
{
pos = (149,667);
ref = _serif.I.TL;
},
{
pos = (479,667);
ref = _serif.I.TL;
},
{
pos = (296,667);
ref = _serif.I.TR;
},
{
pos = (627,667);
ref = _serif.I.TR;
},
{
pos = (150,0);
ref = _serif.I.BL;
},
{
pos = (333,0);
ref = _serif.I.BR;
}
);
width = 598;
}
);
metricRight = "=|";
unicode = 89;
userData = {
KernOnName = Y;
};
}
{
glyphname = Z;
kernLeft = KO_Z;
kernRight = KO_Z;
layers = (
{
anchors = (
{
name = bottom;
pos = (207,0);
},
{
name = center;
pos = (278,334);
},
{
name = top;
pos = (342,637);
}
);
layerId = m003;
shapes = (
{
closed = 1;
nodes = (
(-10,60,l),
(-23,0,l),
(422,0,l),
(425,60,l),
(65,60,l),
(551,607,l),
(564,667,l),
(144,667,l),
(141,607,l),
(476,607,l)
);
},
{
pos = (422,0);
ref = _serif.Z.BR;
},
{
pos = (144,667);
ref = _serif.T.TL;
}
);
width = 520;
},
{
anchors = (
{
name = bottom;
pos = (227,0);
},
{
name = center;
pos = (298,334);
},
{
name = top;
pos = (367,657);
}
);
layerId = m004;
shapes = (
{
closed = 1;
nodes = (
(-23,120,l),
(-48,0,l),
(467,0,l),
(482,120,l),
(167,120,l),
(593,547,l),
(619,667,l),
(119,667,l),
(103,547,l),
(403,547,l)
);
},
{
pos = (467,0);
ref = _serif.Z.BR;
},
{
pos = (119,667);
ref = _serif.T.TL;
}
);
width = 560;
}
);
metricRight = "=|";
unicode = 90;
}
{
glyphname = bracketleft;
kernRight = KO_bracketleft;
layers = (
{
layerId = m003;
shapes = (
{
closed = 1;
nodes = (
(109,-55,l),
(121,0,l),
(17,0,l),
(159,667,l),
(263,667,l),
(275,722,l),
(111,722,l),
(-55,-55,l)
);
}
);
width = 220;
},
{
layerId = m004;
shapes = (
{
closed = 1;
nodes = (
(182,-85,l),
(206,30,l),
(102,30,l),
(232,637,l),
(336,637,l),
(360,752,l),
(116,752,l),
(-62,-85,l)
);
}
);
width = 279;
}
);
metricLeft = "=H";
note = bracketleft;
unicode = 91;
userData = {
KernOnSpecialSpacing = {
L = NoKerning;
R = parenthesis;
};
};
}
{
glyphname = backslash;
kernLeft = KO_backslash;
kernRight = KO_backslash;
layers = (
{
layerId = m003;
shapes = (
{
closed = 1;
nodes = (
(139,-125,l),
(194,-125,l),
(196,700,l),
(141,700,l)
);
}
);
width = 319;
},
{
layerId = m004;
shapes = (
{
closed = 1;
nodes = (
(139,-125,l),
(254,-125,l),
(256,700,l),
(141,700,l)
);
}
);
width = 379;
}
);
note = backslash;
unicode = 92;
userData = {
KernOnSpecialSpacing = {
L = "spaced-off";
R = "spaced-off";
};
};
}
{
glyphname = bracketright;
kernLeft = KO_bracketright;
layers = (
{
layerId = m004;
shapes = (
{
closed = 1;
nodes = (
(198,-85,l),
(376,752,l),
(132,752,l),
(108,637,l),
(212,637,l),
(82,30,l),
(-22,30,l),
(-46,-85,l)
);
}
);
width = 279;
},
{
layerId = m003;
shapes = (
{
closed = 1;
nodes = (
(144,-55,l),
(310,722,l),
(146,722,l),
(134,667,l),
(238,667,l),
(96,0,l),
(-8,0,l),
(-20,-55,l)
);
}
);
width = 220;
}
);
metricRight = "=H";
note = bracketright;
unicode = 93;
userData = {
KernOnSpecialSpacing = {
L = parenthesis;
R = NoKerning;
};
};
}
{
glyphname = asciicircum;
kernLeft = KO_asciicircum;
kernRight = KO_asciicircum;
layers = (
{
layerId = m003;
shapes = (
{
closed = 1;
nodes = (
(335,417,l),
(395,417,l),
(329,667,l),
(259,667,l)
);
},
{
closed = 1;
nodes = (
(259,667,l),
(85,417,l),
(145,417,l),
(329,667,l)
);
}
);
width = 410;
},
{
layerId = m004;
shapes = (
{
closed = 1;
nodes = (
(280,417,l),
(420,417,l),
(374,667,l),
(234,667,l)
);
},
{
closed = 1;
nodes = (
(214,667,l),
(60,417,l),
(200,417,l),
(354,667,l)
);
}
);
width = 410;
}
);
metricRight = "=|";
unicode = 94;
userData = {
KernOnSpecialSpacing = {
L = math;
R = math;
};
};
}
{
glyphname = underscore;
kernLeft = KO_underscore;
kernRight = KO_underscore;
layers = (
{
layerId = m004;
shapes = (
{
closed = 1;
nodes = (
(-70,-122,l),
(398,-122,l),
(427,17,l),
(-41,17,l)
);
}
);
width = 486;
},
{
layerId = m003;
shapes = (
{
closed = 1;
nodes = (
(-60,-77,l),
(328,-77,l),
(339,-28,l),
(-49,-28,l)
);
}
);
width = 408;
}
);
metricLeft = "=H";
metricRight = "=|";
note = underscore;
unicode = 95;
userData = {
KernOnSpecialSpacing = {
L = underscore;
R = underscore;
};
};
}
{
glyphname = a;
kernLeft = KO_a;
kernRight = KO_a;
layers = (
{
anchors = (
{
name = bottom;
pos = (197,0);
},
{
name = ogonek;
pos = (387,0);
},
{
name = top;
pos = (303,500);
}
);
attr = {
axisRules = (
{
}
);
};
layerId = m003;
name = "Light Italic";
shapes = (
{
closed = 1;
nodes = (
(327,0,l),
(387,0,l),
(478,430,l),
(420,440,l)
);
},
{
closed = 1;
nodes = (
(478,430,l),
(493,500,l),
(463,500,l),
(420,440,l)
);
},
{
closed = 1;
nodes = (
(387,150,o),
(299,47,o),
(207,47,c),
(195,-8,l),
(336,-8,o),
(417,140,o),
(417,140,c),
(387,150,l)
);
},
{
closed = 1;
nodes = (
(463,360,l),
(463,360,o),
(416,508,o),
(305,508,c),
(293,452,l),
(385,452,o),
(429,350,o),
(429,350,c)
);
},
{
closed = 1;
nodes = (
(305,508,l),
(159,508,o),
(72,379,o),
(45,250,cs),
(18,121,o),
(49,-8,o),
(195,-8,c),
(207,47,l),
(96,47,o),
(85,145,o),
(107,250,cs),
(129,354,o),
(182,452,o),
(293,452,c)
);
},
{
pos = (387,0);
ref = _serif.I.BR;
}
);
width = 515;
},
{
anchors = (
{
name = bottom;
pos = (235,0);
},
{
name = ogonek;
pos = (437,0);
},
{
name = top;
pos = (341,500);
}
);
attr = {
axisRules = (
{
}
);
};
layerId = m004;
name = "Black Italic";
shapes = (
{
closed = 1;
nodes = (
(257,0,l),
(437,0,l),
(528,430,l),
(350,440,l)
);
},
{
closed = 1;
nodes = (
(528,430,l),
(543,500,l),
(393,500,l),
(350,440,l)
);
},
{
closed = 1;
nodes = (
(403,170,o),
(265,107,o),
(230,107,c),
(145,-8,l),
(285,-8,o),
(403,170,o),
(403,170,c),
(403,170,l)
);
},
{
closed = 1;
nodes = (
(437,330,l),
(437,330,o),
(366,508,o),
(255,508,c),
(290,392,l),
(325,392,o),
(437,330,o),
(437,330,c)
);
},
{
closed = 1;
nodes = (
(255,508,l),
(129,508,o),
(42,379,o),
(15,250,cs),
(-12,121,o),
(19,-8,o),
(145,-8,c),
(230,107,l),
(169,107,o),
(187,205,o),
(197,250,cs),
(206,294,o),
(229,392,o),
(290,392,c)
);
},
{
pos = (437,0);
ref = _serif.I.BR;
}
);
width = 575;
}
);
unicode = 97;
userData = {
KernOnName = a;
};
}
{
glyphname = c;
kernLeft = KO_o;
kernRight = KO_c;
layers = (
{
anchors = (
{
name = bottom;
pos = (181,0);
},
{
name = top;
pos = (287,500);
}
);
layerId = m003;
shapes = (
{
closed = 1;
nodes = (
(192,47,l),
(81,47,o),
(70,145,o),
(92,250,cs),
(114,354,o),
(167,453,o),
(278,453,c),
(290,508,l),
(144,508,o),
(57,379,o),
(30,250,cs),
(3,121,o),
(34,-8,o),
(180,-8,c)
);
},
{
closed = 1;
nodes = (
(253,-8,o),
(322,32,o),
(359,55,c),
(333,99,l),
(303,79,o),
(254,47,o),
(191,47,c),
(179,-8,l)
);
},
{
closed = 1;
nodes = (
(441,444,l),
(415,467,o),
(363,508,o),
(289,508,c),
(277,453,l),
(339,453,o),
(375,422,o),
(397,402,c)
);
},
{
pos = (359,55);
ref = _serif.s.BR;
},
{
pos = (441,444);
ref = _serif.s.TR;
}
);
width = 445;
},
{
anchors = (
{
name = bottom;
pos = (209,0);
},
{
name = top;
pos = (315,500);
}
);
layerId = m004;
shapes = (
{
closed = 1;
nodes = (
(230,107,l),
(167,107,o),
(187,205,o),
(197,250,c),
(206,294,o),
(227,392,o),
(290,392,c),
(315,508,l),
(129,508,o),
(42,379,o),
(15,250,c),
(-12,121,o),
(19,-8,o),
(205,-8,c)
);
},
{
closed = 1;
nodes = (
(318,-8,o),
(378,32,o),
(414,55,c),
(377,140,l),
(335,120,o),
(280,107,o),
(229,107,c),
(204,-8,l)
);
},
{
closed = 1;
nodes = (
(496,445,l),
(470,468,o),
(429,508,o),
(315,508,c),
(290,392,l),
(340,392,o),
(391,380,o),
(423,360,c)
);
},
{
pos = (414,55);
ref = _serif.s.BR;
},
{
pos = (496,445);
ref = _serif.s.TR;
}
);
width = 463;
}
);
metricLeft = "=o";
unicode = 99;
userData = {
KernOnName = c;
};
}
{
glyphname = d;
kernLeft = KO_o;
kernRight = KO_i;
layers = (
{
anchors = (
{
name = bottom;
pos = (190,0);
},
{
name = center;
pos = (426,577);
},
{
name = top;
pos = (339,700);
},
{
name = topright;
pos = (576,700);
}
);
layerId = m003;
shapes = (
{
closed = 1;
nodes = (
(386,70,l),
(520,700,l),
(460,700,l),
(324,60,l)
);
},
{
closed = 1;
nodes = (
(311,0,l),
(371,0,l),
(386,70,l),
(324,60,l)
);
},
{
closed = 1;
nodes = (
(371,150,o),
(283,47,o),
(191,47,c),
(180,-8,l),
(291,-8,o),
(401,140,o),
(401,140,c),
(371,150,l)
);
},
{
closed = 1;
nodes = (
(448,360,l),
(448,360,o),
(400,508,o),
(289,508,c),
(278,452,l),
(370,452,o),
(414,350,o),
(414,350,c)
);
},
{
closed = 1;
nodes = (
(289,508,l),
(143,508,o),
(57,379,o),
(30,250,cs),
(2,121,o),
(34,-8,o),
(180,-8,c),
(191,47,l),
(80,47,o),
(69,145,o),
(92,250,cs),
(114,354,o),
(167,452,o),
(278,452,c)
);
},
{
pos = (460,700);
ref = _serif.I.TL;
},
{
pos = (371,0);
ref = _serif.I.BR;
}
);
width = 499;
},
{
anchors = (
{
name = bottom;
pos = (230,0);
},
{
name = center;
pos = (451,580);
},
{
name = top;
pos = (379,700);
},
{
name = topright;
pos = (621,700);
}
);
layerId = m004;
shapes = (
{
closed = 1;
nodes = (
(451,70,l),
(585,700,l),
(405,700,l),
(269,60,l)
);
},
{
closed = 1;
nodes = (
(286,0,l),
(436,0,l),
(451,70,l),
(269,60,l)
);
},
{
closed = 1;
nodes = (
(403,170,o),
(264,107,o),
(229,107,c),
(145,-8,l),
(256,-8,o),
(403,170,o),
(403,170,c),
(403,170,l)
);
},
{
closed = 1;
nodes = (
(437,330,l),
(437,330,o),
(365,508,o),
(254,508,c),
(290,392,l),
(325,392,o),
(437,330,o),
(437,330,c)
);
},
{
closed = 1;
nodes = (
(254,508,l),
(128,508,o),
(42,379,o),
(15,250,cs),
(-13,121,o),
(19,-8,o),
(145,-8,c),
(229,107,l),
(168,107,o),
(187,205,o),
(197,250,cs),
(206,294,o),
(229,392,o),
(290,392,c)
);
},
{
pos = (405,700);
ref = _serif.I.TL;
},
{
pos = (436,0);
ref = _serif.I.BR;
}
);
width = 564;
}
);
metricLeft = "=o";
metricRight = "=h";
unicode = 100;
}
{
glyphname = e;
kernLeft = KO_e;
kernRight = KO_e;
layers = (
{
anchors = (
{
name = bottom;
pos = (197,0);
},
{
name = ogonek;
pos = (377,10);
},
{
name = top;
pos = (303,500);
}
);
associatedMasterId = m003;
attr = {
axisRules = (
{
}
);
};
layerId = "FACBB8CB-018B-4129-AED1-910DEBB6C444";
name = "22. Okt. 22, 18:28";
shapes = (
{
closed = 1;
nodes = (
(159,508,o),
(72,379,o),
(45,250,c),
(100,225,l),
(127,354,o),
(182,453,o),
(293,453,c),
(305,508,l)
);
},
{
closed = 1;
nodes = (
(353,87,o),
(279,48,o),
(207,48,c),
(195,-8,l),
(286,-8,o),
(371,45,o),
(371,45,c),
(353,87,l)
);
},
{
closed = 1;
nodes = (
(45,250,ls),
(18,121,o),
(49,-8,o),
(195,-8,c),
(207,48,l),
(97,48,o),
(83,145,o),
(100,225,c),
(45,250,l)
);
},
{
closed = 1;
nodes = (
(84,225,l),
(425,225,l),
(425,275,l),
(94,275,l)
);
},
{
closed = 1;
nodes = (
(293,453,l),
(414,453,o),
(390,354,o),
(363,225,c),
(425,225,l),
(457,379,o),
(461,508,o),
(305,508,c)
);
}
);
width = 475;
},
{
anchors = (
{
name = bottom;
pos = (152,0);
},
{
name = ogonek;
pos = (227,0);
},
{
name = top;
pos = (287,500);
}
);
attr = {
axisRules = (
{
}
);
};
layerId = m003;
name = "Light Italic";
shapes = (
{
closed = 1;
nodes = (
(313,77,o),
(254,48,o),
(162,48,c),
(150,-8,l),
(261,-8,o),
(351,45,o),
(351,45,c),
(333,87,l)
);
},
{
closed = 1;
nodes = (
(-9,66,o),
(38,-8,o),
(150,-8,c),
(162,48,l),
(82,48,o),
(57,93,o),
(90,250,c),
(30,250,l)
);
},
{
closed = 1;
nodes = (
(143,508,o),
(57,379,o),
(30,250,c),
(90,250,l),
(112,354,o),
(166,453,o),
(277,453,cs),
(347,453,o),
(379,408,o),
(366,347,cs),
(346,253,o),
(208,246,o),
(90,251,c),
(79,196,l),
(156,195,l),
(267,195,o),
(399,223,o),
(426,347,cs),
(445,439,o),
(398,508,o),
(289,508,cs)
);
}
);
width = 450;
},
{
anchors = (
{
name = bottom;
pos = (177,0);
},
{
name = ogonek;
pos = (386,10);
},
{
name = top;
pos = (313,500);
}
);
associatedMasterId = m004;
attr = {
axisRules = (
{
}
);
};
layerId = "AB603E59-2EC7-42A2-9683-1D1E161F0E37";
name = "22. Okt. 22, 18:28";
shapes = (
{
closed = 1;
nodes = (
(129,508,o),
(42,379,o),
(15,250,c),
(183,195,l),
(209,314,o),
(230,393,o),
(280,393,c),
(315,508,l)
);
},
{
closed = 1;
nodes = (
(406,147,o),
(312,108,o),
(230,108,c),
(175,-8,l),
(326,-8,o),
(426,45,o),
(426,45,cs),
(406,147,l)
);
},
{
closed = 1;
nodes = (
(15,250,ls),
(-12,121,o),
(23,-8,o),
(175,-8,c),
(230,108,l),
(170,108,o),
(173,145,o),
(183,195,c),
(15,250,l)
);
},
{
closed = 1;
nodes = (
(87,195,l),
(458,195,l),
(472,305,l),
(111,305,l)
);
},
{
closed = 1;
nodes = (
(280,393,l),
(330,393,o),
(312,314,o),
(286,195,c),
(458,195,l),
(495,369,o),
(501,508,o),
(315,508,c)
);
}
);
width = 485;
},
{
anchors = (
{
name = bottom;
pos = (167,0);
},
{
name = ogonek;
pos = (271,0);
},
{
name = top;
pos = (303,500);
}
);
attr = {
axisRules = (
{
}
);
};
layerId = m004;
name = "Black Italic";
shapes = (
{
closed = 1;
nodes = (
(406,147,o),
(312,108,o),
(230,108,c),
(165,-8,l),
(326,-8,o),
(426,45,o),
(426,45,cs),
(406,147,l)
);
},
{
closed = 1;
nodes = (
(-24,66,o),
(53,-8,o),
(165,-8,c),
(230,108,l),
(170,108,o),
(160,133,o),
(185,250,c),
(15,250,l)
);
},
{
closed = 1;
nodes = (
(128,508,o),
(42,379,o),
(15,250,c),
(185,250,l),
(206,347,o),
(239,393,o),
(279,393,cs),
(319,393,o),
(325,367,o),
(321,347,cs),
(316,327,o),
(300,301,o),
(197,306,c),
(94,196,l),
(171,195,l),
(322,195,o),
(454,223,o),
(481,347,cs),
(500,439,o),
(453,508,o),
(304,508,cs)
);
}
);
width = 485;
}
);
metricLeft = "=o";
unicode = 101;
userData = {
KernOnName = e;
};
}
{
glyphname = f;
kernLeft = KO_f;
kernRight = KO_f;
layers = (
{
layerId = m003;
shapes = (
{
closed = 1;
nodes = (
(117,0,l),
(230,533,l),
(250,625,o),
(274,653,o),
(329,653,cs),
(341,653,o),
(351,652,o),
(365,650,c),
(435,700,l),
(435,700,o),
(377,705,o),
(340,705,cs),
(240,705,o),
(196,654,o),
(163,500,c),
(57,0,l)
);
},
{
closed = 1;
nodes = (
(334,445,l),
(346,500,l),
(88,500,l),
(77,445,l)
);
},
{
pos = (57,0);
ref = _serif.I.BL;
},
{
pos = (117,0);
ref = _serif.I.BR;
},
{
pos = (435,700);
ref = _serif.r.TR;
}
);
width = 317;
},
{
layerId = m004;
shapes = (
{
closed = 1;
nodes = (
(205,0,l),
(318,533,l),
(325,565,o),
(332,593,o),
(364,593,cs),
(376,593,o),
(386,592,o),
(400,590,c),
(533,700,l),
(533,700,o),
(425,707,o),
(348,707,cs),
(208,707,o),
(164,654,o),
(131,500,c),
(25,0,l)
);
},
{
closed = 1;
nodes = (
(364,380,l),
(389,500,l),
(53,500,l),
(28,380,l)
);
},
{
pos = (25,0);
ref = _serif.I.BL;
},
{
pos = (205,0);
ref = _serif.I.BR;
},
{
pos = (533,700);
ref = _serif.r.TR;
}
);
width = 350;
}
);
unicode = 102;
userData = {
KernOnName = f;
};
}
{
glyphname = g;
kernLeft = KO_a;
kernRight = KO_g;
layers = (
{
anchors = (
{
name = bottom;
pos = (170,-200);
},
{
name = top;
pos = (303,500);
}
);
attr = {
axisRules = (
{
}
);
};
layerId = m003;
shapes = (
{
closed = 1;
nodes = (
(340,60,l),
(402,70,l),
(479,430,l),
(421,440,l)
);
},
{
closed = 1;
nodes = (
(340,60,l),
(302,-117,o),
(260,-153,o),
(180,-153,c),
(168,-208,l),
(280,-208,o),
(359,-134,o),
(387,-2,cs),
(402,70,l)
);
},
{
closed = 1;
nodes = (
(479,430,l),
(493,500,l),
(463,500,l),
(421,440,l)
);
},
{
closed = 1;
nodes = (
(387,150,o),
(299,47,o),
(207,47,c),
(195,-8,l),
(306,-8,o),
(417,140,o),
(417,140,c),
(387,150,l)
);
},
{
closed = 1;
nodes = (
(464,360,l),
(464,360,o),
(416,508,o),
(305,508,c),
(293,452,l),
(385,452,o),
(430,350,o),
(430,350,c)
);
},
{
closed = 1;
nodes = (
(305,508,l),
(159,508,o),
(73,379,o),
(45,250,cs),
(18,121,o),
(49,-8,o),
(195,-8,c),
(207,47,l),
(96,47,o),
(85,145,o),
(107,250,cs),
(129,354,o),
(182,452,o),
(293,452,c)
);
},
{
closed = 1;
nodes = (
(0,-155,l),
(0,-155,o),
(58,-208,o),
(169,-208,c),
(181,-153,l),
(89,-153,o),
(50,-121,o),
(35,-111,c)
);
},
{
pos = (0,-155);
ref = _serif.s.BL;
}
);
width = 515;
},
{
anchors = (
{
name = bottom;
pos = (180,-200);
},
{
name = top;
pos = (316,500);
}
);
attr = {
axisRules = (
{
}
);
};
layerId = m004;
shapes = (
{
closed = 1;
nodes = (
(263,30,l),
(452,70,l),
(529,430,l),
(351,440,l)
);
},
{
closed = 1;
nodes = (
(263,30,l),
(244,-63,o),
(237,-93,o),
(172,-93,c),
(178,-208,l),
(290,-208,o),
(409,-134,o),
(437,-2,cs),
(452,70,l)
);
},
{
closed = 1;
nodes = (
(529,430,l),
(543,500,l),
(393,500,l),
(351,440,l)
);
},
{
closed = 1;
nodes = (
(403,170,o),
(265,107,o),
(230,107,c),
(145,-8,l),
(256,-8,o),
(403,170,o),
(403,170,c),
(403,170,l)
);
},
{
closed = 1;
nodes = (
(437,330,l),
(437,330,o),
(366,508,o),
(255,508,c),
(290,392,l),
(325,392,o),
(437,330,o),
(437,330,c)
);
},
{
closed = 1;
nodes = (
(255,508,l),
(129,508,o),
(43,379,o),
(15,250,cs),
(-12,121,o),
(19,-8,o),
(145,-8,c),
(230,107,l),
(169,107,o),
(188,205,o),
(197,250,cs),
(207,294,o),
(229,392,o),
(290,392,c)
);
},
{
closed = 1;
nodes = (
(-1,-155,l),
(-1,-155,o),
(68,-208,o),
(179,-208,c),
(173,-93,l),
(111,-93,o),
(70,-63,o),
(54,-53,c)
);
},
{
pos = (-1,-155);
ref = _serif.s.BL;
}
);
width = 565;
}
);
unicode = 103;
userData = {
KernOnName = g;
};
}
{
glyphname = h;
kernLeft = KO_l;
kernRight = KO_n;
layers = (
{
anchors = (
{
name = bottom;
pos = (205,0);
},
{
name = center;
pos = (279,350);
},
{
name = top;
pos = (347,670);
}
);
layerId = m003;
shapes = (
{
closed = 1;
nodes = (
(440,250,l),
(451,302,ls),
(479,434,o),
(432,508,o),
(320,508,c),
(308,453,l),
(388,453,o),
(413,407,o),
(380,250,c)
);
},
{
closed = 1;
nodes = (
(231,700,l),
(171,700,l),
(22,0,l),
(81,0,l)
);
},
{
closed = 1;
nodes = (
(387,0,l),
(440,250,l),
(380,250,l),
(327,0,l)
);
},
{
closed = 1;
nodes = (
(128,350,o),
(216,453,o),
(308,453,c),
(320,508,l),
(209,508,o),
(98,360,o),
(98,360,c),
(128,350,l)
);
},
{
pos = (171,700);
ref = _serif.I.TL;
},
{
pos = (387,0);
ref = _serif.I.BR;
},
{
pos = (81,0);
ref = _serif.I.BR;
},
{
pos = (22,0);
ref = _serif.I.BL;
}
);
width = 515;
},
{
anchors = (
{
name = bottom;
pos = (246,0);
},
{
name = center;
pos = (320,350);
},
{
name = top;
pos = (392,690);
}
);
layerId = m004;
shapes = (
{
closed = 1;
nodes = (
(521,250,l),
(532,302,ls),
(560,434,o),
(513,508,o),
(421,508,c),
(332,373,l),
(367,373,o),
(357,327,o),
(341,250,c)
);
},
{
closed = 1;
nodes = (
(352,700,l),
(172,700,l),
(23,0,l),
(202,0,l)
);
},
{
closed = 1;
nodes = (
(468,0,l),
(521,250,l),
(341,250,l),
(288,0,l)
);
},
{
closed = 1;
nodes = (
(163,330,o),
(297,373,o),
(332,373,c),
(421,508,l),
(310,508,o),
(163,330,o),
(163,330,c),
(163,330,l)
);
},
{
pos = (172,700);
ref = _serif.I.TL;
},
{
pos = (468,0);
ref = _serif.I.BR;
},
{
pos = (202,0);
ref = _serif.I.BR;
},
{
pos = (23,0);
ref = _serif.I.BL;
}
);
width = 596;
}
);
metricRight = "=n";
unicode = 104;
userData = {
KernOnName = h;
};
}
{
glyphname = i;
kernLeft = KO_i;
kernRight = KO_i;
layers = (
{
layerId = m003;
shapes = (
{
closed = 1;
nodes = (
(93,0,l),
(199,500,l),
(139,500,l),
(33,0,l)
);
},
{
closed = 1;
nodes = (
(212,585,o),
(236,605,o),
(242,630,cs),
(247,655,o),
(231,675,o),
(206,675,cs),
(181,675,o),
(157,655,o),
(152,630,cs),
(146,605,o),
(162,585,o),
(187,585,cs)
);
},
{
pos = (139,500);
ref = _serif.Spur;
},
{
pos = (33,0);
ref = _serif.I.BL;
},
{
pos = (93,0);
ref = _serif.I.BR;
}
);
width = 221;
},
{
layerId = m004;
shapes = (
{
closed = 1;
nodes = (
(212,0,l),
(319,500,l),
(139,500,l),
(32,0,l)
);
},
{
closed = 1;
nodes = (
(290,530,o),
(344,574,o),
(356,630,cs),
(368,685,o),
(333,730,o),
(278,730,cs),
(222,730,o),
(168,685,o),
(156,630,cs),
(144,574,o),
(179,530,o),
(235,530,cs)
);
},
{
pos = (139,500);
ref = _serif.Spur;
},
{
pos = (32,0);
ref = _serif.I.BL;
},
{
pos = (212,0);
ref = _serif.I.BR;
}
);
width = 340;
}
);
metricLeft = "=n";
unicode = 105;
userData = {
KernOnName = i;
};
}
{
glyphname = j;
kernLeft = KO_j;
kernRight = KO_j;
layers = (
{
layerId = m003;
shapes = (
{
closed = 1;
nodes = (
(204,585,o),
(228,605,o),
(234,630,cs),
(239,655,o),
(223,675,o),
(198,675,cs),
(173,675,o),
(149,655,o),
(144,630,cs),
(138,605,o),
(154,585,o),
(179,585,cs)
);
},
{
closed = 1;
nodes = (
(131,500,l),
(18,-33,l),
(-2,-125,o),
(-26,-153,o),
(-81,-153,cs),
(-93,-153,o),
(-102,-152,o),
(-117,-150,c),
(-138,-200,l),
(-120,-204,o),
(-109,-205,o),
(-92,-205,cs),
(8,-205,o),
(52,-154,o),
(85,0,c),
(191,500,l)
);
},
{
pos = (131,500);
ref = _serif.Spur;
}
);
width = 188;
},
{
layerId = m004;
shapes = (
{
closed = 1;
nodes = (
(290,530,o),
(344,574,o),
(356,630,cs),
(367,685,o),
(332,730,o),
(277,730,cs),
(221,730,o),
(167,685,o),
(156,630,cs),
(144,574,o),
(179,530,o),
(235,530,cs)
);
},
{
closed = 1;
nodes = (
(138,500,l),
(25,-33,l),
(18,-65,o),
(11,-93,o),
(-21,-93,cs),
(-33,-93,o),
(-43,-92,o),
(-57,-90,c),
(-91,-200,l),
(-73,-204,o),
(-42,-207,o),
(-5,-207,cs),
(135,-207,o),
(179,-154,o),
(212,0,c),
(318,500,l)
);
},
{
pos = (138,500);
ref = _serif.Spur;
}
);
width = 310;
}
);
unicode = 106;
}
{
glyphname = k;
kernLeft = KO_l;
kernRight = KO_k;
layers = (
{
anchors = (
{
name = bottom;
pos = (187,0);
},
{
name = top;
pos = (336,700);
}
);
layerId = m003;
shapes = (
{
closed = 1;
nodes = (
(503,500,l),
(423,500,l),
(135,250,l),
(118,170,l)
);
},
{
closed = 1;
nodes = (
(231,700,l),
(171,700,l),
(22,0,l),
(81,0,l)
);
},
{
closed = 1;
nodes = (
(397,0,l),
(258,320,l),
(212,270,l),
(327,0,l)
);
},
{
pos = (171,700);
ref = _serif.I.TL;
},
{
pos = (453,500);
ref = _serif.I.TR;
},
{
pos = (357,0);
ref = _serif.I.BR;
},
{
pos = (81,0);
ref = _serif.I.BR;
},
{
pos = (22,0);
ref = _serif.I.BL;
}
);
width = 480;
},
{
anchors = (
{
name = bottom;
pos = (242,0);
},
{
name = top;
pos = (391,690);
}
);
layerId = m004;
shapes = (
{
closed = 1;
nodes = (
(603,500,l),
(413,500,l),
(191,280,l),
(233,150,l)
);
},
{
closed = 1;
nodes = (
(351,700,l),
(171,700,l),
(22,0,l),
(201,0,l)
);
},
{
closed = 1;
nodes = (
(497,0,l),
(387,340,l),
(235,330,l),
(317,0,l)
);
},
{
pos = (171,700);
ref = _serif.I.TL;
},
{
pos = (543,500);
ref = _serif.I.TR;
},
{
pos = (437,0);
ref = _serif.I.BR;
},
{
pos = (171,0);
ref = _serif.I.BR;
},
{
pos = (22,0);
ref = _serif.I.BL;
}
);
width = 560;
}
);
unicode = 107;
userData = {
KernOnName = k;
};
}
{
glyphname = l;
kernLeft = KO_l;
kernRight = KO_i;
layers = (
{
anchors = (
{
name = bottom;
pos = (53,0);
},
{
name = center;
pos = (127,350);
},
{
name = top;
pos = (202,700);
},
{
name = topright;
pos = (269,700);
}
);
layerId = m003;
shapes = (
{
closed = 1;
nodes = (
(82,0,l),
(231,700,l),
(171,700,l),
(22,0,l)
);
},
{
pos = (171,700);
ref = _serif.I.TL;
},
{
pos = (82,0);
ref = _serif.I.BR;
},
{
pos = (22,0);
ref = _serif.I.BL;
}
);
width = 210;
},
{
anchors = (
{
name = bottom;
pos = (113,0);
},
{
name = center;
pos = (187,350);
},
{
name = top;
pos = (262,700);
},
{
name = topright;
pos = (367,700);
}
);
layerId = m004;
shapes = (
{
closed = 1;
nodes = (
(203,0,l),
(352,700,l),
(172,700,l),
(23,0,l)
);
},
{
pos = (172,700);
ref = _serif.I.TL;
},
{
pos = (203,0);
ref = _serif.I.BR;
},
{
pos = (23,0);
ref = _serif.I.BL;
}
);
width = 331;
}
);
metricLeft = "=h";
metricRight = "=n";
unicode = 108;
userData = {
KernOnName = l;
};
}
{
glyphname = m;
kernLeft = KO_n;
kernRight = KO_n;
layers = (
{
anchors = (
{
name = bottom;
pos = (343,0);
},
{
name = top;
pos = (449,500);
}
);
layerId = m003;
shapes = (
{
closed = 1;
nodes = (
(134,350,o),
(212,453,o),
(289,453,c),
(301,508,l),
(208,508,o),
(109,360,o),
(109,360,c),
(134,350,l)
);
},
{
closed = 1;
nodes = (
(401,250,l),
(411,302,ls),
(436,434,o),
(392,508,o),
(300,508,c),
(288,453,l),
(348,453,o),
(374,407,o),
(341,250,c)
);
},
{
closed = 1;
nodes = (
(388,350,o),
(466,453,o),
(543,453,c),
(555,508,l),
(462,508,o),
(370,390,o),
(370,390,c),
(388,350,l)
);
},
{
pos = (33,0);
ref = _serif.I.BL;
},
{
pos = (93,0);
ref = _serif.I.BR;
},
{
pos = (603,0);
ref = _serif.I.BR;
},
{
closed = 1;
nodes = (
(93,0,l),
(199,500,l),
(139,500,l),
(33,0,l)
);
},
{
closed = 1;
nodes = (
(348,0,l),
(401,250,l),
(341,250,l),
(288,0,l)
);
},
{
closed = 1;
nodes = (
(603,0,l),
(656,250,l),
(596,250,l),
(543,0,l)
);
},
{
closed = 1;
nodes = (
(656,250,l),
(666,302,ls),
(691,434,o),
(647,508,o),
(555,508,c),
(543,453,l),
(603,453,o),
(629,407,o),
(596,250,c)
);
},
{
pos = (139,500);
ref = _serif.Spur;
},
{
pos = (348,0);
ref = _serif.I.BR;
}
);
width = 731;
},
{
anchors = (
{
name = bottom;
pos = (422,0);
},
{
name = top;
pos = (528,500);
}
);
layerId = m004;
shapes = (
{
closed = 1;
nodes = (
(199,330,o),
(314,373,o),
(351,373,c),
(450,508,l),
(337,508,o),
(199,330,o),
(199,330,c),
(199,330,l)
);
},
{
closed = 1;
nodes = (
(530,250,l),
(540,302,ls),
(565,434,o),
(581,508,o),
(449,508,c),
(350,373,l),
(376,373,o),
(366,327,o),
(350,250,c)
);
},
{
closed = 1;
nodes = (
(463,330,o),
(589,373,o),
(615,373,c),
(714,508,l),
(621,508,o),
(463,330,o),
(463,330,c),
(463,330,l)
);
},
{
pos = (32,0);
ref = _serif.I.BL;
},
{
pos = (212,0);
ref = _serif.I.BR;
},
{
pos = (742,0);
ref = _serif.I.BR;
},
{
closed = 1;
nodes = (
(212,0,l),
(318,500,l),
(138,500,l),
(32,0,l)
);
},
{
closed = 1;
nodes = (
(477,0,l),
(530,250,l),
(350,250,l),
(297,0,l)
);
},
{
closed = 1;
nodes = (
(742,0,l),
(795,250,l),
(615,250,l),
(562,0,l)
);
},
{
closed = 1;
nodes = (
(795,250,l),
(805,302,ls),
(830,434,o),
(846,508,o),
(714,508,c),
(615,373,l),
(641,373,o),
(631,327,o),
(615,250,c)
);
},
{
pos = (138,500);
ref = _serif.Spur;
},
{
pos = (477,0);
ref = _serif.I.BR;
}
);
width = 870;
}
);
metricLeft = "=n";
metricRight = "=n";
unicode = 109;
}
{
glyphname = n;
kernLeft = KO_n;
kernRight = KO_n;
layers = (
{
anchors = (
{
name = bottom;
pos = (206,0);
},
{
name = top;
pos = (312,500);
}
);
layerId = m003;
shapes = (
{
closed = 1;
nodes = (
(461,302,ls),
(486,434,o),
(442,508,o),
(330,508,c),
(318,453,l),
(398,453,o),
(424,407,o),
(391,250,c),
(451,250,l)
);
},
{
closed = 1;
nodes = (
(33,0,l),
(93,0,l),
(199,500,l),
(139,500,l)
);
},
{
closed = 1;
nodes = (
(338,0,l),
(398,0,l),
(451,250,l),
(391,250,l)
);
},
{
closed = 1;
nodes = (
(139,350,o),
(227,453,o),
(319,453,c),
(331,508,l),
(220,508,o),
(109,360,o),
(109,360,c),
(139,350,l)
);
},
{
pos = (139,500);
ref = _serif.Spur;
},
{
pos = (93,0);
ref = _serif.I.BR;
},
{
pos = (33,0);
ref = _serif.I.BL;
},
{
pos = (398,0);
ref = _serif.I.BR;
}
);
width = 526;
},
{
anchors = (
{
name = bottom;
pos = (255,0);
},
{
name = top;
pos = (361,500);
}
);
layerId = m004;
shapes = (
{
closed = 1;
nodes = (
(541,302,ls),
(569,435,o),
(521,508,o),
(429,508,c),
(340,373,l),
(376,373,o),
(366,327,o),
(350,250,c),
(530,250,l)
);
},
{
closed = 1;
nodes = (
(32,0,l),
(212,0,l),
(318,500,l),
(138,500,l)
);
},
{
closed = 1;
nodes = (
(297,0,l),
(477,0,l),
(530,250,l),
(350,250,l)
);
},
{
closed = 1;
nodes = (
(172,330,o),
(306,373,o),
(341,373,c),
(430,508,l),
(319,508,o),
(172,330,o),
(172,330,c),
(172,330,l)
);
},
{
pos = (138,500);
ref = _serif.Spur;
},
{
pos = (212,0);
ref = _serif.I.BR;
},
{
pos = (32,0);
ref = _serif.I.BL;
},
{
pos = (477,0);
ref = _serif.I.BR;
}
);
width = 605;
}
);
unicode = 110;
userData = {
KernOnName = n;
};
}
{
glyphname = o;
kernLeft = KO_o;
kernRight = KO_o;
layers = (
{
anchors = (
{
name = bottom;
pos = (182,0);
},
{
name = center;
pos = (235,250);
},
{
name = ogonek;
pos = (384,10);
},
{
name = top;
pos = (288,500);
},
{
name = topright;
pos = (518,500);
}
);
layerId = m003;
shapes = (
{
closed = 1;
nodes = (
(3,121,o),
(34,-8,o),
(180,-8,cs),
(326,-8,o),
(413,121,o),
(440,250,cs),
(467,379,o),
(436,508,o),
(290,508,cs),
(144,508,o),
(57,379,o),
(30,250,cs)
);
},
{
closed = 1;
nodes = (
(114,354,o),
(167,452,o),
(278,452,cs),
(389,452,o),
(400,354,o),
(378,250,cs),
(356,145,o),
(303,47,o),
(192,47,cs),
(81,47,o),
(70,145,o),
(92,250,cs)
);
}
);
width = 470;
},
{
anchors = (
{
name = bottom;
pos = (207,0);
},
{
name = center;
pos = (260,250);
},
{
name = ogonek;
pos = (417,10);
},
{
name = top;
pos = (313,500);
},
{
name = topright;
pos = (553,500);
}
);
layerId = m004;
shapes = (
{
closed = 1;
nodes = (
(-12,121,o),
(19,-8,o),
(205,-8,cs),
(391,-8,o),
(478,121,o),
(505,250,cs),
(532,379,o),
(501,508,o),
(315,508,cs),
(129,508,o),
(42,379,o),
(15,250,cs)
);
},
{
closed = 1;
nodes = (
(206,294,o),
(229,392,o),
(290,392,cs),
(351,392,o),
(332,294,o),
(323,250,cs),
(313,205,o),
(291,107,o),
(230,107,cs),
(169,107,o),
(187,205,o),
(197,250,cs)
);
}
);
width = 520;
}
);
metricRight = "=|";
unicode = 111;
userData = {
KernOnName = o;
};
}
{
glyphname = p;
kernLeft = KO_p;
kernRight = KO_p;
layers = (
{
anchors = (
{
name = bottom;
pos = (210,0);
},
{
name = top;
pos = (316,500);
}
);
layerId = m003;
shapes = (
{
closed = 1;
nodes = (
(139,500,l),
(-10,-200,l),
(50,-200,l),
(199,500,l)
);
},
{
closed = 1;
nodes = (
(139,350,o),
(227,453,o),
(319,453,c),
(331,508,l),
(220,508,o),
(109,360,o),
(109,360,c),
(139,350,l)
);
},
{
closed = 1;
nodes = (
(63,140,l),
(63,140,o),
(110,-8,o),
(221,-8,c),
(233,48,l),
(141,48,o),
(97,150,o),
(97,150,c)
);
},
{
closed = 1;
nodes = (
(221,-8,l),
(367,-8,o),
(454,121,o),
(481,250,cs),
(508,379,o),
(477,508,o),
(331,508,c),
(319,453,l),
(430,453,o),
(441,355,o),
(419,250,cs),
(397,146,o),
(344,48,o),
(233,48,c)
);
},
{
pos = (139,500);
ref = _serif.Spur;
},
{
pos = (-10,-200);
ref = _serif.I.BL;
},
{
pos = (50,-200);
ref = _serif.I.BR;
}
);
width = 526;
},
{
anchors = (
{
name = bottom;
pos = (236,0);
},
{
name = top;
pos = (342,500);
}
);
layerId = m004;
shapes = (
{
closed = 1;
nodes = (
(139,500,l),
(-10,-200,l),
(167,-200,l),
(319,500,l)
);
},
{
closed = 1;
nodes = (
(173,330,o),
(311,393,o),
(346,393,c),
(431,508,l),
(320,508,o),
(173,330,o),
(173,330,c),
(173,330,l)
);
},
{
closed = 1;
nodes = (
(139,170,l),
(139,170,o),
(210,-8,o),
(321,-8,c),
(286,108,l),
(251,108,o),
(139,170,o),
(139,170,c)
);
},
{
closed = 1;
nodes = (
(321,-8,l),
(447,-8,o),
(534,121,o),
(561,250,cs),
(588,379,o),
(557,508,o),
(431,508,c),
(346,393,l),
(407,393,o),
(389,295,o),
(379,250,cs),
(370,206,o),
(347,108,o),
(286,108,c)
);
},
{
pos = (139,500);
ref = _serif.Spur;
},
{
pos = (-10,-200);
ref = _serif.I.BL;
},
{
pos = (167,-200);
ref = _serif.I.BR;
}
);
width = 576;
}
);
metricLeft = "=n";
metricRight = "=o";
unicode = 112;
userData = {
KernOnName = p;
};
}
{
glyphname = r;
kernLeft = KO_n;
kernRight = KO_r;
layers = (
{
anchors = (
{
name = bottom;
pos = (131,0);
},
{
name = top;
pos = (237,500);
}
);
layerId = m003;
shapes = (
{
closed = 1;
nodes = (
(330,508,l),
(318,453,l)
);
},
{
closed = 1;
nodes = (
(33,0,l),
(93,0,l),
(199,500,l),
(139,500,l)
);
},
{
closed = 1;
nodes = (
(385,500,l),
(369,505,o),
(351,508,o),
(330,508,c),
(318,453,l),
(333,453,o),
(346,451,o),
(357,448,c)
);
},
{
closed = 1;
nodes = (
(139,350,o),
(227,453,o),
(319,453,c),
(331,508,l),
(220,508,o),
(109,360,o),
(109,360,c),
(139,350,l)
);
},
{
pos = (139,500);
ref = _serif.Spur;
},
{
pos = (33,0);
ref = _serif.I.BL;
},
{
pos = (93,0);
ref = _serif.I.BR;
},
{
pos = (385,500);
ref = _serif.r.TR;
}
);
width = 356;
},
{
anchors = (
{
name = bottom;
pos = (180,0);
},
{
name = top;
pos = (286,500);
}
);
layerId = m004;
shapes = (
{
closed = 1;
nodes = (
(429,508,l),
(340,373,l)
);
},
{
closed = 1;
nodes = (
(32,0,l),
(212,0,l),
(318,500,l),
(138,500,l)
);
},
{
closed = 1;
nodes = (
(493,493,l),
(477,501,o),
(450,508,o),
(429,508,c),
(340,373,l),
(368,373,o),
(390,365,o),
(415,348,c)
);
},
{
closed = 1;
nodes = (
(172,330,o),
(306,373,o),
(341,373,c),
(430,508,l),
(319,508,o),
(172,330,o),
(172,330,c),
(172,330,l)
);
},
{
pos = (138,500);
ref = _serif.Spur;
},
{
pos = (32,0);
ref = _serif.I.BL;
},
{
pos = (212,0);
ref = _serif.I.BR;
},
{
pos = (493,493);
ref = _serif.r.TR;
}
);
width = 464;
}
);
metricLeft = "=n";
unicode = 114;
userData = {
KernOnName = r;
};
}
{
glyphname = s;
kernLeft = KO_s;
kernRight = KO_s;
layers = (
{
anchors = (
{
name = bottom;
pos = (158,0);
},
{
name = top;
pos = (264,500);
}
);
layerId = m003;
shapes = (
{
closed = 1;
nodes = (
(279,-8,o),
(356,61,o),
(375,153,cs),
(394,239,o),
(345,275,o),
(220,290,c),
(207,232,l),
(292,220,o),
(326,201,o),
(315,153,cs),
(302,92,o),
(252,47,o),
(168,47,c),
(156,-8,l)
);
},
{
closed = 1;
nodes = (
(179,508,o),
(100,458,o),
(83,376,cs),
(65,294,o),
(114,246,o),
(207,232,c),
(220,290,l),
(159,298,o),
(132,327,o),
(143,376,cs),
(153,425,o),
(202,453,o),
(254,453,c),
(266,508,l)
);
},
{
closed = 1;
nodes = (
(31,32,o),
(82,-8,o),
(156,-8,c),
(168,47,l),
(105,47,o),
(70,79,o),
(48,99,c),
(4,55,l)
);
},
{
closed = 1;
nodes = (
(418,444,l),
(392,467,o),
(340,508,o),
(266,508,c),
(254,453,l),
(316,453,o),
(352,422,o),
(374,402,c)
);
},
{
pos = (4,55);
ref = _serif.s.BL;
},
{
pos = (418,444);
ref = _serif.s.TR;
}
);
width = 441;
},
{
anchors = (
{
name = bottom;
pos = (158,0);
},
{
name = top;
pos = (264,500);
}
);
layerId = m004;
shapes = (
{
closed = 1;
nodes = (
(306,-8,o),
(392,45,o),
(415,153,cs),
(437,255,o),
(389,305,o),
(256,320,c),
(181,202,l),
(225,196,o),
(242,182,o),
(235,153,cs),
(229,123,o),
(210,107,o),
(181,107,c),
(156,-8,l)
);
},
{
closed = 1;
nodes = (
(157,508,o),
(59,451,o),
(39,356,cs),
(21,272,o),
(75,213,o),
(181,202,c),
(256,320,l),
(227,324,o),
(214,335,o),
(219,356,cs),
(223,377,o),
(241,393,o),
(271,393,c),
(266,508,l)
);
},
{
closed = 1;
nodes = (
(-9,32,o),
(42,-8,o),
(156,-8,c),
(181,107,l),
(118,107,o),
(95,123,o),
(61,159,c),
(-36,55,l)
);
},
{
closed = 1;
nodes = (
(458,444,l),
(415,483,o),
(341,508,o),
(266,508,c),
(271,393,l),
(309,393,o),
(340,383,o),
(366,362,c)
);
},
{
pos = (-36,55);
ref = _serif.s.BL;
},
{
pos = (458,444);
ref = _serif.s.TR;
}
);
width = 441;
}
);
metricRight = "=|";
unicode = 115;
userData = {
KernOnName = s;
};
}
{
glyphname = t;
kernLeft = KO_t;
kernRight = KO_t;
layers = (
{
anchors = (
{
name = bottom;
pos = (153,0);
},
{
name = center;
pos = (121,250);
},
{
name = top;
pos = (193,590);
},
{
name = topright;
pos = (383,700);
}
);
layerId = m003;
shapes = (
{
closed = 1;
nodes = (
(325,445,l),
(337,500,l),
(66,500,l),
(54,445,l)
);
},
{
closed = 1;
nodes = (
(203,48,o),
(193,47,o),
(181,47,cs),
(126,47,o),
(114,76,o),
(133,167,c),
(227,610,l),
(165,600,l),
(80,200,l),
(47,46,o),
(70,-5,o),
(170,-5,cs),
(187,-5,o),
(198,-4,o),
(218,0,c),
(218,50,l)
);
}
);
width = 319;
},
{
anchors = (
{
name = bottom;
pos = (208,0);
},
{
name = center;
pos = (167,250);
},
{
name = top;
pos = (241,600);
},
{
name = topright;
pos = (426,700);
}
);
layerId = m004;
shapes = (
{
closed = 1;
nodes = (
(378,380,l),
(403,500,l),
(53,500,l),
(28,380,l)
);
},
{
closed = 1;
nodes = (
(283,108,o),
(273,107,o),
(261,107,cs),
(228,107,o),
(233,136,o),
(239,167,c),
(336,620,l),
(151,600,l),
(66,200,l),
(34,46,o),
(86,-7,o),
(206,-7,cs),
(243,-7,o),
(265,-4,o),
(285,0,c),
(298,110,l)
);
}
);
width = 350;
}
);
unicode = 116;
userData = {
KernOnName = t;
};
}
{
glyphname = u;
kernLeft = KO_u;
kernRight = KO_u;
layers = (
{
anchors = (
{
name = bottom;
pos = (212,0);
},
{
name = ogonek;
pos = (398,0);
},
{
name = top;
pos = (318,500);
},
{
name = topright;
pos = (553,500);
}
);
layerId = m003;
shapes = (
{
closed = 1;
nodes = (
(76,198,ls),
(51,66,o),
(95,-8,o),
(207,-8,c),
(219,47,l),
(139,47,o),
(112,93,o),
(146,250,c),
(86,250,l)
);
},
{
closed = 1;
nodes = (
(504,500,l),
(444,500,l),
(350,60,l),
(427,140,l)
);
},
{
closed = 1;
nodes = (
(199,500,l),
(139,500,l),
(86,250,l),
(146,250,l)
);
},
{
closed = 1;
nodes = (
(338,0,l),
(398,0,l),
(427,140,l),
(350,60,l)
);
},
{
closed = 1;
nodes = (
(398,150,o),
(310,47,o),
(218,47,c),
(206,-8,l),
(317,-8,o),
(427,140,o),
(427,140,c),
(398,150,l)
);
},
{
pos = (398,0);
ref = _serif.I.BR;
},
{
pos = (139,500);
ref = _serif.Spur;
},
{
pos = (444,500);
ref = _serif.Spur;
}
);
width = 526;
},
{
anchors = (
{
name = bottom;
pos = (255,0);
},
{
name = ogonek;
pos = (477,0);
},
{
name = top;
pos = (361,500);
},
{
name = topright;
pos = (598,500);
}
);
layerId = m004;
shapes = (
{
closed = 1;
nodes = (
(75,198,ls),
(49,66,o),
(94,-8,o),
(186,-8,c),
(270,107,l),
(230,107,o),
(244,153,o),
(265,250,c),
(85,250,l)
);
},
{
closed = 1;
nodes = (
(583,500,l),
(403,500,l),
(309,60,l),
(506,140,l)
);
},
{
closed = 1;
nodes = (
(318,500,l),
(138,500,l),
(85,250,l),
(265,250,l)
);
},
{
closed = 1;
nodes = (
(327,0,l),
(477,0,l),
(506,140,l),
(309,60,l)
);
},
{
closed = 1;
nodes = (
(439,150,o),
(321,107,o),
(269,107,c),
(185,-8,l),
(296,-8,o),
(439,150,o),
(439,150,c),
(439,150,l)
);
},
{
pos = (477,0);
ref = _serif.I.BR;
},
{
pos = (138,500);
ref = _serif.Spur;
},
{
pos = (403,500);
ref = _serif.Spur;
}
);
width = 605;
}
);
metricRight = "=i";
unicode = 117;
userData = {
KernOnName = u;
};
}
{
glyphname = v;
kernLeft = KO_v;
kernRight = KO_y;
layers = (
{
layerId = m003;
shapes = (
{
closed = 1;
nodes = (
(77,500,l),
(138,0,l),
(212,0,l),
(485,500,l),
(421,500,l),
(187,58,l),
(141,500,l)
);
},
{
pos = (455,500);
ref = _serif.I.TR;
},
{
pos = (107,500);
ref = _serif.Spur;
},
{
pos = (421,500);
ref = _serif.Spur;
},
{
pos = (141,500);
ref = _serif.I.TR;
}
);
width = 456;
},
{
layerId = m004;
shapes = (
{
closed = 1;
nodes = (
(53,500,l),
(114,0,l),
(268,0,l),
(541,500,l),
(357,500,l),
(233,198,l),
(237,500,l)
);
},
{
pos = (511,500);
ref = _serif.I.TR;
},
{
pos = (83,500);
ref = _serif.Spur;
},
{
pos = (377,500);
ref = _serif.Spur;
},
{
pos = (217,500);
ref = _serif.I.TR;
}
);
width = 487;
}
);
metricRight = "=|";
unicode = 118;
userData = {
KernOnName = v;
};
}
{
glyphname = w;
kernLeft = KO_v;
kernRight = KO_y;
layers = (
{
anchors = (
{
name = bottom;
pos = (297,0);
},
{
name = top;
pos = (403,500);
}
);
layerId = m003;
shapes = (
{
closed = 1;
nodes = (
(476,0,l),
(719,500,l),
(655,500,l),
(451,58,l),
(435,500,l),
(376,500,l),
(402,0,l)
);
},
{
closed = 1;
nodes = (
(192,0,l),
(430,500,l),
(371,500,l),
(167,58,l),
(151,500,l),
(87,500,l),
(118,0,l)
);
},
{
pos = (107,500);
ref = _serif.Spur;
},
{
pos = (151,500);
ref = _serif.I.TR;
},
{
pos = (655,500);
ref = _serif.Spur;
},
{
pos = (699,500);
ref = _serif.I.TR;
}
);
width = 699;
},
{
anchors = (
{
name = bottom;
pos = (303,0);
},
{
name = top;
pos = (409,500);
}
);
layerId = m004;
shapes = (
{
closed = 1;
nodes = (
(522,0,l),
(765,500,l),
(601,500,l),
(487,198,l),
(481,500,l),
(342,500,l),
(368,0,l)
);
},
{
closed = 1;
nodes = (
(238,0,l),
(476,500,l),
(337,500,l),
(203,198,l),
(217,500,l),
(53,500,l),
(84,0,l)
);
},
{
pos = (83,500);
ref = _serif.Spur;
},
{
pos = (197,500);
ref = _serif.I.TR;
},
{
pos = (601,500);
ref = _serif.Spur;
},
{
pos = (735,500);
ref = _serif.I.TR;
}
);
width = 711;
}
);
metricLeft = "=v";
metricRight = "=v";
unicode = 119;
userData = {
KernOnName = w;
};
}
{
glyphname = x;
kernLeft = KO_x;
kernRight = KO_x;
layers = (
{
layerId = m003;
shapes = (
{
closed = 1;
nodes = (
(219,210,l),
(307,0,l),
(374,0,l),
(267,258,l),
(193,258,l),
(-24,0,l),
(43,0,l)
);
},
{
closed = 1;
nodes = (
(82,500,l),
(193,258,l),
(267,258,l),
(480,500,l),
(412,500,l),
(240,306,l),
(149,500,l)
);
},
{
pos = (122,500);
ref = _serif.I.TL;
},
{
pos = (344,0);
ref = _serif.I.BR;
},
{
pos = (307,0);
ref = _serif.I.BL;
},
{
pos = (43,0);
ref = _serif.I.BR;
},
{
pos = (6,0);
ref = _serif.I.BL;
},
{
pos = (440,500);
ref = _serif.I.TR;
},
{
pos = (402,500);
ref = _serif.I.TL;
},
{
pos = (159,500);
ref = _serif.I.TR;
}
);
width = 456;
},
{
layerId = m004;
shapes = (
{
closed = 1;
nodes = (
(220,160,l),
(258,0,l),
(425,0,l),
(338,258,l),
(144,258,l),
(-53,0,l),
(114,0,l)
);
},
{
closed = 1;
nodes = (
(53,500,l),
(144,258,l),
(338,258,l),
(531,500,l),
(363,500,l),
(262,356,l),
(220,500,l)
);
},
{
pos = (123,500);
ref = _serif.I.TL;
},
{
pos = (355,0);
ref = _serif.I.BR;
},
{
pos = (268,0);
ref = _serif.I.BL;
},
{
pos = (104,0);
ref = _serif.I.BR;
},
{
pos = (17,0);
ref = _serif.I.BL;
},
{
pos = (471,500);
ref = _serif.I.TR;
},
{
pos = (368,500);
ref = _serif.I.TL;
},
{
pos = (215,500);
ref = _serif.I.TR;
}
);
width = 478;
}
);
unicode = 120;
}
{
glyphname = y;
kernLeft = KO_y;
kernRight = KO_y;
layers = (
{
anchors = (
{
name = bottom;
pos = (185,0);
},
{
name = top;
pos = (291,500);
}
);
layerId = m003;
shapes = (
{
closed = 1;
nodes = (
(222,0,l),
(495,500,l),
(431,500,l),
(197,58,l),
(151,500,l),
(87,500,l),
(150,-23,l)
);
},
{
closed = 1;
nodes = (
(75,-205,o),
(136,-154,o),
(222,0,c),
(162,0,l),
(144,-33,l),
(92,-125,o),
(60,-145,o),
(5,-145,cs),
(-7,-145,o),
(-27,-144,o),
(-40,-142,c),
(-70,-200,l),
(-53,-204,o),
(-42,-205,o),
(-25,-205,cs)
);
},
{
pos = (107,500);
ref = _serif.I.TL;
},
{
pos = (151,500);
ref = _serif.I.TR;
},
{
pos = (431,500);
ref = _serif.I.TL;
},
{
pos = (465,500);
ref = _serif.I.TR;
},
{
pos = (-70,-200);
ref = _serif.S.BL;
}
);
width = 465;
},
{
anchors = (
{
name = bottom;
pos = (181,0);
},
{
name = top;
pos = (287,500);
}
);
layerId = m004;
shapes = (
{
closed = 1;
nodes = (
(258,0,l),
(531,500,l),
(347,500,l),
(223,198,l),
(227,500,l),
(43,500,l),
(104,0,l)
);
},
{
closed = 1;
nodes = (
(111,-205,o),
(172,-154,o),
(258,0,c),
(104,0,l),
(86,-33,l),
(67,-65,o),
(39,-95,o),
(-16,-95,cs),
(-58,-95,o),
(-62,-92,o),
(-62,-92,c),
(-114,-200,l),
(-77,-204,o),
(-46,-205,o),
(-29,-205,cs)
);
},
{
pos = (83,500);
ref = _serif.I.TL;
},
{
pos = (207,500);
ref = _serif.I.TR;
},
{
pos = (367,500);
ref = _serif.I.TL;
},
{
pos = (501,500);
ref = _serif.I.TR;
},
{
pos = (-114,-200);
ref = _serif.S.BL;
}
);
width = 477;
}
);
metricLeft = "=v";
metricRight = "=v";
unicode = 121;
userData = {
KernOnName = y;
};
}
{
glyphname = z;
kernLeft = KO_z;
kernRight = KO_z;
layers = (
{
anchors = (
{
name = bottom;
pos = (165,0);
},
{
name = center;
pos = (218,250);
},
{
name = top;
pos = (271,500);
}
);
layerId = m003;
shapes = (
{
closed = 1;
nodes = (
(108,500,l),
(95,440,l),
(355,440,l),
(-5,60,l),
(-18,0,l),
(347,0,l),
(360,60,l),
(81,60,l),
(440,440,l),
(453,500,l)
);
},
{
pos = (347,0);
ref = _serif.Z.BR;
},
{
pos = (108,500);
ref = _serif.T.TL;
}
);
width = 435;
},
{
anchors = (
{
name = bottom;
pos = (185,0);
},
{
name = center;
pos = (238,250);
},
{
name = top;
pos = (291,500);
}
);
layerId = m004;
shapes = (
{
closed = 1;
nodes = (
(83,500,l),
(58,380,l),
(308,380,l),
(-13,120,l),
(-38,0,l),
(407,0,l),
(432,120,l),
(183,120,l),
(488,380,l),
(513,500,l)
);
},
{
pos = (407,0);
ref = _serif.Z.BR;
},
{
pos = (83,500);
ref = _serif.T.TL;
}
);
width = 475;
}
);
unicode = 122;
userData = {
KernOnName = z;
};
}
{
glyphname = braceleft;
kernRight = KO_braceleft;
layers = (
{
layerId = m003;
shapes = (
{
closed = 1;
nodes = (
(248,0,l),
(236,-2,o),
(226,-3,o),
(215,-3,cs),
(142,-3,o),
(138,35,o),
(150,93,c),
(176,200,l),
(189,262,o),
(192,317,o),
(129,340,c),
(199,357,o),
(221,411,o),
(233,471,c),
(253,576,l),
(265,632,o),
(284,669,o),
(357,669,cs),
(367,669,o),
(379,668,o),
(390,666,c),
(398,703,l),
(388,705,o),
(369,708,o),
(349,708,cs),
(300,708,o),
(225,690,o),
(207,604,cs),
(198,562,o),
(191,530,o),
(182,490,cs),
(168,421,o),
(149,358,o),
(67,354,c),
(60,321,l),
(144,317,o),
(132,252,o),
(116,178,cs),
(109,144,o),
(99,97,o),
(91,62,cs),
(73,-24,o),
(140,-42,o),
(189,-42,cs),
(208,-42,o),
(241,-36,o),
(241,-36,c)
);
}
);
width = 327;
},
{
layerId = m004;
shapes = (
{
closed = 1;
nodes = (
(298,0,l),
(286,-2,o),
(276,-3,o),
(265,-3,cs),
(192,-3,o),
(188,35,o),
(200,93,c),
(226,200,l),
(239,262,o),
(242,317,o),
(169,340,c),
(249,357,o),
(271,411,o),
(283,471,c),
(303,576,l),
(315,632,o),
(334,669,o),
(407,669,cs),
(417,669,o),
(429,668,o),
(440,666,c),
(460,763,l),
(451,765,o),
(431,768,o),
(411,768,cs),
(282,768,o),
(208,750,o),
(177,604,cs),
(168,562,o),
(161,530,o),
(152,490,cs),
(138,421,o),
(124,378,o),
(42,374,c),
(26,301,l),
(109,297,o),
(102,252,o),
(86,178,cs),
(79,144,o),
(69,97,o),
(61,62,cs),
(30,-84,o),
(98,-102,o),
(227,-102,cs),
(246,-102,o),
(278,-96,o),
(278,-96,c)
);
}
);
width = 352;
}
);
metricLeft = "=O";
note = braceleft;
unicode = 123;
userData = {
KernOnSpecialSpacing = {
R = parenthesis;
};
};
}
{
glyphname = bar;
layers = (
{
layerId = m003;
shapes = (
{
closed = 1;
nodes = (
(84,-125,l),
(139,-125,l),
(316,700,l),
(261,700,l)
);
}
);
width = 400;
},
{
layerId = m004;
shapes = (
{
closed = 1;
nodes = (
(54,-125,l),
(169,-125,l),
(346,700,l),
(231,700,l)
);
}
);
width = 400;
}
);
unicode = 124;
userData = {
KernOnSpecialSpacing = {
L = NoKerning;
R = NoKerning;
};
};
}
{
glyphname = braceright;
layers = (
{
layerId = m004;
shapes = (
{
closed = 1;
nodes = (
(-73,-96,o),
(-43,-102,o),
(-24,-102,cs),
(125,-102,o),
(199,-84,o),
(230,62,cs),
(238,97,o),
(248,144,o),
(255,178,cs),
(271,252,o),
(282,297,o),
(367,301,c),
(383,374,l),
(303,378,o),
(307,421,o),
(321,490,cs),
(330,530,o),
(337,562,o),
(346,604,cs),
(377,750,o),
(309,768,o),
(160,768,cs),
(140,768,o),
(120,765,o),
(109,763,c),
(89,666,l),
(100,668,o),
(112,669,o),
(122,669,cs),
(195,669,o),
(200,632,o),
(188,576,c),
(162,471,l),
(150,411,o),
(148,357,o),
(210,340,c),
(139,317,o),
(118,262,o),
(105,200,c),
(85,93,l),
(73,35,o),
(53,-3,o),
(-20,-3,cs),
(-31,-3,o),
(-41,-2,o),
(-53,0,c),
(-73,-96,l)
);
}
);
width = 372;
},
{
layerId = m003;
shapes = (
{
closed = 1;
nodes = (
(-35,-36,o),
(-6,-42,o),
(13,-42,cs),
(62,-42,o),
(137,-24,o),
(155,62,cs),
(163,97,o),
(173,144,o),
(180,178,cs),
(196,252,o),
(212,317,o),
(296,321,c),
(303,354,l),
(223,358,o),
(232,421,o),
(246,490,cs),
(255,530,o),
(262,562,o),
(271,604,cs),
(289,690,o),
(222,708,o),
(173,708,cs),
(153,708,o),
(132,705,o),
(122,703,c),
(114,666,l),
(125,668,o),
(137,669,o),
(147,669,cs),
(220,669,o),
(225,632,o),
(213,576,c),
(187,471,l),
(175,411,o),
(173,357,o),
(235,340,c),
(164,317,o),
(143,262,o),
(130,200,c),
(110,93,l),
(98,35,o),
(78,-3,o),
(5,-3,cs),
(-6,-3,o),
(-16,-2,o),
(-28,0,c),
(-35,-36,l)
);
}
);
width = 326;
}
);
metricRight = "=O";
note = braceright;
unicode = 125;
userData = {
KernOnSpecialSpacing = {
L = parenthesis;
};
};
}
{
glyphname = asciitilde;
kernLeft = KO_asciitilde;
kernRight = KO_asciitilde;
layers = (
{
layerId = m003;
shapes = (
{
closed = 1;
nodes = (
(100,300,l),
(139,325,o),
(190,350,o),
(231,350,cs),
(291,350,o),
(328,290,o),
(398,290,cs),
(464,290,o),
(521,322,o),
(572,355,c),
(542,400,l),
(503,375,o),
(452,350,o),
(411,350,cs),
(351,350,o),
(314,410,o),
(244,410,cs),
(178,410,o),
(122,377,o),
(70,344,c)
);
}
);
width = 600;
},
{
layerId = m004;
shapes = (
{
closed = 1;
nodes = (
(60,269,l),
(100,299,o),
(143,320,o),
(204,320,cs),
(270,320,o),
(287,260,o),
(371,260,cs),
(461,260,o),
(537,313,o),
(596,361,c),
(540,431,l),
(500,401,o),
(457,380,o),
(396,380,cs),
(330,380,o),
(313,440,o),
(229,440,cs),
(138,440,o),
(63,385,o),
(2,338,c)
);
}
);
width = 555;
}
);
metricRight = "=|";
unicode = 126;
userData = {
KernOnSpecialSpacing = {
L = math;
R = math;
};
};
}
{
glyphname = exclamdown;
layers = (
{
layerId = m003;
shapes = (
{
closed = 1;
nodes = (
(-1,-200,l),
(104,320,l),
(44,320,l),
(-71,-200,l)
);
},
{
closed = 1;
nodes = (
(120,418,o),
(144,438,o),
(150,463,cs),
(155,488,o),
(139,508,o),
(114,508,cs),
(89,508,o),
(65,488,o),
(60,463,cs),
(54,438,o),
(70,418,o),
(95,418,cs)
);
}
);
width = 120;
},
{
layerId = m004;
shapes = (
{
closed = 1;
nodes = (
(108,-200,l),
(184,250,l),
(44,250,l),
(-72,-200,l)
);
},
{
closed = 1;
nodes = (
(182,308,o),
(236,353,o),
(248,408,cs),
(259,464,o),
(225,508,o),
(169,508,cs),
(114,508,o),
(59,464,o),
(48,408,cs),
(36,353,o),
(71,308,o),
(126,308,cs)
);
}
);
width = 228;
}
);
metricLeft = "=exclam";
metricRight = "=|";
note = exclamdown;
unicode = 161;
userData = {
KernOnSpecialSpacing = {
R = "spaced-off";
};
};
}
{
glyphname = cent;
layers = (
{
layerId = m004;
name = "Black Italic";
shapes = (
{
ref = c;
},
{
closed = 1;
nodes = (
(362,449,l),
(389,575,l),
(269,575,l),
(242,449,l)
);
},
{
closed = 1;
nodes = (
(160,61,l),
(131,-75,l),
(251,-75,l),
(280,61,l)
);
}
);
width = 463;
},
{
layerId = m003;
name = "Light Italic";
shapes = (
{
ref = c;
},
{
closed = 1;
nodes = (
(325,478,l),
(346,575,l),
(291,575,l),
(270,478,l)
);
},
{
closed = 1;
nodes = (
(173,21,l),
(153,-75,l),
(208,-75,l),
(228,21,l)
);
}
);
width = 438;
}
);
unicode = 162;
userData = {
KernOnSpecialSpacing = {
L = symbols;
R = symbols;
};
};
}
{
glyphname = sterling;
layers = (
{
layerId = m003;
shapes = (
{
closed = 1;
nodes = (
(137,332,l),
(135,315,o),
(122,260,o),
(118,241,cs),
(105,179,o),
(80,107,o),
(4,55,c),
(-8,0,l),
(60,15,o),
(106,15,o),
(136,15,cs),
(167,15,o),
(204,6,o),
(242,-2,cs),
(273,-9,o),
(300,-14,o),
(337,-14,cs),
(415,-14,o),
(474,3,o),
(532,32,c),
(520,84,l),
(470,59,o),
(414,46,o),
(350,46,cs),
(308,46,o),
(284,53,o),
(261,61,cs),
(230,72,o),
(195,80,o),
(150,80,cs),
(133,80,o),
(99,75,o),
(99,75,c),
(134,107,o),
(169,183,o),
(188,242,cs),
(194,260,o),
(207,316,o),
(209,332,c)
);
},
{
closed = 1;
nodes = (
(534,614,o),
(577,596,o),
(618,576,c),
(658,628,l),
(614,654,o),
(561,674,o),
(496,674,cs),
(291,674,o),
(176,512,o),
(137,332,c),
(209,332,l),
(243,489,o),
(328,614,o),
(483,614,cs)
);
},
{
closed = 1;
nodes = (
(60,320,l),
(421,320,l),
(434,380,l),
(73,380,l)
);
}
);
width = 603;
},
{
layerId = m004;
shapes = (
{
closed = 1;
nodes = (
(112,332,l),
(110,315,o),
(97,260,o),
(93,241,cs),
(80,179,o),
(53,147,o),
(-4,115,c),
(-28,0,l),
(55,15,o),
(111,15,o),
(171,15,cs),
(232,15,o),
(269,6,o),
(307,-2,cs),
(338,-9,o),
(365,-14,o),
(402,-14,cs),
(480,-14,o),
(530,9,o),
(587,38,c),
(582,150,l),
(532,125,o),
(504,116,o),
(460,116,cs),
(418,116,o),
(384,123,o),
(361,131,cs),
(330,142,o),
(280,150,o),
(235,150,cs),
(158,150,o),
(194,75,o),
(194,75,c),
(229,107,o),
(264,183,o),
(283,242,cs),
(289,260,o),
(302,316,o),
(304,332,c)
);
},
{
closed = 1;
nodes = (
(554,556,o),
(603,545,o),
(660,518,c),
(713,630,l),
(667,651,o),
(603,676,o),
(511,676,c),
(266,676,o),
(150,514,o),
(112,334,c),
(304,334,l),
(325,434,o),
(370,556,o),
(485,556,cs)
);
},
{
closed = 1;
nodes = (
(34,290,l),
(450,290,l),
(475,410,l),
(59,410,l)
);
}
);
width = 632;
}
);
metricRight = "=C";
unicode = 163;
userData = {
KernOnSpecialSpacing = {
L = symbols;
R = symbols;
};
};
}
{
glyphname = currency;
layers = (
{
layerId = m003;
shapes = (
{
closed = 1;
nodes = (
(378,153,o),
(476,233,o),
(498,333,cs),
(519,433,o),
(455,513,o),
(356,513,cs),
(257,513,o),
(159,433,o),
(138,333,cs),
(116,233,o),
(180,153,o),
(279,153,cs)
);
},
{
closed = 1;
nodes = (
(226,213,o),
(183,266,o),
(198,333,cs),
(212,400,o),
(277,453,o),
(343,453,cs),
(409,453,o),
(452,400,o),
(438,333,cs),
(423,266,o),
(358,213,o),
(292,213,cs)
);
},
{
closed = 1;
nodes = (
(262,457,l),
(176,566,l),
(125,524,l),
(210,415,l)
);
},
{
closed = 1;
nodes = (
(370,212,l),
(459,100,l),
(510,142,l),
(422,255,l)
);
},
{
closed = 1;
nodes = (
(459,415,l),
(591,524,l),
(558,566,l),
(426,457,l)
);
},
{
closed = 1;
nodes = (
(180,255,l),
(44,142,l),
(77,100,l),
(214,212,l)
);
}
);
width = 600;
},
{
layerId = m004;
shapes = (
{
closed = 1;
nodes = (
(385,133,o),
(494,222,o),
(518,333,cs),
(541,444,o),
(470,533,o),
(360,533,cs),
(250,533,o),
(141,444,o),
(118,333,cs),
(94,222,o),
(165,133,o),
(275,133,cs)
);
},
{
closed = 1;
nodes = (
(241,233,o),
(206,277,o),
(218,333,cs),
(230,389,o),
(284,433,o),
(339,433,cs),
(394,433,o),
(430,389,o),
(418,333,cs),
(406,277,o),
(351,233,o),
(296,233,cs)
);
},
{
closed = 1;
nodes = (
(290,457,l),
(182,594,l),
(97,524,l),
(204,387,l)
);
},
{
closed = 1;
nodes = (
(342,212,l),
(453,72,l),
(538,142,l),
(428,283,l)
);
},
{
closed = 1;
nodes = (
(453,387,l),
(619,524,l),
(564,594,l),
(398,457,l)
);
},
{
closed = 1;
nodes = (
(186,283,l),
(16,142,l),
(71,72,l),
(242,212,l)
);
}
);
width = 600;
}
);
unicode = 164;
}
{
glyphname = yen;
layers = (
{
layerId = m003;
shapes = (
{
ref = Y;
},
{
closed = 1;
nodes = (
(81,270,l),
(441,270,l),
(454,330,l),
(94,330,l)
);
},
{
closed = 1;
nodes = (
(56,150,l),
(416,150,l),
(429,210,l),
(69,210,l)
);
}
);
width = 508;
},
{
layerId = m004;
shapes = (
{
ref = Y;
},
{
closed = 1;
nodes = (
(96,260,l),
(496,260,l),
(518,360,l),
(118,360,l)
);
},
{
closed = 1;
nodes = (
(67,120,l),
(467,120,l),
(488,220,l),
(88,220,l)
);
}
);
width = 588;
}
);
unicode = 165;
userData = {
KernOnSpecialSpacing = {
L = symbols;
R = symbols;
};
};
}
{
glyphname = brokenbar;
layers = (
{
layerId = m003;
shapes = (
{
closed = 1;
nodes = (
(240,350,l),
(316,700,l),
(261,700,l),
(185,350,l)
);
},
{
closed = 1;
nodes = (
(159,225,l),
(84,-125,l),
(139,-125,l),
(214,225,l)
);
}
);
width = 400;
},
{
layerId = m004;
shapes = (
{
closed = 1;
nodes = (
(270,350,l),
(346,700,l),
(231,700,l),
(155,350,l)
);
},
{
closed = 1;
nodes = (
(129,225,l),
(54,-125,l),
(169,-125,l),
(244,225,l)
);
}
);
width = 400;
}
);
unicode = 166;
}
{
glyphname = section;
layers = (
{
layerId = m003;
shapes = (
{
closed = 1;
nodes = (
(342,-8,o),
(414,41,o),
(429,113,cs),
(447,197,o),
(401,243,o),
(275,258,c),
(263,200,l),
(347,188,o),
(379,159,o),
(369,113,cs),
(361,72,o),
(314,47,o),
(230,47,c),
(219,-8,l)
);
},
{
closed = 1;
nodes = (
(232,466,o),
(154,416,o),
(137,339,cs),
(121,262,o),
(170,214,o),
(263,200,c),
(275,258,l),
(215,266,o),
(188,295,o),
(197,339,cs),
(207,383,o),
(260,431,o),
(312,431,c),
(319,466,l)
);
},
{
closed = 1;
nodes = (
(93,32,o),
(145,-8,o),
(219,-8,c),
(230,47,l),
(167,47,o),
(132,79,o),
(110,99,c),
(66,55,l)
);
},
{
closed = 1;
nodes = (
(386,200,o),
(458,249,o),
(477,336,cs),
(494,417,o),
(446,453,o),
(320,468,c),
(307,410,l),
(392,398,o),
(425,374,o),
(417,336,cs),
(405,280,o),
(354,235,o),
(270,235,c),
(263,200,l)
);
},
{
closed = 1;
nodes = (
(276,674,o),
(196,614,o),
(180,542,cs),
(163,462,o),
(214,424,o),
(307,410,c),
(320,468,l),
(259,476,o),
(230,495,o),
(240,542,cs),
(249,581,o),
(300,619,o),
(352,619,c),
(363,674,l)
);
},
{
closed = 1;
nodes = (
(516,610,l),
(490,633,o),
(437,674,o),
(363,674,c),
(352,619,l),
(414,619,o),
(449,588,o),
(472,568,c)
);
}
);
width = 600;
},
{
layerId = m004;
shapes = (
{
closed = 1;
nodes = (
(368,-8,o),
(454,45,o),
(473,133,cs),
(495,235,o),
(446,285,o),
(314,300,c),
(238,182,l),
(282,176,o),
(299,162,o),
(295,143,cs),
(291,123,o),
(272,107,o),
(243,107,c),
(218,-8,l)
);
},
{
closed = 1;
nodes = (
(210,468,o),
(112,411,o),
(96,336,cs),
(78,252,o),
(133,193,o),
(238,182,c),
(314,300,l),
(244,304,o),
(232,315,o),
(236,336,cs),
(241,357,o),
(263,393,o),
(293,393,c),
(319,468,l)
);
},
{
closed = 1;
nodes = (
(53,32,o),
(104,-8,o),
(218,-8,c),
(243,107,l),
(180,107,o),
(157,123,o),
(118,139,c),
(25,55,l)
);
},
{
closed = 1;
nodes = (
(408,182,o),
(495,235,o),
(518,343,cs),
(535,425,o),
(487,475,o),
(354,490,c),
(283,392,l),
(367,386,o),
(384,372,o),
(378,343,cs),
(371,313,o),
(348,277,o),
(319,277,c),
(258,182,l)
);
},
{
closed = 1;
nodes = (
(255,678,o),
(157,621,o),
(137,526,cs),
(119,442,o),
(177,403,o),
(283,392,c),
(354,490,l),
(325,494,o),
(312,505,o),
(317,526,cs),
(321,547,o),
(339,563,o),
(369,563,c),
(364,678,l)
);
},
{
closed = 1;
nodes = (
(556,614,l),
(513,653,o),
(439,678,o),
(364,678,c),
(369,563,l),
(407,563,o),
(438,553,o),
(464,532,c)
);
}
);
width = 600;
}
);
unicode = 167;
userData = {
KernOnSpecialSpacing = {
R = symbols;
};
};
}
{
glyphname = copyright;
layers = (
{
layerId = m003;
shapes = (
{
closed = 1;
nodes = (
(387,-8,o),
(528,108,o),
(558,250,cs),
(588,392,o),
(497,508,o),
(355,508,cs),
(213,508,o),
(72,392,o),
(42,250,cs),
(12,108,o),
(103,-8,o),
(245,-8,cs)
);
},
{
closed = 1;
nodes = (
(142,42,o),
(68,136,o),
(92,250,cs),
(116,364,o),
(230,458,o),
(344,458,cs),
(458,458,o),
(532,364,o),
(508,250,cs),
(484,136,o),
(370,42,o),
(256,42,cs)
);
},
{
closed = 1;
nodes = (
(329,111,o),
(372,143,o),
(385,151,c),
(364,189,l),
(349,180,o),
(325,159,o),
(291,159,cs),
(242,159,o),
(237,200,o),
(248,250,cs),
(259,300,o),
(281,342,o),
(329,342,cs),
(362,342,o),
(377,322,o),
(390,313,c),
(427,348,l),
(421,356,o),
(389,389,o),
(339,389,cs),
(260,389,o),
(211,318,o),
(197,250,cs),
(183,183,o),
(201,112,o),
(279,111,c)
);
}
);
width = 600;
},
{
layerId = m004;
shapes = (
{
closed = 1;
nodes = (
(387,-8,o),
(528,108,o),
(558,250,cs),
(588,392,o),
(497,508,o),
(355,508,cs),
(213,508,o),
(72,392,o),
(42,250,cs),
(12,108,o),
(103,-8,o),
(245,-8,cs)
);
},
{
closed = 1;
nodes = (
(157,62,o),
(90,147,o),
(112,250,cs),
(134,353,o),
(237,438,o),
(340,438,cs),
(443,438,o),
(510,353,o),
(488,250,cs),
(466,147,o),
(363,62,o),
(260,62,cs)
);
},
{
closed = 1;
nodes = (
(354,111,o),
(388,142,o),
(402,151,c),
(377,208,l),
(357,196,o),
(328,189,o),
(300,189,cs),
(278,189,o),
(286,228,o),
(291,250,cs),
(296,272,o),
(304,311,o),
(326,311,cs),
(354,311,o),
(379,304,o),
(395,291,c),
(445,351,l),
(434,360,o),
(416,389,o),
(343,389,cs),
(243,389,o),
(194,318,o),
(180,250,cs),
(166,183,o),
(183,111,o),
(283,111,c)
);
}
);
width = 600;
}
);
unicode = 169;
userData = {
KernOnSpecialSpacing = {
R = symbols;
};
};
}
{
glyphname = ordfeminine;
layers = (
{
layerId = m003;
shapes = (
{
closed = 1;
nodes = (
(179,493,o),
(196,502,o),
(209,512,c),
(214,496,l),
(232,496,l),
(254,601,ls),
(264,647,o),
(252,675,o),
(200,675,cs),
(175,675,o),
(148,663,o),
(133,653,c),
(144,631,l),
(155,638,o),
(171,646,o),
(194,646,cs),
(226,646,o),
(231,636,o),
(226,607,c),
(223,607,ls),
(153,607,o),
(117,591,o),
(109,552,cs),
(102,518,o),
(119,493,o),
(163,493,cs)
);
},
{
closed = 1;
nodes = (
(143,571,o),
(164,579,o),
(220,579,c),
(212,543,l),
(201,532,o),
(184,521,o),
(169,521,cs),
(143,521,o),
(135,533,o),
(139,552,cs)
);
}
);
width = 225;
},
{
layerId = m004;
shapes = (
{
closed = 1;
nodes = (
(139,493,o),
(155,502,o),
(170,513,c),
(174,496,l),
(227,496,l),
(249,602,ls),
(259,649,o),
(243,675,o),
(190,675,cs),
(151,675,o),
(102,656,o),
(102,656,c),
(108,620,l),
(116,624,o),
(148,634,o),
(171,634,cs),
(190,634,o),
(192,626,o),
(187,603,c),
(178,603,ls),
(121,603,o),
(87,587,o),
(79,550,cs),
(72,517,o),
(88,493,o),
(125,493,cs)
);
},
{
closed = 1;
nodes = (
(145,564,o),
(153,573,o),
(180,573,c),
(173,539,l),
(165,536,o),
(158,533,o),
(155,533,cs),
(145,533,o),
(140,539,o),
(142,550,cs)
);
}
);
width = 190;
}
);
metricLeft = "=a";
metricRight = "=|";
unicode = 170;
userData = {
KernOnSpecialSpacing = {
L = superiors;
R = superiors;
};
};
}
{
glyphname = guillemotleft;
kernLeft = KO_guillemotleft;
kernRight = KO_guillemotleft;
layers = (
{
layerId = m003;
shapes = (
{
closed = 1;
nodes = (
(395,99,l),
(304,250,l),
(459,401,l),
(434,430,l),
(237,250,l),
(358,70,l)
);
},
{
closed = 1;
nodes = (
(229,99,l),
(140,250,l),
(293,401,l),
(268,430,l),
(72,250,l),
(192,70,l)
);
}
);
width = 499;
},
{
layerId = m004;
shapes = (
{
closed = 1;
nodes = (
(578,50,l),
(472,250,l),
(664,450,l),
(603,500,l),
(302,250,l),
(497,0,l)
);
},
{
closed = 1;
nodes = (
(348,50,l),
(242,250,l),
(434,450,l),
(373,500,l),
(72,250,l),
(267,0,l)
);
}
);
width = 693;
}
);
metricRight = "=|";
note = guillemotleft;
unicode = 171;
userData = {
KernOnSpecialSpacing = {
L = quotes;
R = quotes;
};
};
}
{
glyphname = logicalnot;
kernLeft = KO_plus;
kernRight = KO_logicalnot;
layers = (
{
layerId = m003;
shapes = (
{
closed = 1;
nodes = (
(105,320,l),
(525,320,l),
(538,380,l),
(118,380,l)
);
},
{
closed = 1;
nodes = (
(493,170,l),
(538,380,l),
(478,380,l),
(433,170,l)
);
}
);
width = 600;
},
{
layerId = m004;
shapes = (
{
closed = 1;
nodes = (
(56,280,l),
(556,280,l),
(584,410,l),
(84,410,l)
);
},
{
closed = 1;
nodes = (
(531,160,l),
(584,410,l),
(454,410,l),
(401,160,l)
);
}
);
width = 600;
}
);
metricRight = "=|";
unicode = 172;
}
{
glyphname = registered;
kernLeft = KO_registered;
layers = (
{
layerId = m003;
shapes = (
{
closed = 1;
nodes = (
(419,375,o),
(510,450,o),
(529,541,cs),
(549,633,o),
(490,708,o),
(398,708,cs),
(306,708,o),
(216,633,o),
(196,541,cs),
(177,450,o),
(235,375,o),
(327,375,cs)
);
},
{
closed = 1;
nodes = (
(260,407,o),
(213,468,o),
(228,541,cs),
(244,615,o),
(317,676,o),
(391,676,cs),
(465,676,o),
(512,615,o),
(496,541,cs),
(481,468,o),
(408,407,o),
(334,407,cs)
);
},
{
closed = 1;
nodes = (
(321,453,l),
(336,523,l),
(356,523,l),
(377,453,l),
(413,453,l),
(389,528,l),
(412,537,o),
(430,556,o),
(435,580,cs),
(442,613,o),
(420,638,o),
(383,638,cs),
(359,638,o),
(336,635,o),
(327,633,c),
(290,453,l)
);
},
{
closed = 1;
nodes = (
(356,553,o),
(348,554,o),
(342,554,c),
(354,606,l),
(359,606,o),
(367,607,o),
(376,607,cs),
(397,607,o),
(405,598,o),
(401,580,cs),
(397,561,o),
(386,554,o),
(365,553,cs)
);
}
);
width = 600;
},
{
layerId = m004;
shapes = (
{
closed = 1;
nodes = (
(425,355,o),
(527,439,o),
(549,541,cs),
(571,644,o),
(505,728,o),
(402,728,cs),
(299,728,o),
(198,644,o),
(176,541,cs),
(154,439,o),
(219,355,o),
(322,355,cs)
);
},
{
closed = 1;
nodes = (
(259,407,o),
(212,468,o),
(228,541,cs),
(244,615,o),
(317,676,o),
(391,676,cs),
(465,676,o),
(512,615,o),
(496,541,cs),
(480,468,o),
(407,407,o),
(333,407,cs)
);
},
{
closed = 1;
nodes = (
(330,452,l),
(344,516,l),
(353,516,l),
(360,452,l),
(419,452,l),
(396,523,l),
(418,532,o),
(433,550,o),
(438,573,cs),
(445,609,o),
(424,631,o),
(379,631,cs),
(358,631,o),
(332,630,o),
(317,629,c),
(279,452,l)
);
},
{
closed = 1;
nodes = (
(355,550,o),
(351,551,o),
(351,551,c),
(360,595,l),
(360,595,o),
(365,596,o),
(372,596,cs),
(383,596,o),
(388,587,o),
(384,572,cs),
(382,559,o),
(373,550,o),
(362,550,cs)
);
}
);
width = 600;
}
);
unicode = 174;
userData = {
KernOnSpecialSpacing = {
L = superiors;
};
};
}
{
glyphname = degree;
kernLeft = KO_degree;
kernRight = KO_degree;
layers = (
{
layerId = m003;
shapes = (
{
closed = 1;
nodes = (
(410,334,o),
(500,408,o),
(520,501,cs),
(540,593,o),
(480,667,o),
(389,667,cs),
(296,667,o),
(207,593,o),
(187,501,cs),
(167,408,o),
(226,334,o),
(319,334,cs)
);
},
{
closed = 1;
nodes = (
(264,384,o),
(223,436,o),
(237,501,cs),
(251,565,o),
(314,617,o),
(379,617,cs),
(443,617,o),
(484,565,o),
(470,501,cs),
(456,436,o),
(393,384,o),
(329,384,cs)
);
}
);
width = 600;
},
{
layerId = m004;
shapes = (
{
closed = 1;
nodes = (
(410,334,o),
(500,408,o),
(520,501,cs),
(540,593,o),
(480,667,o),
(389,667,cs),
(296,667,o),
(207,593,o),
(187,501,cs),
(167,408,o),
(226,334,o),
(319,334,cs)
);
},
{
closed = 1;
nodes = (
(295,424,o),
(268,458,o),
(277,501,cs),
(286,543,o),
(327,577,o),
(370,577,cs),
(412,577,o),
(439,543,o),
(430,501,cs),
(421,458,o),
(380,424,o),
(338,424,cs)
);
}
);
width = 507;
}
);
unicode = 176;
userData = {
KernOnSpecialSpacing = {
L = superiors;
R = superiors;
};
};
}
{
glyphname = plusminus;
layers = (
{
layerId = m003;
shapes = (
{
closed = 1;
nodes = (
(118,380,l),
(537,380,l),
(550,440,l),
(131,440,l)
);
},
{
closed = 1;
nodes = (
(341,580,l),
(269,240,l),
(329,240,l),
(401,580,l)
);
},
{
closed = 1;
nodes = (
(63,120,l),
(482,120,l),
(495,180,l),
(76,180,l)
);
}
);
width = 600;
},
{
layerId = m004;
shapes = (
{
closed = 1;
nodes = (
(56,380,l),
(556,380,l),
(582,500,l),
(82,500,l)
);
},
{
closed = 1;
nodes = (
(300,630,l),
(219,250,l),
(339,250,l),
(420,630,l)
);
},
{
closed = 1;
nodes = (
(-10,70,l),
(490,70,l),
(516,190,l),
(16,190,l)
);
}
);
width = 557;
}
);
metricRight = "=|";
unicode = 177;
userData = {
KernOnSpecialSpacing = {
L = math;
R = math;
};
};
}
{
glyphname = micro;
layers = (
{
anchors = (
{
name = bottom;
pos = (141,0);
},
{
name = ogonek;
pos = (347,10);
},
{
name = top;
pos = (247,500);
},
{
name = topright;
pos = (482,500);
}
);
layerId = m003;
shapes = (
{
closed = 1;
nodes = (
(5,198,l),
(-20,66,o),
(24,-8,o),
(136,-8,c),
(148,47,l),
(68,47,o),
(42,93,o),
(75,250,c),
(15,250,l)
);
},
{
closed = 1;
nodes = (
(433,500,l),
(373,500,l),
(280,60,l),
(357,140,l)
);
},
{
closed = 1;
nodes = (
(128,500,l),
(68,500,l),
(15,250,l),
(75,250,l)
);
},
{
closed = 1;
nodes = (
(297,0,l),
(327,0,l),
(357,140,l),
(280,60,l)
);
},
{
closed = 1;
nodes = (
(327,150,o),
(239,47,o),
(147,47,c),
(135,-8,l),
(246,-8,o),
(357,140,o),
(357,140,c),
(327,150,l)
);
},
{
closed = 1;
nodes = (
(-81,-200,l),
(-21,-200,l),
(75,250,l),
(15,250,l)
);
}
);
width = 449;
},
{
anchors = (
{
name = bottom;
pos = (184,0);
},
{
name = ogonek;
pos = (392,10);
},
{
name = top;
pos = (290,500);
},
{
name = topright;
pos = (527,500);
}
);
layerId = m004;
shapes = (
{
closed = 1;
nodes = (
(4,198,ls),
(-21,66,o),
(23,-8,o),
(115,-8,c),
(200,107,l),
(160,107,o),
(173,153,o),
(194,250,c),
(14,250,l)
);
},
{
closed = 1;
nodes = (
(512,500,l),
(332,500,l),
(239,60,l),
(436,140,l)
);
},
{
closed = 1;
nodes = (
(247,500,l),
(67,500,l),
(14,250,l),
(194,250,l)
);
},
{
closed = 1;
nodes = (
(256,0,l),
(406,0,l),
(436,140,l),
(239,60,l)
);
},
{
closed = 1;
nodes = (
(368,150,o),
(251,107,o),
(199,107,c),
(114,-8,l),
(225,-8,o),
(368,150,o),
(368,150,c),
(368,150,l)
);
},
{
closed = 1;
nodes = (
(-82,-200,l),
(98,-200,l),
(194,250,l),
(14,250,l)
);
}
);
width = 494;
}
);
metricLeft = "=n";
unicode = 181;
}
{
glyphname = paragraph;
layers = (
{
layerId = m003;
shapes = (
{
closed = 1;
nodes = (
(364,667,l),
(222,0,l),
(282,0,l),
(424,667,l)
);
},
{
closed = 1;
nodes = (
(485,667,l),
(342,0,l),
(401,0,l),
(544,667,l)
);
},
{
closed = 1;
nodes = (
(365,667,l),
(273,667,o),
(182,592,o),
(163,501,cs),
(143,409,o),
(202,334,o),
(294,334,c)
);
}
);
width = 600;
},
{
layerId = m004;
shapes = (
{
closed = 1;
nodes = (
(304,667,l),
(162,0,l),
(282,0,l),
(424,667,l)
);
},
{
closed = 1;
nodes = (
(486,667,l),
(342,0,l),
(460,0,l),
(604,667,l)
);
},
{
closed = 1;
nodes = (
(305,667,l),
(213,667,o),
(122,592,o),
(103,501,cs),
(83,409,o),
(142,334,o),
(234,334,c)
);
}
);
width = 600;
}
);
unicode = 182;
userData = {
KernOnSpecialSpacing = {
L = NoKerning;
R = NoKerning;
};
};
}
{
glyphname = periodcentered;
layers = (
{
layerId = m003;
shapes = (
{
closed = 1;
nodes = (
(140,205,o),
(165,225,o),
(170,250,cs),
(175,275,o),
(160,295,o),
(135,295,cs),
(110,295,o),
(85,275,o),
(80,250,cs),
(75,225,o),
(90,205,o),
(115,205,cs)
);
}
);
width = 250;
},
{
layerId = m004;
shapes = (
{
closed = 1;
nodes = (
(284,150,o),
(338,194,o),
(350,250,cs),
(362,305,o),
(326,350,o),
(271,350,cs),
(215,350,o),
(162,305,o),
(150,250,cs),
(138,194,o),
(173,150,o),
(229,150,cs)
);
}
);
width = 500;
}
);
metricRight = "=|";
note = periodcentered;
unicode = (183,8729);
userData = {
KernOnSpecialSpacing = {
L = NoKerning;
R = NoKerning;
};
};
}
{
glyphname = ordmasculine;
kernLeft = KO_ordmasculine;
layers = (
{
layerId = m003;
shapes = (
{
closed = 1;
nodes = (
(91,540,o),
(101,493,o),
(154,493,cs),
(207,493,o),
(237,540,o),
(247,584,cs),
(256,628,o),
(246,675,o),
(193,675,cs),
(140,675,o),
(110,628,o),
(101,584,cs)
);
},
{
closed = 1;
nodes = (
(138,618,o),
(154,646,o),
(187,646,cs),
(220,646,o),
(224,618,o),
(217,584,cs),
(209,550,o),
(193,521,o),
(160,521,cs),
(127,521,o),
(123,550,o),
(131,584,cs)
);
}
);
width = 206;
},
{
layerId = m004;
shapes = (
{
closed = 1;
nodes = (
(76,539,o),
(86,493,o),
(152,493,cs),
(218,493,o),
(248,539,o),
(258,584,cs),
(267,630,o),
(257,675,o),
(191,675,cs),
(125,675,o),
(95,630,o),
(86,584,cs)
);
},
{
closed = 1;
nodes = (
(153,600,o),
(160,634,o),
(182,634,cs),
(204,634,o),
(197,600,o),
(194,584,cs),
(190,568,o),
(183,534,o),
(161,534,cs),
(139,534,o),
(146,568,o),
(150,584,cs)
);
}
);
width = 202;
}
);
metricLeft = "=o";
metricRight = "=|";
unicode = 186;
userData = {
KernOnSpecialSpacing = {
L = superiors;
R = superiors;
};
};
}
{
glyphname = guillemotright;
kernLeft = KO_guillemotright;
kernRight = KO_guillemotright;
layers = (
{
layerId = m004;
shapes = (
{
closed = 1;
nodes = (
(391,250,l),
(196,500,l),
(115,450,l),
(221,250,l),
(29,50,l),
(90,0,l)
);
},
{
closed = 1;
nodes = (
(621,250,l),
(426,500,l),
(345,450,l),
(451,250,l),
(259,50,l),
(320,0,l)
);
}
);
width = 693;
},
{
layerId = m003;
shapes = (
{
closed = 1;
nodes = (
(262,250,l),
(141,430,l),
(104,401,l),
(195,250,l),
(39,97,l),
(65,69,l)
);
},
{
closed = 1;
nodes = (
(427,250,l),
(307,430,l),
(270,401,l),
(359,250,l),
(205,97,l),
(231,69,l)
);
}
);
width = 499;
}
);
metricRight = "=|";
note = guillemotright;
unicode = 187;
userData = {
KernOnSpecialSpacing = {
L = quotes;
R = quotes;
};
};
}
{
glyphname = questiondown;
kernRight = KO_questiondown;
layers = (
{
layerId = m003;
shapes = (
{
closed = 1;
nodes = (
(257,508,o),
(233,488,o),
(228,463,cs),
(222,438,o),
(238,418,o),
(263,418,cs),
(288,418,o),
(312,438,o),
(318,463,cs),
(323,488,o),
(307,508,o),
(282,508,cs)
);
},
{
closed = 1;
nodes = (
(122,-153,l),
(28,-153,o),
(11,-107,o),
(23,-52,cs),
(46,57,o),
(213,42,o),
(245,190,c),
(185,190,l),
(160,75,o),
(-9,90,o),
(-39,-52,c),
(-56,-134,o),
(-16,-208,o),
(110,-208,c)
);
},
{
closed = 1;
nodes = (
(233,-121,o),
(185,-153,o),
(122,-153,c),
(110,-208,l),
(184,-208,o),
(252,-168,o),
(289,-145,c),
(264,-101,l)
);
},
{
closed = 1;
nodes = (
(272,320,l),
(212,320,l),
(185,190,l),
(245,190,l)
);
}
);
width = 418;
},
{
layerId = m004;
shapes = (
{
closed = 1;
nodes = (
(276,508,o),
(223,464,o),
(211,408,cs),
(199,352,o),
(234,308,o),
(290,308,cs),
(346,308,o),
(399,352,o),
(411,408,cs),
(423,464,o),
(388,508,o),
(332,508,cs)
);
},
{
closed = 1;
nodes = (
(185,-88,l),
(125,-88,o),
(122,-57,o),
(127,-32,c),
(145,50,o),
(314,-1,o),
(355,190,c),
(175,190,l),
(157,108,o),
(-14,159,o),
(-55,-32,cs),
(-72,-114,o),
(-26,-208,o),
(160,-208,c)
);
},
{
closed = 1;
nodes = (
(278,-72,o),
(245,-88,o),
(185,-88,c),
(160,-208,l),
(274,-208,o),
(346,-153,o),
(384,-125,c),
(327,-36,l)
);
},
{
closed = 1;
nodes = (
(367,250,l),
(187,250,l),
(175,190,l),
(355,190,l)
);
}
);
width = 479;
}
);
note = questiondown;
unicode = 191;
userData = {
KernOnSpecialSpacing = {
R = "spaced-off";
};
};
}
{
glyphname = AE;
layers = (
{
anchors = (
{
name = bottom;
pos = (368,0);
},
{
name = top;
pos = (510,667);
}
);
layerId = m003;
shapes = (
{
closed = 1;
nodes = (
(529,628,l),
(383,0,l),
(455,0,l),
(597,667,l),
(521,667,l),
(-53,0,l),
(29,0,l),
(559,628,l)
);
},
{
closed = 1;
nodes = (
(130,158,l),
(442,158,l),
(473,218,l),
(161,218,l)
);
},
{
closed = 1;
nodes = (
(383,0,l),
(762,0,l),
(775,60,l),
(459,60,l),
(514,320,l),
(781,320,l),
(794,380,l),
(527,380,l),
(575,607,l),
(892,607,l),
(905,667,l),
(525,667,l)
);
}
);
width = 857;
},
{
anchors = (
{
name = bottom;
pos = (470,0);
},
{
name = top;
pos = (612,667);
}
);
layerId = m004;
shapes = (
{
closed = 1;
nodes = (
(528,667,l),
(369,0,l),
(526,0,l),
(668,667,l),
(488,667,l),
(-54,0,l),
(133,0,l),
(628,667,l)
);
},
{
closed = 1;
nodes = (
(130,98,l),
(442,98,l),
(503,218,l),
(191,218,l)
);
},
{
closed = 1;
nodes = (
(370,0,l),
(829,0,l),
(859,140,l),
(583,140,l),
(609,265,l),
(836,265,l),
(866,405,l),
(639,405,l),
(665,527,l),
(942,527,l),
(972,667,l),
(512,667,l)
);
}
);
width = 893;
}
);
metricLeft = "=A";
metricRight = "=E";
unicode = 198;
}
{
glyphname = multiply;
kernRight = KO_multiply;
layers = (
{
layerId = m003;
shapes = (
{
closed = 1;
nodes = (
(178,477,l),
(412,180,l),
(464,223,l),
(230,520,l)
);
},
{
closed = 1;
nodes = (
(484,520,l),
(124,223,l),
(158,180,l),
(518,477,l)
);
}
);
width = 600;
},
{
layerId = m004;
shapes = (
{
closed = 1;
nodes = (
(131,484,l),
(409,131,l),
(513,216,l),
(235,569,l)
);
},
{
closed = 1;
nodes = (
(503,569,l),
(75,216,l),
(141,131,l),
(569,484,l)
);
}
);
width = 601;
}
);
metricRight = "=|";
unicode = 215;
userData = {
KernOnSpecialSpacing = {
L = math;
R = math;
};
};
}
{
glyphname = Oslash;
layers = (
{
anchors = (
{
name = bottom;
pos = (279,0);
},
{
name = top;
pos = (414,637);
}
);
layerId = m003;
shapes = (
{
closed = 1;
nodes = (
(482,-10,o),
(599,154,o),
(637,334,cs),
(675,514,o),
(628,676,o),
(423,676,c),
(218,676,o),
(101,514,o),
(63,334,cs),
(25,154,o),
(72,-10,o),
(277,-10,cs)
);
},
{
closed = 1;
nodes = (
(134,50,o),
(101,177,o),
(135,334,cs),
(168,491,o),
(255,616,o),
(410,616,cs),
(565,616,o),
(598,491,o),
(565,334,cs),
(531,177,o),
(444,50,o),
(289,50,cs)
);
},
{
closed = 1;
nodes = (
(-23,15,l),
(14,-23,l),
(722,651,l),
(685,689,l)
);
}
);
width = 665;
},
{
anchors = (
{
name = bottom;
pos = (295,0);
},
{
name = top;
pos = (435,657);
}
);
layerId = m004;
shapes = (
{
closed = 1;
nodes = (
(544,-10,o),
(661,154,o),
(699,334,cs),
(737,514,o),
(690,676,o),
(445,676,cs),
(199,676,o),
(83,514,o),
(45,334,cs),
(7,154,o),
(53,-10,o),
(299,-10,cs)
);
},
{
closed = 1;
nodes = (
(209,110,o),
(216,234,o),
(237,334,cs),
(258,434,o),
(304,556,o),
(419,556,cs),
(534,556,o),
(528,434,o),
(507,334,cs),
(486,234,o),
(439,110,o),
(324,110,cs)
);
},
{
closed = 1;
nodes = (
(-31,35,l),
(45,-42,l),
(754,631,l),
(678,708,l)
);
}
);
width = 695;
}
);
unicode = 216;
}
{
glyphname = Thorn;
kernRight = KO_Thorn;
layers = (
{
layerId = m003;
shapes = (
{
closed = 1;
nodes = (
(412,471,o),
(457,421,o),
(438,332,cs),
(419,245,o),
(354,197,o),
(256,197,cs),
(181,197,o),
(135,200,o),
(135,200,c),
(191,467,l),
(191,467,o),
(239,471,o),
(314,471,cs)
);
},
{
closed = 1;
nodes = (
(29,0,l),
(91,0,l),
(121,140,l),
(121,140,o),
(167,137,o),
(242,137,cs),
(375,137,o),
(485,218,o),
(510,333,cs),
(535,450,o),
(459,531,o),
(327,531,cs),
(222,531,o),
(140,522,o),
(140,522,c)
);
},
{
closed = 1;
nodes = (
(135,500,l),
(197,500,l),
(233,667,l),
(171,667,l)
);
}
);
width = 516;
},
{
layerId = m004;
shapes = (
{
closed = 1;
nodes = (
(353,426,o),
(373,390,o),
(361,332,cs),
(349,277,o),
(314,242,o),
(269,242,cs),
(244,242,o),
(227,245,o),
(227,245,c),
(265,423,l),
(265,423,o),
(283,426,o),
(308,426,cs)
);
},
{
closed = 1;
nodes = (
(-8,0,l),
(174,0,l),
(201,125,l),
(201,125,o),
(217,122,o),
(242,122,cs),
(415,122,o),
(525,201,o),
(553,333,cs),
(581,465,o),
(505,547,o),
(333,547,cs),
(228,547,o),
(106,537,o),
(106,537,c)
);
},
{
closed = 1;
nodes = (
(91,467,l),
(273,467,l),
(316,667,l),
(134,667,l)
);
}
);
width = 600;
}
);
metricLeft = "=P";
metricRight = "=P";
unicode = 222;
}
{
glyphname = germandbls;
kernLeft = KO_germandbls;
kernRight = KO_germandbls;
layers = (
{
layerId = m003;
shapes = (
{
closed = 1;
nodes = (
(246,350,l),
(234,294,o),
(253,246,o),
(327,232,c),
(339,290,l),
(298,298,o),
(301,327,o),
(306,350,c)
);
},
{
closed = 1;
nodes = (
(150,32,o),
(202,-8,o),
(276,-8,c),
(288,47,l),
(225,47,o),
(189,79,o),
(168,99,c),
(123,55,l)
);
},
{
closed = 1;
nodes = (
(32,0,l),
(92,0,l),
(187,450,l),
(127,450,l)
);
},
{
closed = 1;
nodes = (
(360,653,l),
(454,653,o),
(471,607,o),
(459,552,cs),
(444,483,o),
(269,458,o),
(246,350,c),
(306,350,l),
(322,425,o),
(499,450,o),
(521,552,c),
(538,634,o),
(498,708,o),
(372,708,c)
);
},
{
closed = 1;
nodes = (
(187,450,l),
(221,607,o),
(266,653,o),
(360,653,c),
(372,708,l),
(246,708,o),
(170,634,o),
(139,502,cs),
(127,450,l)
);
},
{
closed = 1;
nodes = (
(399,-8,o),
(476,61,o),
(495,153,cs),
(513,239,o),
(465,275,o),
(339,290,c),
(327,232,l),
(411,220,o),
(445,201,o),
(435,153,cs),
(422,92,o),
(372,47,o),
(288,47,c),
(276,-8,l)
);
},
{
pos = (139,502);
ref = _serif.Spur;
},
{
pos = (123,55);
ref = _serif.s.BL;
}
);
width = 546;
},
{
layerId = m004;
shapes = (
{
closed = 1;
nodes = (
(315,350,l),
(297,264,o),
(316,216,o),
(410,202,c),
(485,320,l),
(463,323,o),
(451,331,o),
(455,350,c)
);
},
{
closed = 1;
nodes = (
(260,32,o),
(311,-8,o),
(385,-8,c),
(410,107,l),
(347,107,o),
(311,139,o),
(290,159,c),
(233,55,l)
);
},
{
closed = 1;
nodes = (
(21,0,l),
(201,0,l),
(297,450,l),
(117,450,l)
);
},
{
closed = 1;
nodes = (
(456,588,l),
(516,588,o),
(522,572,o),
(518,552,c),
(505,490,o),
(352,521,o),
(315,350,c),
(455,350,l),
(468,412,o),
(644,381,o),
(680,552,cs),
(698,634,o),
(647,708,o),
(481,708,c)
);
},
{
closed = 1;
nodes = (
(297,450,l),
(322,572,o),
(362,588,o),
(456,588,c),
(481,708,l),
(235,708,o),
(160,634,o),
(129,502,cs),
(117,450,l)
);
},
{
closed = 1;
nodes = (
(535,-8,o),
(621,45,o),
(644,153,cs),
(666,255,o),
(618,305,o),
(485,320,c),
(410,202,l),
(454,196,o),
(471,182,o),
(464,153,cs),
(458,123,o),
(439,107,o),
(410,107,c),
(385,-8,l)
);
},
{
pos = (129,502);
ref = _serif.Spur;
},
{
pos = (233,55);
ref = _serif.s.BL;
}
);
width = 680;
}
);
unicode = 223;
userData = {
KernOnName = germandbls;
};
}
{
glyphname = ae;
kernLeft = KO_ae;
kernRight = KO_ae;
layers = (
{
layerId = m003;
shapes = (
{
closed = 1;
nodes = (
(187,47,l),
(103,47,o),
(71,92,o),
(84,153,cs),
(99,223,o),
(176,250,o),
(361,250,c),
(372,305,l),
(347,305,l),
(145,305,o),
(47,259,o),
(24,153,cs),
(5,61,o),
(52,-8,o),
(175,-8,c)
);
},
{
closed = 1;
nodes = (
(142,423,o),
(196,452,o),
(268,452,c),
(280,508,l),
(189,508,o),
(104,455,o),
(104,455,c),
(122,413,l)
);
},
{
closed = 1;
nodes = (
(431,302,ls),
(459,434,o),
(426,508,o),
(280,508,c),
(268,452,l),
(378,452,o),
(393,407,o),
(372,305,c),
(420,250,l)
);
},
{
closed = 1;
nodes = (
(369,160,o),
(279,47,o),
(187,47,c),
(175,-8,l),
(298,-8,o),
(393,121,o),
(393,121,cs),
(369,160,l)
);
},
{
closed = 1;
nodes = (
(420,250,l),
(372,305,l),
(326,90,l),
(393,125,l)
);
},
{
pos = (330,0);
ref = e;
}
);
width = 780;
},
{
layerId = m004;
shapes = (
{
closed = 1;
nodes = (
(210,107,l),
(185,107,o),
(168,122,o),
(174,153,cs),
(183,193,o),
(209,220,o),
(284,220,c),
(302,305,l),
(277,305,l),
(115,305,o),
(17,259,o),
(-6,153,cs),
(-25,61,o),
(22,-8,o),
(125,-8,c)
);
},
{
closed = 1;
nodes = (
(99,363,o),
(193,392,o),
(255,392,c),
(310,508,l),
(199,508,o),
(59,455,o),
(59,455,c),
(79,353,l)
);
},
{
closed = 1;
nodes = (
(481,302,ls),
(509,434,o),
(462,508,o),
(310,508,c),
(255,392,l),
(311,392,o),
(316,370,o),
(302,305,c),
(464,220,l)
);
},
{
closed = 1;
nodes = (
(385,180,o),
(245,107,o),
(210,107,c),
(125,-8,l),
(236,-8,o),
(373,121,o),
(373,121,c),
(385,180,l)
);
},
{
closed = 1;
nodes = (
(464,220,l),
(302,305,l),
(256,90,l),
(443,125,l)
);
},
{
pos = (284,0);
ref = e;
}
);
width = 769;
}
);
metricLeft = "=a";
metricRight = "=e";
unicode = 230;
}
{
glyphname = eth;
kernLeft = KO_eth;
layers = (
{
layerId = m003;
shapes = (
{
closed = 1;
nodes = (
(499,407,o),
(520,674,o),
(223,677,c),
(212,626,l),
(342,622,o),
(445,566,o),
(422,317,c),
(401,392,o),
(327,403,o),
(288,403,cs),
(138,403,o),
(54,291,o),
(34,197,cs),
(14,103,o),
(50,-10,o),
(200,-10,cs),
(350,-10,o),
(434,103,o),
(465,248,cs)
);
},
{
closed = 1;
nodes = (
(373,132,o),
(322,45,o),
(212,45,cs),
(102,45,o),
(87,132,o),
(101,197,cs),
(115,262,o),
(166,348,o),
(276,348,cs),
(386,348,o),
(401,262,o),
(387,197,cs)
);
},
{
closed = 1;
nodes = (
(278,500,l),
(312,458,l),
(527,634,l),
(493,677,l)
);
}
);
width = 510;
},
{
layerId = m004;
shapes = (
{
closed = 1;
nodes = (
(596,407,o),
(674,674,o),
(298,677,c),
(246,556,l),
(409,556,o),
(425,481,o),
(412,402,c),
(412,402,o),
(397,433,o),
(337,433,cs),
(187,433,o),
(64,331,o),
(13,212,cs),
(-38,93,o),
(-1,-10,o),
(169,-10,cs),
(339,-10,o),
(467,103,o),
(528,248,cs)
);
},
{
closed = 1;
nodes = (
(316,177,o),
(280,105,o),
(217,105,cs),
(154,105,o),
(180,177,o),
(195,212,c),
(210,247,o),
(245,318,o),
(308,318,cs),
(371,318,o),
(346,247,o),
(331,212,cs)
);
},
{
closed = 1;
nodes = (
(289,497,l),
(344,449,l),
(569,657,l),
(513,707,l)
);
}
);
width = 561;
}
);
unicode = 240;
}
{
glyphname = divide;
kernLeft = KO_plus;
kernRight = KO_plus;
layers = (
{
layerId = m003;
shapes = (
{
closed = 1;
nodes = (
(106,320,l),
(525,320,l),
(537,380,l),
(118,380,l)
);
},
{
closed = 1;
nodes = (
(376,488,o),
(401,508,o),
(406,533,cs),
(411,558,o),
(395,578,o),
(370,578,cs),
(345,578,o),
(321,558,o),
(316,533,cs),
(311,508,o),
(326,488,o),
(351,488,cs)
);
},
{
closed = 1;
nodes = (
(299,122,o),
(323,142,o),
(328,167,cs),
(333,192,o),
(318,212,o),
(293,212,cs),
(268,212,o),
(243,192,o),
(238,167,cs),
(233,142,o),
(249,122,o),
(274,122,cs)
);
}
);
width = 600;
},
{
layerId = m004;
shapes = (
{
closed = 1;
nodes = (
(59,290,l),
(559,290,l),
(584,410,l),
(84,410,l)
);
},
{
closed = 1;
nodes = (
(397,448,o),
(451,492,o),
(463,548,cs),
(475,603,o),
(440,648,o),
(385,648,cs),
(329,648,o),
(275,603,o),
(263,548,cs),
(251,492,o),
(286,448,o),
(342,448,cs)
);
},
{
closed = 1;
nodes = (
(313,52,o),
(367,97,o),
(379,152,cs),
(391,207,o),
(355,252,o),
(300,252,cs),
(245,252,o),
(191,207,o),
(179,152,c),
(167,97,o),
(203,52,o),
(258,52,cs)
);
}
);
width = 600;
}
);
metricRight = "=|";
unicode = 247;
userData = {
KernOnSpecialSpacing = {
L = math;
R = math;
};
};
}
{
glyphname = oslash;
kernLeft = KO_oslash;
layers = (
{
anchors = (
{
name = top;
pos = (326,500);
}
);
layerId = m004;
name = "Black Italic";
shapes = (
{
closed = 1;
nodes = (
(404,-8,o),
(491,121,o),
(518,250,cs),
(545,379,o),
(514,508,o),
(328,508,cs),
(142,508,o),
(55,379,o),
(28,250,cs),
(1,121,o),
(32,-8,o),
(218,-8,cs)
);
},
{
closed = 1;
nodes = (
(182,107,o),
(200,205,o),
(210,250,cs),
(219,294,o),
(242,392,o),
(303,392,cs),
(364,392,o),
(345,294,o),
(336,250,cs),
(326,205,o),
(304,107,o),
(243,107,cs)
);
},
{
closed = 1;
nodes = (
(438,333,l),
(577,465,l),
(501,541,l),
(379,425,l)
);
},
{
closed = 1;
nodes = (
(115,174,l),
(-31,35,l),
(45,-41,l),
(172,79,l)
);
}
);
width = 546;
},
{
anchors = (
{
name = top;
pos = (299,500);
}
);
layerId = m003;
name = "Light Italic";
shapes = (
{
closed = 1;
nodes = (
(337,-8,o),
(424,121,o),
(451,250,cs),
(478,379,o),
(447,508,o),
(301,508,cs),
(155,508,o),
(68,379,o),
(41,250,cs),
(14,121,o),
(45,-8,o),
(191,-8,cs)
);
},
{
closed = 1;
nodes = (
(92,47,o),
(81,145,o),
(103,250,cs),
(125,354,o),
(178,452,o),
(289,452,cs),
(400,452,o),
(411,354,o),
(389,250,cs),
(367,145,o),
(314,47,o),
(203,47,cs)
);
},
{
closed = 1;
nodes = (
(421,379,l),
(507,461,l),
(469,499,l),
(396,429,l)
);
},
{
closed = 1;
nodes = (
(64,114,l),
(-15,39,l),
(23,1,l),
(93,68,l)
);
}
);
width = 492;
}
);
metricLeft = "=o";
metricRight = "=o";
unicode = 248;
}
{
glyphname = thorn;
kernLeft = KO_iacute;
kernRight = KO_p;
layers = (
{
layerId = m003;
shapes = (
{
closed = 1;
nodes = (
(231,700,l),
(171,700,l),
(-21,-200,l),
(39,-200,l)
);
},
{
closed = 1;
nodes = (
(52,140,l),
(52,140,o),
(99,-8,o),
(210,-8,c),
(222,47,l),
(130,47,o),
(86,150,o),
(86,150,c)
);
},
{
closed = 1;
nodes = (
(128,350,o),
(216,452,o),
(308,452,c),
(320,508,l),
(209,508,o),
(98,360,o),
(98,360,c),
(128,350,l)
);
},
{
closed = 1;
nodes = (
(419,452,o),
(430,354,o),
(408,250,cs),
(386,145,o),
(333,47,o),
(222,47,c),
(210,-8,l),
(356,-8,o),
(443,121,o),
(470,250,cs),
(497,379,o),
(466,508,o),
(320,508,c),
(308,452,l)
);
}
);
width = 515;
},
{
layerId = m004;
shapes = (
{
closed = 1;
nodes = (
(311,700,l),
(131,700,l),
(-61,-200,l),
(119,-200,l)
);
},
{
closed = 1;
nodes = (
(88,170,l),
(88,170,o),
(159,-8,o),
(270,-8,c),
(235,107,l),
(200,107,o),
(88,170,o),
(88,170,c)
);
},
{
closed = 1;
nodes = (
(122,330,o),
(260,392,o),
(295,392,c),
(380,508,l),
(269,508,o),
(122,330,o),
(122,330,c),
(122,330,l)
);
},
{
closed = 1;
nodes = (
(356,392,o),
(337,294,o),
(328,250,cs),
(318,205,o),
(296,107,o),
(235,107,c),
(270,-8,l),
(396,-8,o),
(483,121,o),
(510,250,cs),
(537,379,o),
(506,508,o),
(380,508,c),
(295,392,l)
);
}
);
width = 525;
}
);
metricLeft = "=b";
metricRight = "=b";
unicode = 254;
}
{
glyphname = Hbar;
layers = (
{
anchors = (
{
name = bottom;
pos = (238,0);
},
{
name = center;
pos = (309,334);
},
{
name = top;
pos = (374,637);
},
{
name = topleft;
pos = (91,667);
}
);
layerId = m003;
shapes = (
{
closed = 1;
nodes = (
(420,0,l),
(483,0,l),
(625,667,l),
(562,667,l),
(501,380,l),
(173,380,l),
(234,667,l),
(171,667,l),
(29,0,l),
(92,0,l),
(160,320,l),
(488,320,l)
);
},
{
closed = 1;
nodes = (
(670,494,l),
(683,554,l),
(65,554,l),
(52,494,l)
);
}
);
width = 618;
},
{
anchors = (
{
name = bottom;
pos = (236,0);
},
{
name = center;
pos = (307,334);
},
{
name = top;
pos = (376,657);
},
{
name = topleft;
pos = (89,657);
}
);
layerId = m004;
shapes = (
{
closed = 1;
nodes = (
(333,0,l),
(516,0,l),
(658,667,l),
(475,667,l),
(422,420,l),
(264,420,l),
(317,667,l),
(134,667,l),
(-8,0,l),
(175,0,l),
(234,280,l),
(392,280,l)
);
},
{
closed = 1;
nodes = (
(668,484,l),
(693,604,l),
(75,604,l),
(50,484,l)
);
}
);
width = 614;
}
);
unicode = 294;
}
{
glyphname = hbar;
kernRight = KO_eng;
layers = (
{
anchors = (
{
name = bottom;
pos = (206,0);
},
{
name = center;
pos = (280,350);
},
{
name = top;
pos = (348,670);
}
);
layerId = m003;
shapes = (
{
closed = 1;
nodes = (
(440,250,l),
(451,302,ls),
(479,434,o),
(432,508,o),
(320,508,c),
(308,453,l),
(388,453,o),
(413,407,o),
(380,250,c)
);
},
{
closed = 1;
nodes = (
(233,710,l),
(171,700,l),
(22,0,l),
(82,-1,l)
);
},
{
closed = 1;
nodes = (
(387,0,l),
(440,250,l),
(380,250,l),
(327,0,l)
);
},
{
closed = 1;
nodes = (
(128,350,o),
(216,453,o),
(308,453,c),
(320,508,l),
(209,508,o),
(98,360,o),
(98,360,c),
(128,350,l)
);
},
{
closed = 1;
nodes = (
(334,573,l),
(345,628,l),
(85,628,l),
(74,573,l)
);
}
);
width = 515;
},
{
anchors = (
{
name = bottom;
pos = (205,0);
},
{
name = center;
pos = (279,350);
},
{
name = top;
pos = (351,690);
}
);
layerId = m004;
shapes = (
{
closed = 1;
nodes = (
(480,250,l),
(491,302,ls),
(519,434,o),
(472,508,o),
(380,508,c),
(291,373,l),
(326,373,o),
(316,327,o),
(300,250,c)
);
},
{
closed = 1;
nodes = (
(313,710,l),
(129,694,l),
(-18,0,l),
(162,-1,l)
);
},
{
closed = 1;
nodes = (
(427,0,l),
(480,250,l),
(300,250,l),
(247,0,l)
);
},
{
closed = 1;
nodes = (
(122,330,o),
(256,373,o),
(291,373,c),
(380,508,l),
(269,508,o),
(122,330,o),
(122,330,c),
(122,330,l)
);
},
{
closed = 1;
nodes = (
(387,540,l),
(412,660,l),
(52,660,l),
(27,540,l)
);
}
);
width = 515;
}
);
metricRight = "=n";
unicode = 295;
}
{
glyphname = idotless;
kernLeft = KO_idotless;
kernRight = KO_idotaccent;
layers = (
{
anchors = (
{
name = bottom;
pos = (52,0);
},
{
name = ogonek;
pos = (82,0);
},
{
name = top;
pos = (158,500);
}
);
layerId = m003;
shapes = (
{
closed = 1;
nodes = (
(82,0,l),
(188,500,l),
(128,500,l),
(22,0,l)
);
}
);
width = 210;
},
{
anchors = (
{
name = bottom;
pos = (72,0);
},
{
name = ogonek;
pos = (162,0);
},
{
name = top;
pos = (178,500);
}
);
layerId = m004;
shapes = (
{
closed = 1;
nodes = (
(162,0,l),
(268,500,l),
(88,500,l),
(-18,0,l)
);
}
);
width = 250;
}
);
metricRight = "=|";
unicode = 305;
}
{
glyphname = Lslash;
kernRight = KO_A;
layers = (
{
anchors = (
{
name = bottom;
pos = (171,0);
},
{
name = center;
pos = (242,334);
},
{
name = top;
pos = (306,637);
},
{
name = topright;
pos = (509,637);
}
);
layerId = m003;
shapes = (
{
closed = 1;
nodes = (
(234,667,l),
(171,667,l),
(29,0,l),
(92,0,l)
);
},
{
closed = 1;
nodes = (
(379,0,l),
(392,60,l),
(42,60,l),
(29,0,l)
);
},
{
closed = 1;
nodes = (
(5,312,l),
(22,264,l),
(265,389,l),
(247,436,l)
);
}
);
width = 429;
},
{
anchors = (
{
name = bottom;
pos = (185,0);
},
{
name = center;
pos = (256,334);
},
{
name = top;
pos = (325,657);
},
{
name = topright;
pos = (542,657);
}
);
layerId = m004;
shapes = (
{
closed = 1;
nodes = (
(317,667,l),
(134,667,l),
(-8,0,l),
(175,0,l)
);
},
{
closed = 1;
nodes = (
(422,0,l),
(447,120,l),
(17,120,l),
(-8,0,l)
);
},
{
closed = 1;
nodes = (
(-41,310,l),
(-4,205,l),
(357,391,l),
(319,495,l)
);
}
);
width = 475;
}
);
unicode = 321;
}
{
glyphname = lslash;
layers = (
{
anchors = (
{
name = bottom;
pos = (52,0);
},
{
name = center;
pos = (126,350);
},
{
name = top;
pos = (201,700);
},
{
name = topright;
pos = (306,700);
}
);
layerId = m003;
shapes = (
{
closed = 1;
nodes = (
(92,50,o),
(104,105,o),
(124,196,cs),
(233,710,l),
(171,700,l),
(64,196,ls),
(40,87,o),
(22,0,o),
(127,0,c),
(137,50,l)
);
},
{
closed = 1;
nodes = (
(127,0,l),
(151,0,l),
(161,50,l),
(137,50,l)
);
},
{
closed = 1;
nodes = (
(-4,311,l),
(14,264,l),
(257,389,l),
(239,436,l)
);
}
);
width = 230;
},
{
anchors = (
{
name = bottom;
pos = (62,0);
},
{
name = center;
pos = (136,350);
},
{
name = top;
pos = (211,700);
},
{
name = topright;
pos = (351,700);
}
);
layerId = m004;
shapes = (
{
closed = 1;
nodes = (
(175,110,o),
(187,165,o),
(194,196,cs),
(303,710,l),
(121,700,l),
(14,196,ls),
(-10,87,o),
(12,0,o),
(157,0,c),
(220,110,l)
);
},
{
closed = 1;
nodes = (
(157,0,l),
(222,0,l),
(245,110,l),
(220,110,l)
);
},
{
closed = 1;
nodes = (
(-62,310,l),
(-25,205,l),
(336,391,l),
(298,495,l)
);
}
);
width = 301;
}
);
unicode = 322;
}
{
glyphname = Eng;
kernLeft = KO_K.salt;
layers = (
{
anchors = (
{
name = bottom;
pos = (244,0);
},
{
name = top;
pos = (379,637);
}
);
layerId = m003;
shapes = (
{
closed = 1;
nodes = (
(400,0,l),
(483,0,l),
(624,666,l),
(561,666,l),
(440,95,l),
(254,667,l),
(170,666,l),
(29,0,l),
(92,0,l),
(213,572,l)
);
},
{
closed = 1;
nodes = (
(400,0,l),
(419,-83,o),
(355,-153,o),
(275,-153,c),
(264,-208,l),
(376,-208,o),
(454,-134,o),
(482,-2,cs),
(498,70,l)
);
}
);
width = 618;
},
{
anchors = (
{
name = bottom;
pos = (257,0);
},
{
name = top;
pos = (397,657);
}
);
layerId = m004;
shapes = (
{
closed = 1;
nodes = (
(367,0,l),
(522,0,l),
(663,666,l),
(508,666,l),
(432,305,l),
(289,667,l),
(133,666,l),
(-8,0,l),
(147,0,l),
(223,360,l)
);
},
{
closed = 1;
nodes = (
(367,0,l),
(353,-63,o),
(322,-93,o),
(257,-93,c),
(233,-208,l),
(375,-208,o),
(493,-134,o),
(521,-2,cs),
(537,70,l)
);
}
);
width = 620;
}
);
metricLeft = "=H";
metricRight = "=H";
unicode = 330;
}
{
glyphname = eng;
kernLeft = KO_idotless;
kernRight = KO_eng;
layers = (
{
anchors = (
{
name = bottom;
pos = (212,0);
},
{
name = top;
pos = (318,500);
}
);
layerId = m003;
shapes = (
{
closed = 1;
nodes = (
(450,302,ls),
(475,434,o),
(431,508,o),
(319,508,c),
(307,453,l),
(387,453,o),
(413,407,o),
(380,250,c),
(440,250,l)
);
},
{
closed = 1;
nodes = (
(22,0,l),
(82,0,l),
(175,440,l),
(98,360,l)
);
},
{
closed = 1;
nodes = (
(327,0,l),
(387,0,l),
(440,250,l),
(380,250,l)
);
},
{
closed = 1;
nodes = (
(158,500,l),
(128,500,l),
(98,360,l),
(175,440,l)
);
},
{
closed = 1;
nodes = (
(128,350,o),
(216,453,o),
(308,453,c),
(320,508,l),
(209,508,o),
(98,360,o),
(98,360,c),
(128,350,l)
);
},
{
closed = 1;
nodes = (
(340,60,l),
(302,-117,o),
(259,-153,o),
(179,-153,c),
(168,-208,l),
(280,-208,o),
(358,-134,o),
(386,-2,cs),
(387,0,l)
);
}
);
width = 515;
},
{
anchors = (
{
name = bottom;
pos = (205,0);
},
{
name = top;
pos = (311,500);
}
);
layerId = m004;
shapes = (
{
closed = 1;
nodes = (
(491,302,ls),
(519,435,o),
(471,508,o),
(379,508,c),
(290,373,l),
(326,373,o),
(316,327,o),
(300,250,c),
(480,250,l)
);
},
{
closed = 1;
nodes = (
(-18,0,l),
(162,0,l),
(255,440,l),
(58,360,l)
);
},
{
closed = 1;
nodes = (
(247,0,l),
(427,0,l),
(480,250,l),
(300,250,l)
);
},
{
closed = 1;
nodes = (
(238,500,l),
(88,500,l),
(58,360,l),
(255,440,l)
);
},
{
closed = 1;
nodes = (
(122,330,o),
(256,373,o),
(291,373,c),
(380,508,l),
(269,508,o),
(122,330,o),
(122,330,c),
(122,330,l)
);
},
{
closed = 1;
nodes = (
(253,30,l),
(233,-63,o),
(227,-93,o),
(162,-93,c),
(138,-208,l),
(280,-208,o),
(398,-134,o),
(426,-2,cs),
(427,0,l)
);
}
);
width = 515;
}
);
unicode = 331;
}
{
glyphname = OE;
kernLeft = KO_O;
layers = (
{
layerId = m003;
shapes = (
{
closed = 1;
nodes = (
(482,-10,o),
(569,154,o),
(607,334,c),
(645,514,o),
(628,676,o),
(423,676,c),
(218,676,o),
(101,514,o),
(63,334,cs),
(25,154,o),
(72,-10,o),
(277,-10,cs)
);
},
{
closed = 1;
nodes = (
(135,50,o),
(102,177,o),
(135,334,cs),
(169,491,o),
(255,616,o),
(410,616,cs),
(565,616,o),
(599,491,o),
(565,334,cs),
(532,177,o),
(445,50,o),
(290,50,cs)
);
},
{
closed = 1;
nodes = (
(527,155,l),
(494,0,l),
(873,0,l),
(886,60,l),
(570,60,l),
(625,320,l),
(892,320,l),
(905,380,l),
(638,380,l),
(686,607,l),
(1003,607,l),
(1016,667,l),
(636,667,l)
);
}
);
width = 937;
},
{
layerId = m004;
shapes = (
{
closed = 1;
nodes = (
(532,-10,o),
(559,154,o),
(597,334,cs),
(635,514,o),
(678,676,o),
(433,676,cs),
(187,676,o),
(71,514,o),
(33,334,cs),
(-5,154,o),
(41,-10,o),
(287,-10,cs)
);
},
{
closed = 1;
nodes = (
(198,110,o),
(204,234,o),
(225,334,cs),
(246,434,o),
(292,556,o),
(407,556,cs),
(522,556,o),
(516,434,o),
(495,334,cs),
(474,234,o),
(428,110,o),
(313,110,cs)
);
},
{
closed = 1;
nodes = (
(548,342,l),
(375,0,l),
(834,0,l),
(864,140,l),
(588,140,l),
(615,265,l),
(842,265,l),
(871,405,l),
(644,405,l),
(670,527,l),
(947,527,l),
(977,667,l),
(517,667,l)
);
}
);
width = 898;
}
);
metricLeft = "=O";
metricRight = "=E";
unicode = 338;
}
{
glyphname = oe;
kernLeft = KO_a;
kernRight = KO_ae;
layers = (
{
layerId = m003;
shapes = (
{
closed = 1;
nodes = (
(326,-8,o),
(403,121,o),
(430,250,cs),
(457,379,o),
(436,508,o),
(290,508,cs),
(144,508,o),
(57,379,o),
(30,250,cs),
(3,121,o),
(34,-8,o),
(180,-8,cs)
);
},
{
closed = 1;
nodes = (
(81,47,o),
(70,145,o),
(92,250,cs),
(114,354,o),
(167,452,o),
(278,452,cs),
(389,452,o),
(400,354,o),
(378,250,cs),
(356,145,o),
(303,47,o),
(192,47,cs)
);
},
{
closed = 1;
nodes = (
(540,48,l),
(430,48,o),
(416,145,o),
(433,225,c),
(388,250,l),
(361,121,o),
(382,-8,o),
(528,-8,c)
);
},
{
closed = 1;
nodes = (
(619,-8,o),
(704,45,o),
(704,45,c),
(686,87,l),
(686,87,o),
(612,48,o),
(540,48,c),
(528,-8,l)
);
},
{
closed = 1;
nodes = (
(460,354,o),
(515,453,o),
(626,453,c),
(638,508,l),
(492,508,o),
(415,379,o),
(388,250,c),
(433,225,l)
);
},
{
closed = 1;
nodes = (
(758,225,l),
(790,379,o),
(794,508,o),
(638,508,c),
(626,453,l),
(747,453,o),
(723,354,o),
(696,225,c)
);
},
{
closed = 1;
nodes = (
(758,225,l),
(758,275,l),
(427,275,l),
(417,225,l)
);
}
);
width = 808;
},
{
layerId = m004;
shapes = (
{
closed = 1;
nodes = (
(391,-8,o),
(408,121,o),
(435,250,cs),
(462,379,o),
(501,508,o),
(315,508,cs),
(129,508,o),
(42,379,o),
(15,250,cs),
(-12,121,o),
(19,-8,o),
(205,-8,cs)
);
},
{
closed = 1;
nodes = (
(169,107,o),
(187,205,o),
(197,250,cs),
(206,294,o),
(229,392,o),
(290,392,cs),
(351,392,o),
(332,294,o),
(323,250,cs),
(313,205,o),
(291,107,o),
(230,107,cs)
);
},
{
closed = 1;
nodes = (
(538,108,l),
(478,108,o),
(481,145,o),
(491,195,c),
(393,250,l),
(366,121,o),
(331,-8,o),
(483,-8,c)
);
},
{
closed = 1;
nodes = (
(634,-8,o),
(734,45,o),
(734,45,cs),
(714,147,l),
(714,147,o),
(620,108,o),
(538,108,c),
(483,-8,l)
);
},
{
closed = 1;
nodes = (
(517,314,o),
(538,393,o),
(588,393,c),
(623,508,l),
(437,508,o),
(420,379,o),
(393,250,c),
(491,195,l)
);
},
{
closed = 1;
nodes = (
(766,195,l),
(803,369,o),
(809,508,o),
(623,508,c),
(588,393,l),
(638,393,o),
(620,314,o),
(594,195,c)
);
},
{
closed = 1;
nodes = (
(766,195,l),
(780,305,l),
(419,305,l),
(395,195,l)
);
}
);
width = 793;
}
);
metricLeft = "=o";
metricRight = "=e";
unicode = 339;
}
{
glyphname = Schwa;
kernRight = KO_O;
layers = (
{
layerId = m003;
shapes = (
{
closed = 1;
nodes = (
(410,616,l),
(565,616,o),
(599,491,o),
(565,334,cs),
(532,177,o),
(445,50,o),
(290,50,cs),
(135,50,o),
(102,177,o),
(135,334,c),
(63,334,l),
(25,154,o),
(72,-10,o),
(277,-10,cs),
(482,-10,o),
(599,154,o),
(637,334,cs),
(675,514,o),
(628,676,o),
(423,676,c)
);
},
{
closed = 1;
nodes = (
(423,676,l),
(358,676,o),
(297,656,o),
(241,630,c),
(259,578,l),
(309,598,o),
(359,616,o),
(410,616,c)
);
},
{
closed = 1;
nodes = (
(63,334,l),
(91,320,l),
(575,320,l),
(588,380,l),
(73,380,l)
);
}
);
width = 664;
},
{
layerId = m004;
shapes = (
{
closed = 1;
nodes = (
(407,556,l),
(522,556,o),
(516,434,o),
(495,334,cs),
(474,234,o),
(428,110,o),
(313,110,cs),
(198,110,o),
(204,234,o),
(225,334,c),
(33,334,l),
(-5,154,o),
(41,-10,o),
(287,-10,cs),
(532,-10,o),
(649,154,o),
(687,334,cs),
(725,514,o),
(678,676,o),
(433,676,c)
);
},
{
closed = 1;
nodes = (
(433,676,l),
(341,676,o),
(266,651,o),
(211,630,c),
(216,518,l),
(285,545,o),
(338,556,o),
(407,556,c)
);
},
{
closed = 1;
nodes = (
(33,334,l),
(99,280,l),
(558,280,l),
(587,420,l),
(51,420,l)
);
}
);
width = 684;
}
);
metricLeft = "=O";
metricRight = "=O";
unicode = 399;
}
{
glyphname = Ezh;
layers = (
{
anchors = (
{
name = bottom;
pos = (122,-10);
},
{
name = top;
pos = (280,637);
}
);
layerId = m003;
shapes = (
{
closed = 1;
nodes = (
(95,607,l),
(426,607,l),
(452,667,l),
(108,667,l)
);
},
{
closed = 1;
nodes = (
(134,50,l),
(83,50,o),
(41,68,o),
(0,88,c),
(-40,36,l),
(4,10,o),
(57,-10,o),
(122,-10,c)
);
},
{
closed = 1;
nodes = (
(282,-10,o),
(374,77,o),
(399,194,cs),
(422,300,o),
(365,380,o),
(205,380,c),
(138,380,l),
(126,324,l),
(295,324,o),
(348,292,o),
(327,194,cs),
(308,106,o),
(236,50,o),
(134,50,c),
(122,-10,l)
);
},
{
closed = 1;
nodes = (
(451,607,l),
(464,667,l),
(422,667,l),
(138,380,l),
(184,350,l)
);
}
);
width = 414;
},
{
anchors = (
{
name = bottom;
pos = (122,-10);
},
{
name = top;
pos = (309,657);
}
);
layerId = m004;
shapes = (
{
closed = 1;
nodes = (
(84,547,l),
(480,547,l),
(505,667,l),
(109,667,l)
);
},
{
closed = 1;
nodes = (
(148,110,l),
(97,110,o),
(55,128,o),
(13,148,c),
(-40,36,l),
(4,10,o),
(57,-10,o),
(122,-10,c)
);
},
{
closed = 1;
nodes = (
(322,-10,o),
(415,77,o),
(440,194,cs),
(462,300,o),
(412,410,o),
(232,410,c),
(80,410,l),
(55,295,l),
(233,295,o),
(260,252,o),
(248,194,cs),
(235,136,o),
(194,110,o),
(148,110,c),
(122,-10,l)
);
},
{
closed = 1;
nodes = (
(480,547,l),
(500,667,l),
(443,667,l),
(80,410,l),
(226,380,l)
);
}
);
width = 455;
}
);
metricLeft = "=B/2";
metricRight = "=B";
unicode = 439;
}
{
glyphname = gstroke;
layers = (
{
anchors = (
{
name = bottom;
pos = (154,-200);
},
{
name = top;
pos = (288,500);
}
);
layerId = m003;
shapes = (
{
closed = 1;
nodes = (
(325,60,l),
(387,70,l),
(463,430,l),
(405,440,l)
);
},
{
closed = 1;
nodes = (
(325,60,l),
(287,-117,o),
(244,-153,o),
(164,-153,c),
(153,-208,l),
(265,-208,o),
(343,-134,o),
(371,-2,cs),
(387,70,l)
);
},
{
closed = 1;
nodes = (
(463,430,l),
(478,500,l),
(448,500,l),
(405,440,l)
);
},
{
closed = 1;
nodes = (
(372,150,o),
(284,47,o),
(192,47,c),
(180,-8,l),
(291,-8,o),
(402,140,o),
(402,140,c),
(372,150,l)
);
},
{
closed = 1;
nodes = (
(448,360,l),
(448,360,o),
(401,508,o),
(290,508,c),
(278,452,l),
(370,452,o),
(414,350,o),
(414,350,c)
);
},
{
closed = 1;
nodes = (
(290,508,l),
(144,508,o),
(57,379,o),
(30,250,cs),
(3,121,o),
(34,-8,o),
(180,-8,c),
(192,47,l),
(81,47,o),
(70,145,o),
(92,250,cs),
(114,354,o),
(167,452,o),
(278,452,c)
);
},
{
closed = 1;
nodes = (
(-15,-155,l),
(-15,-155,o),
(43,-208,o),
(154,-208,c),
(165,-153,l),
(73,-153,o),
(35,-121,o),
(19,-111,c)
);
},
{
closed = 1;
nodes = (
(426,-97,l),
(438,-42,l),
(188,-42,l),
(176,-97,l)
);
}
);
width = 504;
},
{
anchors = (
{
name = bottom;
pos = (179,-200);
},
{
name = top;
pos = (316,500);
}
);
layerId = m004;
shapes = (
{
closed = 1;
nodes = (
(263,30,l),
(452,70,l),
(528,430,l),
(350,440,l)
);
},
{
closed = 1;
nodes = (
(263,30,l),
(243,-63,o),
(237,-93,o),
(172,-93,c),
(178,-208,l),
(290,-208,o),
(408,-134,o),
(436,-2,cs),
(452,70,l)
);
},
{
closed = 1;
nodes = (
(528,430,l),
(543,500,l),
(393,500,l),
(350,440,l)
);
},
{
closed = 1;
nodes = (
(403,170,o),
(265,107,o),
(230,107,c),
(145,-8,l),
(256,-8,o),
(403,170,o),
(403,170,c),
(403,170,l)
);
},
{
closed = 1;
nodes = (
(437,330,l),
(437,330,o),
(366,508,o),
(255,508,c),
(290,392,l),
(325,392,o),
(437,330,o),
(437,330,c)
);
},
{
closed = 1;
nodes = (
(255,508,l),
(129,508,o),
(42,379,o),
(15,250,cs),
(-12,121,o),
(19,-8,o),
(145,-8,c),
(230,107,l),
(169,107,o),
(187,205,o),
(197,250,cs),
(206,294,o),
(229,392,o),
(290,392,c)
);
},
{
closed = 1;
nodes = (
(-1,-155,l),
(-1,-155,o),
(68,-208,o),
(179,-208,c),
(173,-93,l),
(111,-93,o),
(69,-63,o),
(54,-53,c)
);
},
{
closed = 1;
nodes = (
(455,-67,l),
(466,-12,l),
(190,-12,l),
(179,-67,l)
);
}
);
width = 526;
}
);
metricLeft = "=d";
unicode = 485;
}
{
glyphname = jdotless;
layers = (
{
anchors = (
{
name = bottom;
pos = (9,-200);
},
{
name = top;
pos = (158,500);
}
);
layerId = m003;
shapes = (
{
closed = 1;
nodes = (
(128,500,l),
(15,-33,l),
(-5,-125,o),
(-29,-153,o),
(-84,-153,cs),
(-96,-153,o),
(-105,-152,o),
(-120,-150,c),
(-141,-200,l),
(-123,-204,o),
(-112,-205,o),
(-95,-205,cs),
(5,-205,o),
(49,-154,o),
(82,0,c),
(188,500,l)
);
}
);
width = 210;
},
{
anchors = (
{
name = bottom;
pos = (19,-200);
},
{
name = top;
pos = (168,500);
}
);
layerId = m004;
shapes = (
{
closed = 1;
nodes = (
(78,500,l),
(-35,-33,l),
(-42,-65,o),
(-49,-93,o),
(-81,-93,cs),
(-93,-93,o),
(-103,-92,o),
(-117,-90,c),
(-151,-200,l),
(-133,-204,o),
(-102,-207,o),
(-65,-207,cs),
(75,-207,o),
(119,-154,o),
(152,0,c),
(258,500,l)
);
}
);
width = 230;
}
);
unicode = 567;
}
{
glyphname = schwa;
kernLeft = KO_schwa;
kernRight = KO_p;
layers = (
{
layerId = m003;
name = "Light Italic";
shapes = (
{
closed = 1;
nodes = (
(313,-8,o),
(400,121,o),
(427,250,c),
(372,275,l),
(345,146,o),
(290,47,o),
(179,47,c),
(167,-8,l)
);
},
{
closed = 1;
nodes = (
(119,413,o),
(193,452,o),
(265,452,c),
(277,508,l),
(186,508,o),
(101,455,o),
(101,455,c),
(119,413,l)
);
},
{
closed = 1;
nodes = (
(427,250,ls),
(454,379,o),
(423,508,o),
(277,508,c),
(265,452,l),
(375,452,o),
(389,355,o),
(372,275,c),
(427,250,l)
);
},
{
closed = 1;
nodes = (
(388,275,l),
(47,275,l),
(47,225,l),
(378,225,l)
);
},
{
closed = 1;
nodes = (
(179,47,l),
(58,47,o),
(82,146,o),
(109,275,c),
(47,275,l),
(15,121,o),
(11,-8,o),
(167,-8,c)
);
}
);
width = 472;
},
{
layerId = m004;
name = "Black Italic";
shapes = (
{
closed = 1;
nodes = (
(356,-8,o),
(443,121,o),
(470,250,c),
(302,305,l),
(276,186,o),
(255,107,o),
(205,107,c),
(170,-8,l)
);
},
{
closed = 1;
nodes = (
(79,353,o),
(173,392,o),
(255,392,c),
(310,508,l),
(159,508,o),
(59,455,o),
(59,455,cs),
(79,353,l)
);
},
{
closed = 1;
nodes = (
(470,250,ls),
(497,379,o),
(462,508,o),
(310,508,c),
(255,392,l),
(315,392,o),
(312,355,o),
(302,305,c),
(470,250,l)
);
},
{
closed = 1;
nodes = (
(398,305,l),
(27,305,l),
(13,195,l),
(374,195,l)
);
},
{
closed = 1;
nodes = (
(205,107,l),
(155,107,o),
(173,186,o),
(199,305,c),
(27,305,l),
(-10,131,o),
(-16,-8,o),
(170,-8,c)
);
}
);
width = 485;
}
);
metricLeft = "=a";
metricRight = "=o";
unicode = 601;
}
{
glyphname = ezh;
layers = (
{
anchors = (
{
name = bottom;
pos = (201,0);
},
{
name = top;
pos = (307,500);
}
);
layerId = m003;
shapes = (
{
closed = 1;
nodes = (
(128,500,l),
(115,440,l),
(385,440,l),
(210,264,l),
(263,238,l),
(460,440,l),
(473,500,l)
);
},
{
closed = 1;
nodes = (
(297,-126,o),
(396,-59,o),
(424,69,c),
(448,183,o),
(380,264,o),
(210,264,c),
(198,209,l),
(320,209,o),
(370,157,o),
(352,69,cs),
(333,-19,o),
(262,-66,o),
(140,-66,c),
(127,-126,l)
);
},
{
closed = 1;
nodes = (
(140,-66,l),
(89,-66,o),
(47,-48,o),
(5,-28,c),
(-35,-80,l),
(9,-106,o),
(62,-126,o),
(127,-126,c)
);
}
);
width = 507;
},
{
anchors = (
{
name = bottom;
pos = (247,0);
},
{
name = top;
pos = (353,500);
}
);
layerId = m004;
shapes = (
{
closed = 1;
nodes = (
(93,500,l),
(68,380,l),
(318,380,l),
(175,264,l),
(284,198,l),
(498,380,l),
(523,500,l)
);
},
{
closed = 1;
nodes = (
(351,-156,o),
(451,-84,o),
(478,44,cs),
(505,172,o),
(440,264,o),
(175,264,c),
(151,149,l),
(248,149,o),
(305,132,o),
(289,59,cs),
(274,-14,o),
(208,-36,o),
(166,-36,c),
(141,-156,l)
);
},
{
closed = 1;
nodes = (
(166,-36,l),
(97,-36,o),
(49,-25,o),
(-9,2,c),
(-62,-110,l),
(-16,-131,o),
(49,-156,o),
(141,-156,c)
);
}
);
width = 537;
}
);
metricLeft = "=z";
unicode = 658;
}
{
glyphname = primemod;
layers = (
{
layerId = m003;
shapes = (
{
closed = 1;
nodes = (
(78,500,l),
(118,500,l),
(171,700,l),
(111,700,l)
);
}
);
width = 80;
},
{
layerId = m004;
shapes = (
{
closed = 1;
nodes = (
(74,440,l),
(174,440,l),
(250,700,l),
(110,700,l)
);
}
);
width = 159;
}
);
metricLeft = "=i";
metricRight = "=i";
unicode = 697;
}
{
glyphname = apostrophemod;
kernLeft = KO_apostrophemod;
kernRight = KO_apostrophemod;
layers = (
{
layerId = m003;
shapes = (
{
closed = 1;
nodes = (
(68,500,l),
(108,500,l),
(211,700,l),
(151,700,l)
);
}
);
width = 120;
},
{
layerId = m004;
shapes = (
{
closed = 1;
nodes = (
(54,440,l),
(154,440,l),
(310,700,l),
(170,700,l)
);
}
);
width = 219;
}
);
metricLeft = "=i";
metricRight = "=i";
unicode = 700;
userData = {
KernOnSpecialSpacing = {
L = quotes;
R = quotes;
};
};
}
{
glyphname = verticallinemod;
kernLeft = KO_verticallinemod;
layers = (
{
layerId = m003;
shapes = (
{
closed = 1;
nodes = (
(68,500,l),
(128,500,l),
(171,700,l),
(111,700,l)
);
}
);
width = 80;
},
{
layerId = m004;
shapes = (
{
closed = 1;
nodes = (
(54,440,l),
(194,440,l),
(250,700,l),
(110,700,l)
);
}
);
width = 159;
}
);
metricLeft = "=i";
metricRight = "=i";
unicode = 712;
}
{
glyphname = gravecomb;
layers = (
{
anchors = (
{
name = _top;
pos = (243,500);
},
{
name = top;
pos = (286,700);
}
);
layerId = m003;
shapes = (
{
closed = 1;
nodes = (
(256,560,l),
(316,560,l),
(246,700,l),
(156,700,l)
);
}
);
width = 310;
},
{
anchors = (
{
name = _top;
pos = (208,500);
},
{
name = top;
pos = (251,700);
}
);
layerId = m004;
shapes = (
{
closed = 1;
nodes = (
(217,540,l),
(357,540,l),
(301,700,l),
(121,700,l)
);
}
);
width = 320;
}
);
metricLeft = "=i";
metricRight = "=i";
unicode = 768;
userData = {
KernOnSpecialSpacing = {
L = NoKerning;
R = NoKerning;
};
};
}
{
glyphname = acutecomb;
layers = (
{
anchors = (
{
name = _top;
pos = (128,500);
},
{
name = top;
pos = (171,700);
}
);
layerId = m003;
shapes = (
{
closed = 1;
nodes = (
(211,700,l),
(81,560,l),
(141,560,l),
(301,700,l)
);
}
);
width = 210;
},
{
anchors = (
{
name = _top;
pos = (207,500);
},
{
name = top;
pos = (250,700);
}
);
layerId = m004;
shapes = (
{
closed = 1;
nodes = (
(200,700,l),
(76,540,l),
(216,540,l),
(380,700,l)
);
}
);
width = 289;
}
);
metricLeft = "=i";
metricRight = "=i";
unicode = 769;
userData = {
KernOnSpecialSpacing = {
L = NoKerning;
R = NoKerning;
};
};
}
{
glyphname = circumflexcomb;
layers = (
{
anchors = (
{
name = _top;
pos = (213,500);
},
{
name = top;
pos = (256,700);
}
);
layerId = m003;
shapes = (
{
closed = 1;
nodes = (
(311,560,l),
(371,560,l),
(291,700,l),
(221,700,l)
);
},
{
closed = 1;
nodes = (
(221,700,l),
(81,560,l),
(141,560,l),
(291,700,l)
);
}
);
width = 310;
},
{
anchors = (
{
name = _top;
pos = (247,500);
},
{
name = top;
pos = (290,700);
}
);
layerId = m004;
shapes = (
{
closed = 1;
nodes = (
(296,540,l),
(436,540,l),
(370,700,l),
(230,700,l)
);
},
{
closed = 1;
nodes = (
(210,700,l),
(76,540,l),
(216,540,l),
(350,700,l)
);
}
);
width = 379;
}
);
metricLeft = "=i";
metricRight = "=i";
unicode = 770;
userData = {
KernOnSpecialSpacing = {
L = NoKerning;
R = NoKerning;
};
};
}
{
glyphname = tildecomb;
layers = (
{
anchors = (
{
name = _top;
pos = (243,500);
},
{
name = top;
pos = (288,710);
}
);
layerId = m003;
shapes = (
{
closed = 1;
nodes = (
(126,585,l),
(126,585,o),
(173,625,o),
(207,625,cs),
(275,625,o),
(262,575,o),
(330,575,cs),
(398,575,o),
(447,635,o),
(447,635,c),
(412,675,l),
(412,675,o),
(377,635,o),
(343,635,c),
(275,635,o),
(287,685,o),
(219,685,cs),
(151,685,o),
(95,625,o),
(95,625,c)
);
}
);
width = 370;
},
{
anchors = (
{
name = _top;
pos = (302,500);
},
{
name = top;
pos = (349,720);
}
);
layerId = m004;
shapes = (
{
closed = 1;
nodes = (
(159,555,l),
(159,555,o),
(215,595,o),
(269,595,cs),
(317,595,o),
(333,535,o),
(401,535,c),
(469,535,o),
(559,605,o),
(559,605,cs),
(498,705,l),
(498,705,o),
(452,665,o),
(398,665,c),
(350,665,o),
(335,725,o),
(267,725,cs),
(199,725,o),
(100,655,o),
(100,655,c)
);
}
);
width = 489;
}
);
metricLeft = "=i";
metricRight = "=i";
unicode = 771;
userData = {
KernOnSpecialSpacing = {
L = NoKerning;
R = NoKerning;
};
};
}
{
glyphname = macroncomb;
layers = (
{
anchors = (
{
name = _top;
pos = (300,500);
},
{
name = top;
pos = (343,700);
}
);
layerId = m003;
shapes = (
{
closed = 1;
nodes = (
(185,603,l),
(460,603,l),
(472,658,l),
(197,658,l)
);
}
);
width = 495;
},
{
anchors = (
{
name = _top;
pos = (300,500);
},
{
name = top;
pos = (343,700);
}
);
layerId = m004;
shapes = (
{
closed = 1;
nodes = (
(174,552,l),
(449,552,l),
(474,667,l),
(199,667,l)
);
}
);
width = 495;
}
);
metricRight = "=|";
unicode = 772;
userData = {
KernOnSpecialSpacing = {
L = NoKerning;
R = NoKerning;
};
};
}
{
glyphname = brevecomb;
layers = (
{
anchors = (
{
name = _top;
pos = (255,500);
},
{
name = top;
pos = (298,700);
}
);
layerId = m003;
shapes = (
{
closed = 1;
nodes = (
(141,700,l),
(128,615,o),
(181,551,o),
(265,551,cs),
(348,551,o),
(430,616,o),
(454,700,c),
(408,700,l),
(393,643,o),
(336,601,o),
(276,601,cs),
(217,601,o),
(178,643,o),
(187,700,c)
);
}
);
width = 403;
},
{
anchors = (
{
name = _top;
pos = (255,500);
},
{
name = top;
pos = (298,700);
}
);
layerId = m004;
shapes = (
{
closed = 1;
nodes = (
(141,700,l),
(128,615,o),
(181,551,o),
(265,551,cs),
(348,551,o),
(430,616,o),
(454,700,c),
(348,700,l),
(339,673,o),
(316,651,o),
(286,651,cs),
(257,651,o),
(244,673,o),
(247,700,c)
);
}
);
width = 403;
}
);
metricRight = "=|";
unicode = 774;
userData = {
KernOnSpecialSpacing = {
L = NoKerning;
R = NoKerning;
};
};
}
{
glyphname = dotaccentcomb;
layers = (
{
anchors = (
{
name = _top;
pos = (113,500);
},
{
name = top;
pos = (150,675);
}
);
layerId = m003;
shapes = (
{
closed = 1;
nodes = (
(156,585,o),
(180,605,o),
(186,630,cs),
(191,655,o),
(175,675,o),
(150,675,cs),
(125,675,o),
(101,655,o),
(96,630,cs),
(90,605,o),
(106,585,o),
(131,585,cs)
);
}
);
width = 110;
},
{
anchors = (
{
name = _top;
pos = (167,500);
},
{
name = top;
pos = (216,730);
}
);
layerId = m004;
shapes = (
{
closed = 1;
nodes = (
(229,530,o),
(283,574,o),
(295,630,cs),
(306,685,o),
(271,730,o),
(216,730,cs),
(160,730,o),
(106,685,o),
(95,630,cs),
(83,574,o),
(118,530,o),
(174,530,cs)
);
}
);
width = 219;
}
);
metricLeft = "=i";
metricRight = "=i";
unicode = 775;
userData = {
KernOnSpecialSpacing = {
L = NoKerning;
R = NoKerning;
};
};
}
{
glyphname = dieresiscomb;
layers = (
{
anchors = (
{
name = _top;
pos = (188,500);
},
{
name = top;
pos = (232,708);
}
);
layerId = m003;
shapes = (
{
closed = 1;
nodes = (
(156,585,o),
(180,605,o),
(186,630,cs),
(191,655,o),
(175,675,o),
(150,675,cs),
(125,675,o),
(101,655,o),
(96,630,cs),
(90,605,o),
(106,585,o),
(131,585,cs)
);
},
{
closed = 1;
nodes = (
(306,585,o),
(330,605,o),
(336,630,cs),
(341,655,o),
(325,675,o),
(300,675,cs),
(275,675,o),
(251,655,o),
(246,630,cs),
(240,605,o),
(256,585,o),
(281,585,cs)
);
}
);
width = 260;
},
{
anchors = (
{
name = _top;
pos = (267,500);
},
{
name = top;
pos = (314,720);
}
);
layerId = m004;
shapes = (
{
closed = 1;
nodes = (
(216,540,o),
(264,580,o),
(275,630,cs),
(285,680,o),
(254,720,o),
(204,720,cs),
(154,720,o),
(105,680,o),
(95,630,cs),
(84,580,o),
(116,540,o),
(166,540,cs)
);
},
{
closed = 1;
nodes = (
(436,540,o),
(484,580,o),
(495,630,cs),
(505,680,o),
(474,720,o),
(424,720,cs),
(374,720,o),
(325,680,o),
(315,630,cs),
(304,580,o),
(336,540,o),
(386,540,cs)
);
}
);
width = 419;
}
);
metricLeft = "=i";
metricRight = "=i";
unicode = 776;
userData = {
KernOnSpecialSpacing = {
L = NoKerning;
R = NoKerning;
};
};
}
{
glyphname = ringcomb;
layers = (
{
anchors = (
{
name = _top;
pos = (148,500);
},
{
name = top;
pos = (192,708);
}
);
layerId = m003;
shapes = (
{
closed = 1;
nodes = (
(87,587,o),
(115,550,o),
(159,550,cs),
(202,550,o),
(247,587,o),
(256,630,cs),
(265,674,o),
(236,710,o),
(193,710,cs),
(149,710,o),
(105,674,o),
(96,630,cs)
);
},
{
closed = 1;
nodes = (
(135,655,o),
(159,675,o),
(185,675,cs),
(209,675,o),
(225,655,o),
(220,629,cs),
(214,605,o),
(190,585,o),
(166,585,cs),
(140,585,o),
(124,605,o),
(130,629,cs)
);
}
);
width = 180;
},
{
anchors = (
{
name = _top;
pos = (167,500);
},
{
name = top;
pos = (211,708);
}
);
layerId = m004;
shapes = (
{
closed = 1;
nodes = (
(83,576,o),
(119,530,o),
(174,530,cs),
(228,530,o),
(283,576,o),
(295,630,cs),
(306,685,o),
(270,730,o),
(216,730,cs),
(161,730,o),
(106,685,o),
(95,630,cs)
);
},
{
closed = 1;
nodes = (
(159,653,o),
(180,671,o),
(203,671,cs),
(225,671,o),
(240,653,o),
(235,630,cs),
(230,608,o),
(208,590,o),
(186,590,cs),
(163,590,o),
(149,608,o),
(154,630,cs)
);
}
);
width = 219;
}
);
metricLeft = "=i";
metricRight = "=i";
unicode = 778;
userData = {
KernOnSpecialSpacing = {
L = NoKerning;
R = NoKerning;
};
};
}
{
glyphname = hungarumlautcomb;
layers = (
{
anchors = (
{
name = _top;
pos = (218,500);
},
{
name = top;
pos = (261,700);
}
);
layerId = m003;
shapes = (
{
closed = 1;
nodes = (
(256,700,l),
(126,560,l),
(186,560,l),
(346,700,l)
);
},
{
closed = 1;
nodes = (
(406,700,l),
(276,560,l),
(336,560,l),
(496,700,l)
);
}
);
width = 460;
},
{
anchors = (
{
name = _top;
pos = (263,500);
},
{
name = top;
pos = (306,700);
}
);
layerId = m004;
shapes = (
{
closed = 1;
nodes = (
(211,700,l),
(87,540,l),
(227,540,l),
(391,700,l)
);
},
{
closed = 1;
nodes = (
(441,700,l),
(317,540,l),
(457,540,l),
(621,700,l)
);
}
);
width = 550;
}
);
metricRight = "=|";
unicode = 779;
userData = {
KernOnSpecialSpacing = {
L = NoKerning;
R = NoKerning;
};
};
}
{
glyphname = caroncomb;
layers = (
{
anchors = (
{
name = _top;
pos = (213,500);
},
{
name = top;
pos = (256,700);
}
);
layerId = m003;
shapes = (
{
closed = 1;
nodes = (
(261,560,l),
(401,700,l),
(341,700,l),
(191,560,l)
);
},
{
closed = 1;
nodes = (
(171,700,l),
(111,700,l),
(191,560,l),
(261,560,l)
);
}
);
width = 310;
},
{
anchors = (
{
name = _top;
pos = (247,500);
},
{
name = top;
pos = (290,700);
}
);
layerId = m004;
shapes = (
{
closed = 1;
nodes = (
(336,540,l),
(470,700,l),
(330,700,l),
(196,540,l)
);
},
{
closed = 1;
nodes = (
(250,700,l),
(110,700,l),
(176,540,l),
(316,540,l)
);
}
);
width = 379;
}
);
metricLeft = "=i";
metricRight = "=i";
unicode = 780;
userData = {
KernOnSpecialSpacing = {
L = NoKerning;
R = NoKerning;
};
};
}
{
glyphname = commaturnedabovecomb;
layers = (
{
anchors = (
{
name = _top;
pos = (125,500);
},
{
name = top;
pos = (190,803);
}
);
layerId = m003;
shapes = (
{
closed = 1;
nodes = (
(140,678,o),
(116,658,o),
(110,633,cs),
(105,608,o),
(121,588,o),
(146,588,cs),
(171,588,o),
(195,608,o),
(200,633,cs),
(206,658,o),
(190,678,o),
(165,678,cs)
);
},
{
closed = 1;
nodes = (
(204,803,l),
(169,778,o),
(63,670,o),
(115,603,c),
(165,678,l),
(171,708,o),
(205,751,o),
(241,776,c)
);
}
);
width = 144;
},
{
anchors = (
{
name = _top;
pos = (180,500);
},
{
name = top;
pos = (271,930);
}
);
layerId = m004;
shapes = (
{
closed = 1;
nodes = (
(185,725,o),
(130,680,o),
(119,625,cs),
(107,570,o),
(142,525,o),
(197,525,cs),
(252,525,o),
(307,570,o),
(319,625,c),
(330,680,o),
(295,725,o),
(240,725,cs)
);
},
{
closed = 1;
nodes = (
(273,930,l),
(161,848,o),
(39,645,o),
(137,550,c),
(240,725,l),
(252,780,o),
(299,830,o),
(341,863,c)
);
}
);
width = 253;
}
);
metricLeft = "=i";
metricRight = "=|";
unicode = 786;
userData = {
KernOnSpecialSpacing = {
L = NoKerning;
R = NoKerning;
};
};
}
{
glyphname = dotbelowcomb;
layers = (
{
anchors = (
{
name = _bottom;
pos = (7,0);
},
{
name = bottom;
pos = (-34,-190);
}
);
layerId = m003;
shapes = (
{
closed = 1;
nodes = (
(-9,-190,o),
(16,-170,o),
(21,-145,cs),
(26,-120,o),
(11,-100,o),
(-14,-100,cs),
(-39,-100,o),
(-64,-120,o),
(-69,-145,cs),
(-74,-170,o),
(-59,-190,o),
(-34,-190,cs)
);
}
);
width = 110;
},
{
anchors = (
{
name = _bottom;
pos = (61,0);
},
{
name = bottom;
pos = (8,-250);
}
);
layerId = m004;
shapes = (
{
closed = 1;
nodes = (
(63,-250,o),
(117,-206,o),
(129,-150,cs),
(141,-95,o),
(105,-50,o),
(50,-50,cs),
(-6,-50,o),
(-59,-95,o),
(-71,-150,cs),
(-83,-206,o),
(-48,-250,o),
(8,-250,cs)
);
}
);
width = 219;
}
);
metricLeft = "=i";
metricRight = "=i";
unicode = 803;
}
{
glyphname = commaaccentcomb;
layers = (
{
anchors = (
{
name = _bottom;
pos = (19,0);
},
{
name = bottom;
pos = (-37,-265);
}
);
layerId = m003;
shapes = (
{
closed = 1;
nodes = (
(12,-140,o),
(36,-120,o),
(42,-95,cs),
(47,-70,o),
(31,-50,o),
(6,-50,cs),
(-19,-50,o),
(-43,-70,o),
(-48,-95,cs),
(-54,-120,o),
(-38,-140,o),
(-13,-140,cs)
);
},
{
closed = 1;
nodes = (
(-52,-265,l),
(-17,-240,o),
(89,-132,o),
(37,-65,c),
(-13,-140,l),
(-19,-170,o),
(-53,-213,o),
(-89,-238,c)
);
}
);
width = 144;
},
{
anchors = (
{
name = _bottom;
pos = (74,0);
},
{
name = bottom;
pos = (-18,-430);
}
);
layerId = m004;
shapes = (
{
closed = 1;
nodes = (
(68,-225,o),
(123,-180,o),
(134,-125,cs),
(146,-70,o),
(111,-25,o),
(56,-25,cs),
(1,-25,o),
(-54,-70,o),
(-66,-125,c),
(-77,-180,o),
(-42,-225,o),
(13,-225,cs)
);
},
{
closed = 1;
nodes = (
(-21,-430,l),
(92,-348,o),
(214,-145,o),
(116,-50,c),
(13,-225,l),
(1,-280,o),
(-46,-330,o),
(-88,-363,c)
);
}
);
width = 253;
}
);
metricLeft = "=i";
metricRight = "=|";
unicode = 806;
userData = {
KernOnSpecialSpacing = {
L = NoKerning;
R = NoKerning;
};
};
}
{
glyphname = cedillacomb;
layers = (
{
anchors = (
{
name = _bottom;
pos = (9,0);
},
{
name = bottom;
pos = (-23,-150);
}
);
layerId = m003;
shapes = (
{
closed = 1;
nodes = (
(14,-70,o),
(23,-77,o),
(21,-90,cs),
(18,-103,o),
(5,-111,o),
(-12,-111,cs),
(-22,-111,o),
(-40,-108,o),
(-44,-104,c),
(-67,-135,l),
(-58,-141,o),
(-38,-150,o),
(-20,-150,cs),
(22,-150,o),
(57,-130,o),
(66,-90,cs),
(74,-50,o),
(46,-36,o),
(21,-36,c),
(29,0,l),
(-11,0,l),
(-27,-74,l),
(-21,-71,o),
(-13,-70,o),
(-3,-70,cs)
);
}
);
width = 143;
},
{
anchors = (
{
name = _bottom;
pos = (47,0);
},
{
name = bottom;
pos = (15,-150);
}
);
layerId = m004;
shapes = (
{
closed = 1;
nodes = (
(48,-90,o),
(57,-97,o),
(55,-110,cs),
(52,-123,o),
(39,-131,o),
(22,-131,cs),
(-8,-131,o),
(-26,-128,o),
(-50,-124,c),
(-81,-195,l),
(-53,-201,o),
(-32,-208,o),
(6,-208,cs),
(88,-208,o),
(125,-180,o),
(138,-120,cs),
(150,-60,o),
(134,-36,o),
(99,-36,c),
(107,0,l),
(-13,0,l),
(-33,-94,l),
(-7,-91,o),
(21,-90,o),
(31,-90,cs)
);
}
);
width = 222;
}
);
metricLeft = "=i";
metricRight = "=i";
unicode = 807;
userData = {
KernOnSpecialSpacing = {
L = NoKerning;
R = NoKerning;
};
};
}
{
glyphname = ogonekcomb;
layers = (
{
anchors = (
{
name = _ogonek;
pos = (76,0);
}
);
layerId = m003;
shapes = (
{
closed = 1;
nodes = (
(76,0,o),
(76,0,c),
(39,16,l),
(39,16,o),
(-43,-25,o),
(-54,-75,cs),
(-65,-125,o),
(-41,-155,o),
(9,-155,cs),
(34,-155,o),
(55,-142,o),
(75,-125,c),
(58,-83,l),
(58,-83,o),
(36,-100,o),
(21,-100,c),
(4,-100,o),
(-7,-91,o),
(-4,-75,cs),
(5,-33,o)
);
}
);
width = 170;
},
{
anchors = (
{
name = _ogonek;
pos = (101,0);
}
);
layerId = m004;
shapes = (
{
closed = 1;
nodes = (
(101,0,o),
(101,0,c),
(58,16,l),
(58,16,o),
(-44,-25,o),
(-59,-95,cs),
(-76,-175,o),
(-38,-208,o),
(27,-208,cs),
(67,-208,o),
(104,-189,o),
(124,-175,c),
(119,-75,l),
(119,-75,o),
(82,-90,o),
(52,-90,c),
(35,-90,o),
(23,-83,o),
(27,-67,cs),
(36,-25,o)
);
}
);
width = 228;
}
);
metricLeft = "=i";
metricRight = "=|";
unicode = 808;
userData = {
KernOnSpecialSpacing = {
L = NoKerning;
R = NoKerning;
};
};
}
{
glyphname = circumflexbelowcomb;
layers = (
{
anchors = (
{
name = _bottom;
pos = (107,0);
},
{
name = bottom;
pos = (66,-190);
}
);
layerId = m003;
shapes = (
{
closed = 1;
nodes = (
(151,-190,l),
(211,-190,l),
(131,-50,l),
(61,-50,l)
);
},
{
closed = 1;
nodes = (
(61,-50,l),
(-79,-190,l),
(-19,-190,l),
(131,-50,l)
);
}
);
width = 310;
},
{
anchors = (
{
name = _bottom;
pos = (141,0);
},
{
name = bottom;
pos = (96,-210);
}
);
layerId = m004;
shapes = (
{
closed = 1;
nodes = (
(136,-210,l),
(276,-210,l),
(210,-50,l),
(70,-50,l)
);
},
{
closed = 1;
nodes = (
(50,-50,l),
(-84,-210,l),
(56,-210,l),
(190,-50,l)
);
}
);
width = 379;
}
);
metricLeft = "=i";
metricRight = "=i";
unicode = 813;
}
{
glyphname = macronbelowcomb;
layers = (
{
anchors = (
{
name = _bottom;
pos = (195,0);
},
{
name = bottom;
pos = (162,-155);
}
);
layerId = m003;
shapes = (
{
closed = 1;
nodes = (
(24,-155,l),
(299,-155,l),
(311,-100,l),
(36,-100,l)
);
}
);
width = 495;
},
{
anchors = (
{
name = _bottom;
pos = (195,0);
},
{
name = bottom;
pos = (156,-185);
}
);
layerId = m004;
shapes = (
{
closed = 1;
nodes = (
(18,-185,l),
(293,-185,l),
(317,-70,l),
(42,-70,l)
);
}
);
width = 495;
}
);
metricRight = "=|";
unicode = 817;
}
{
glyphname = strokeshortcomb;
layers = (
{
anchors = (
{
name = _center;
pos = (140,250);
}
);
layerId = m003;
shapes = (
{
closed = 1;
nodes = (
(259,220,l),
(271,280,l),
(21,280,l),
(9,220,l)
);
}
);
width = 270;
},
{
anchors = (
{
name = _center;
pos = (189,250);
}
);
layerId = m004;
shapes = (
{
closed = 1;
nodes = (
(351,190,l),
(377,310,l),
(27,310,l),
(1,190,l)
);
}
);
width = 369;
}
);
metricLeft = "=i";
metricRight = "=i";
unicode = 821;
userData = {
KernOnSpecialSpacing = {
L = NoKerning;
R = NoKerning;
};
};
}
{
glyphname = Omega;
layers = (
{
layerId = m003;
shapes = (
{
closed = 1;
nodes = (
(224,60,l),
(126,92,o),
(107,203,o),
(135,334,cs),
(169,491,o),
(255,616,o),
(410,616,cs),
(565,616,o),
(599,491,o),
(565,334,cs),
(537,202,o),
(472,93,o),
(360,60,c),
(347,0,l),
(509,33,o),
(604,175,o),
(637,334,cs),
(676,514,o),
(628,676,o),
(423,676,c),
(218,676,o),
(102,514,o),
(63,334,cs),
(30,175,o),
(63,32,o),
(211,0,c)
);
},
{
closed = 1;
nodes = (
(211,0,l),
(224,60,l),
(-40,60,l),
(-53,0,l)
);
},
{
closed = 1;
nodes = (
(611,0,l),
(624,60,l),
(360,60,l),
(347,0,l)
);
}
);
width = 664;
},
{
layerId = m004;
shapes = (
{
closed = 1;
nodes = (
(283,110,l),
(198,110,o),
(204,234,o),
(225,334,cs),
(247,434,o),
(292,556,o),
(407,556,cs),
(522,556,o),
(517,434,o),
(495,334,cs),
(474,234,o),
(428,110,o),
(343,110,c),
(319,0,l),
(534,0,o),
(649,154,o),
(687,334,cs),
(726,514,o),
(678,676,o),
(433,676,cs),
(187,676,o),
(72,514,o),
(33,334,cs),
(-5,154,o),
(43,0,o),
(259,0,c)
);
},
{
closed = 1;
nodes = (
(251,0,l),
(275,110,l),
(-29,110,l),
(-53,0,l)
);
},
{
closed = 1;
nodes = (
(631,0,l),
(655,110,l),
(351,110,l),
(327,0,l)
);
}
);
width = 685;
}
);
unicode = 937;
}
{
glyphname = pi;
kernLeft = KO_pi;
layers = (
{
layerId = m003;
shapes = (
{
closed = 1;
nodes = (
(306,500,l),
(152,500,o),
(94,467,o),
(73,367,cs),
(69,350,o),
(68,339,o),
(68,320,c),
(120,330,l),
(121,345,o),
(122,355,o),
(125,367,cs),
(136,422,o),
(168,440,o),
(260,440,c),
(593,440,l),
(606,500,l)
);
},
{
closed = 1;
nodes = (
(362,200,l),
(329,46,o),
(352,-5,o),
(452,-5,cs),
(469,-5,o),
(480,-4,o),
(500,0,c),
(500,50,l),
(485,48,o),
(475,47,o),
(463,47,cs),
(408,47,o),
(396,75,o),
(415,167,c),
(480,470,l),
(420,470,l)
);
},
{
closed = 1;
nodes = (
(95,0,l),
(200,0,o),
(218,87,o),
(241,196,cs),
(300,470,l),
(240,470,l),
(181,196,ls),
(162,105,o),
(150,50,o),
(105,50,c)
);
}
);
width = 600;
},
{
layerId = m004;
shapes = (
{
closed = 1;
nodes = (
(275,500,l),
(121,500,o),
(61,467,o),
(44,387,cs),
(36,350,o),
(33,319,o),
(32,300,c),
(145,310,l),
(146,325,o),
(147,335,o),
(149,347,cs),
(156,379,o),
(184,380,o),
(216,380,c),
(669,380,l),
(695,500,l)
);
},
{
closed = 1;
nodes = (
(381,200,l),
(348,46,o),
(370,-7,o),
(510,-7,cs),
(547,-7,o),
(579,-4,o),
(599,0,c),
(612,110,l),
(597,108,o),
(586,107,o),
(574,107,cs),
(542,107,o),
(547,135,o),
(554,167,c),
(619,470,l),
(439,470,l)
);
},
{
closed = 1;
nodes = (
(74,0,l),
(259,0,o),
(317,87,o),
(340,196,cs),
(399,470,l),
(219,470,l),
(160,196,ls),
(154,165,o),
(142,110,o),
(97,110,c)
);
}
);
width = 682;
}
);
unicode = 960;
}
{
glyphname = baht;
layers = (
{
layerId = m004;
name = "Black Italic";
shapes = (
{
ref = B;
},
{
closed = 1;
nodes = (
(402,591,l),
(434,742,l),
(314,742,l),
(282,591,l)
);
},
{
closed = 1;
nodes = (
(172,73,l),
(140,-75,l),
(260,-75,l),
(292,73,l)
);
}
);
width = 576;
},
{
layerId = m003;
name = "Light Italic";
shapes = (
{
ref = B;
},
{
closed = 1;
nodes = (
(383,639,l),
(405,742,l),
(345,742,l),
(323,639,l)
);
},
{
closed = 1;
nodes = (
(194,31,l),
(171,-75,l),
(231,-75,l),
(254,31,l)
);
}
);
width = 543;
}
);
unicode = 3647;
userData = {
KernOnSpecialSpacing = {
L = symbols;
R = symbols;
};
};
}
{
glyphname = Germandbls;
kernLeft = KO_H;
layers = (
{
layerId = m003;
shapes = (
{
closed = 1;
nodes = (
(90,0,l),
(219,607,l),
(536,607,l),
(562,667,l),
(169,667,l),
(27,0,l)
);
},
{
closed = 1;
nodes = (
(295,50,l),
(244,50,o),
(202,68,o),
(160,88,c),
(120,36,l),
(164,10,o),
(217,-10,o),
(282,-10,c)
);
},
{
closed = 1;
nodes = (
(442,-10,o),
(535,77,o),
(559,194,cs),
(582,300,o),
(525,380,o),
(365,380,c),
(298,380,l),
(286,324,l),
(455,324,o),
(508,292,o),
(487,194,cs),
(469,106,o),
(397,50,o),
(295,50,c),
(282,-10,l)
);
},
{
closed = 1;
nodes = (
(561,607,l),
(574,667,l),
(532,667,l),
(298,380,l),
(345,350,l)
);
},
{
pos = (27,0);
ref = _serif.I.BL;
},
{
pos = (169,667);
ref = _serif.I.TL;
},
{
pos = (120,36);
ref = _serif.S.BL;
}
);
width = 576;
},
{
layerId = m004;
shapes = (
{
closed = 1;
nodes = (
(209,0,l),
(325,547,l),
(722,547,l),
(748,667,l),
(169,667,l),
(27,0,l)
);
},
{
closed = 1;
nodes = (
(427,110,l),
(376,110,o),
(333,128,o),
(292,148,c),
(239,36,l),
(283,10,o),
(336,-10,o),
(401,-10,c)
);
},
{
closed = 1;
nodes = (
(601,-10,o),
(694,77,o),
(718,194,cs),
(741,300,o),
(690,410,o),
(510,410,c),
(358,410,l),
(334,295,l),
(512,295,o),
(539,252,o),
(526,194,cs),
(514,136,o),
(473,110,o),
(427,110,c),
(401,-10,l)
);
},
{
closed = 1;
nodes = (
(722,547,l),
(743,667,l),
(686,667,l),
(358,410,l),
(505,380,l)
);
},
{
pos = (27,0);
ref = _serif.I.BL;
},
{
pos = (169,667);
ref = _serif.I.TL;
},
{
pos = (239,36);
ref = _serif.S.BL;
}
);
width = 735;
}
);
metricLeft = "=H";
metricRight = "=S";
unicode = 7838;
}
{
glyphname = endash;
kernLeft = KO_endash;
kernRight = KO_endash;
layers = (
{
layerId = m003;
shapes = (
{
closed = 1;
nodes = (
(77,225,l),
(465,225,l),
(476,275,l),
(88,275,l)
);
}
);
width = 553;
},
{
layerId = m004;
shapes = (
{
closed = 1;
nodes = (
(31,180,l),
(499,180,l),
(528,320,l),
(60,320,l)
);
}
);
width = 559;
}
);
metricLeft = "=H";
metricRight = "=|";
note = endash;
unicode = 8211;
userData = {
KernOnSpecialSpacing = {
L = dashes;
R = dashes;
};
};
}
{
glyphname = emdash;
kernLeft = KO_endash;
kernRight = KO_endash;
layers = (
{
layerId = m004;
shapes = (
{
closed = 1;
nodes = (
(32,185,l),
(756,185,l),
(783,315,l),
(59,315,l)
);
}
);
width = 815;
},
{
layerId = m003;
shapes = (
{
closed = 1;
nodes = (
(77,225,l),
(721,225,l),
(732,275,l),
(88,275,l)
);
}
);
width = 809;
}
);
metricLeft = "=H";
metricRight = "=|";
note = emdash;
unicode = 8212;
userData = {
KernOnSpecialSpacing = {
L = dashes;
R = dashes;
};
};
}
{
glyphname = quoteleft;
kernLeft = KO_quoteleft;
kernRight = KO_quoteleft;
layers = (
{
layerId = m004;
shapes = (
{
closed = 1;
nodes = (
(188,677,o),
(125,632,o),
(101,577,cs),
(79,522,o),
(104,477,o),
(159,477,cs),
(214,477,o),
(279,522,o),
(301,577,c),
(325,632,o),
(298,677,o),
(243,677,cs)
);
},
{
closed = 1;
nodes = (
(321,882,l),
(192,800,o),
(25,597,o),
(103,502,c),
(243,677,l),
(267,732,o),
(326,782,o),
(375,815,c)
);
}
);
width = 260;
},
{
layerId = m003;
shapes = (
{
closed = 1;
nodes = (
(139,678,o),
(115,658,o),
(110,633,cs),
(104,608,o),
(120,588,o),
(145,588,cs),
(170,588,o),
(194,608,o),
(200,633,cs),
(205,658,o),
(189,678,o),
(164,678,cs)
);
},
{
closed = 1;
nodes = (
(204,803,l),
(169,778,o),
(63,670,o),
(114,603,c),
(164,678,l),
(171,708,o),
(205,751,o),
(240,776,c)
);
}
);
width = 133;
}
);
metricLeft = "=i";
metricRight = "=i";
note = quoteleft;
unicode = 8216;
userData = {
KernOnSpecialSpacing = {
L = quotes;
R = quotes;
};
};
}
{
glyphname = quoteright;
kernLeft = KO_quoteright;
kernRight = KO_quoteright;
layers = (
{
layerId = m004;
shapes = (
{
closed = 1;
nodes = (
(235,508,o),
(289,553,o),
(301,608,cs),
(312,663,o),
(277,708,o),
(222,708,cs),
(167,708,o),
(112,663,o),
(101,608,c),
(89,553,o),
(125,508,o),
(180,508,cs)
);
},
{
closed = 1;
nodes = (
(146,303,l),
(258,385,o),
(381,588,o),
(283,683,c),
(180,508,l),
(168,453,o),
(120,403,o),
(78,370,c)
);
}
);
width = 275;
},
{
layerId = m003;
shapes = (
{
closed = 1;
nodes = (
(218,618,o),
(242,638,o),
(247,663,cs),
(253,688,o),
(237,708,o),
(212,708,cs),
(187,708,o),
(163,688,o),
(157,663,cs),
(152,638,o),
(168,618,o),
(193,618,cs)
);
},
{
closed = 1;
nodes = (
(153,493,l),
(188,518,o),
(294,626,o),
(243,693,c),
(193,618,l),
(186,588,o),
(152,545,o),
(117,520,c)
);
}
);
width = 233;
}
);
metricLeft = "=i";
metricRight = "=i";
note = quoteright;
unicode = 8217;
userData = {
KernOnSpecialSpacing = {
L = quotes;
R = quotes;
};
};
}
{
glyphname = quotesinglbase;
kernLeft = KO_comma;
kernRight = KO_comma;
layers = (
{
layerId = m004;
shapes = (
{
closed = 1;
nodes = (
(114,-8,o),
(168,37,o),
(180,92,cs),
(191,147,o),
(156,192,o),
(101,192,cs),
(46,192,o),
(-9,147,o),
(-20,92,c),
(-32,37,o),
(4,-8,o),
(59,-8,cs)
);
},
{
closed = 1;
nodes = (
(25,-213,l),
(137,-131,o),
(260,72,o),
(162,167,c),
(59,-8,l),
(47,-63,o),
(-1,-113,o),
(-43,-146,c)
);
}
);
width = 244;
},
{
layerId = m003;
shapes = (
{
closed = 1;
nodes = (
(40,-8,o),
(64,12,o),
(69,37,cs),
(75,62,o),
(59,82,o),
(34,82,cs),
(9,82,o),
(-15,62,o),
(-21,37,cs),
(-26,12,o),
(-10,-8,o),
(15,-8,cs)
);
},
{
closed = 1;
nodes = (
(-25,-133,l),
(10,-108,o),
(116,0,o),
(65,67,c),
(15,-8,l),
(8,-38,o),
(-26,-81,o),
(-61,-106,c)
);
}
);
width = 133;
}
);
metricLeft = "=i";
metricRight = "=i";
note = quotesinglbase;
unicode = 8218;
userData = {
KernOnSpecialSpacing = {
L = quotes;
R = quotes;
};
};
}
{
glyphname = quotedblleft;
kernLeft = KO_quotedblleft;
kernRight = KO_quotedblleft;
layers = (
{
layerId = m004;
shapes = (
{
closed = 1;
nodes = (
(448,677,o),
(385,632,o),
(361,577,cs),
(339,522,o),
(364,477,o),
(419,477,cs),
(474,477,o),
(539,522,o),
(561,577,c),
(585,632,o),
(558,677,o),
(503,677,cs)
);
},
{
closed = 1;
nodes = (
(581,882,l),
(452,800,o),
(285,597,o),
(363,502,c),
(503,677,l),
(527,732,o),
(586,782,o),
(635,815,c)
);
},
{
closed = 1;
nodes = (
(188,677,o),
(125,632,o),
(101,577,cs),
(79,522,o),
(104,477,o),
(159,477,cs),
(214,477,o),
(279,522,o),
(301,577,c),
(325,632,o),
(298,677,o),
(243,677,cs)
);
},
{
closed = 1;
nodes = (
(321,882,l),
(192,800,o),
(25,597,o),
(103,502,c),
(243,677,l),
(267,732,o),
(326,782,o),
(375,815,c)
);
}
);
width = 520;
},
{
layerId = m003;
shapes = (
{
closed = 1;
nodes = (
(279,678,o),
(255,658,o),
(250,633,cs),
(244,608,o),
(260,588,o),
(285,588,cs),
(310,588,o),
(334,608,o),
(340,633,cs),
(345,658,o),
(329,678,o),
(304,678,cs)
);
},
{
closed = 1;
nodes = (
(344,803,l),
(309,778,o),
(203,670,o),
(254,603,c),
(304,678,l),
(311,708,o),
(345,751,o),
(380,776,c)
);
},
{
closed = 1;
nodes = (
(139,678,o),
(115,658,o),
(110,633,cs),
(104,608,o),
(120,588,o),
(145,588,cs),
(170,588,o),
(194,608,o),
(200,633,cs),
(205,658,o),
(189,678,o),
(164,678,cs)
);
},
{
closed = 1;
nodes = (
(204,803,l),
(169,778,o),
(63,670,o),
(114,603,c),
(164,678,l),
(171,708,o),
(205,751,o),
(240,776,c)
);
}
);
width = 273;
}
);
metricLeft = "=i";
metricRight = "=i";
note = quotedblleft;
unicode = 8220;
userData = {
KernOnSpecialSpacing = {
L = quotes;
R = quotes;
};
};
}
{
glyphname = quotedblright;
kernLeft = KO_quoteright;
kernRight = KO_quoteright;
layers = (
{
layerId = m004;
shapes = (
{
closed = 1;
nodes = (
(235,508,o),
(289,553,o),
(301,608,cs),
(312,663,o),
(277,708,o),
(222,708,cs),
(167,708,o),
(112,663,o),
(101,608,c),
(89,553,o),
(125,508,o),
(180,508,cs)
);
},
{
closed = 1;
nodes = (
(146,303,l),
(258,385,o),
(381,588,o),
(283,683,c),
(180,508,l),
(168,453,o),
(120,403,o),
(78,370,c)
);
},
{
closed = 1;
nodes = (
(495,508,o),
(549,553,o),
(561,608,cs),
(572,663,o),
(537,708,o),
(482,708,cs),
(427,708,o),
(372,663,o),
(361,608,c),
(349,553,o),
(385,508,o),
(440,508,cs)
);
},
{
closed = 1;
nodes = (
(406,303,l),
(518,385,o),
(641,588,o),
(543,683,c),
(440,508,l),
(428,453,o),
(380,403,o),
(338,370,c)
);
}
);
width = 535;
},
{
layerId = m003;
shapes = (
{
closed = 1;
nodes = (
(218,618,o),
(242,638,o),
(247,663,cs),
(253,688,o),
(237,708,o),
(212,708,cs),
(187,708,o),
(163,688,o),
(157,663,cs),
(152,638,o),
(168,618,o),
(193,618,cs)
);
},
{
closed = 1;
nodes = (
(153,493,l),
(188,518,o),
(294,626,o),
(243,693,c),
(193,618,l),
(186,588,o),
(152,545,o),
(117,520,c)
);
},
{
closed = 1;
nodes = (
(358,618,o),
(382,638,o),
(387,663,cs),
(393,688,o),
(377,708,o),
(352,708,cs),
(327,708,o),
(303,688,o),
(297,663,cs),
(292,638,o),
(308,618,o),
(333,618,cs)
);
},
{
closed = 1;
nodes = (
(293,493,l),
(328,518,o),
(434,626,o),
(383,693,c),
(333,618,l),
(326,588,o),
(292,545,o),
(257,520,c)
);
}
);
width = 373;
}
);
metricLeft = "=i";
metricRight = "=i";
note = quotedblright;
unicode = 8221;
userData = {
KernOnSpecialSpacing = {
L = quotes;
R = quotes;
};
};
}
{
glyphname = quotedblbase;
kernLeft = KO_comma;
kernRight = KO_comma;
layers = (
{
layerId = m004;
shapes = (
{
closed = 1;
nodes = (
(114,-8,o),
(168,37,o),
(180,92,cs),
(191,147,o),
(156,192,o),
(101,192,cs),
(46,192,o),
(-9,147,o),
(-20,92,c),
(-32,37,o),
(4,-8,o),
(59,-8,cs)
);
},
{
closed = 1;
nodes = (
(25,-213,l),
(137,-131,o),
(260,72,o),
(162,167,c),
(59,-8,l),
(47,-63,o),
(-1,-113,o),
(-43,-146,c)
);
},
{
closed = 1;
nodes = (
(374,-8,o),
(428,37,o),
(440,92,cs),
(451,147,o),
(416,192,o),
(361,192,cs),
(306,192,o),
(251,147,o),
(240,92,c),
(228,37,o),
(264,-8,o),
(319,-8,cs)
);
},
{
closed = 1;
nodes = (
(285,-213,l),
(397,-131,o),
(520,72,o),
(422,167,c),
(319,-8,l),
(307,-63,o),
(259,-113,o),
(217,-146,c)
);
}
);
width = 504;
},
{
layerId = m003;
shapes = (
{
closed = 1;
nodes = (
(40,-8,o),
(64,12,o),
(69,37,cs),
(75,62,o),
(59,82,o),
(34,82,cs),
(9,82,o),
(-15,62,o),
(-21,37,cs),
(-26,12,o),
(-10,-8,o),
(15,-8,cs)
);
},
{
closed = 1;
nodes = (
(-25,-133,l),
(10,-108,o),
(116,0,o),
(65,67,c),
(15,-8,l),
(8,-38,o),
(-26,-81,o),
(-61,-106,c)
);
},
{
closed = 1;
nodes = (
(180,-8,o),
(204,12,o),
(209,37,cs),
(215,62,o),
(199,82,o),
(174,82,cs),
(149,82,o),
(125,62,o),
(119,37,cs),
(114,12,o),
(130,-8,o),
(155,-8,cs)
);
},
{
closed = 1;
nodes = (
(115,-133,l),
(150,-108,o),
(256,0,o),
(205,67,c),
(155,-8,l),
(148,-38,o),
(114,-81,o),
(79,-106,c)
);
}
);
width = 273;
}
);
metricLeft = "=i";
metricRight = "=i";
note = quotedblbase;
unicode = 8222;
userData = {
KernOnSpecialSpacing = {
L = quotes;
R = quotes;
};
};
}
{
glyphname = dagger;
kernLeft = KO_dagger;
layers = (
{
layerId = m003;
shapes = (
{
closed = 1;
nodes = (
(237,300,l),
(324,700,l),
(269,700,l),
(182,300,l)
);
},
{
closed = 1;
nodes = (
(135,546,l),
(391,545,l),
(402,599,l),
(146,600,l)
);
}
);
width = 400;
},
{
layerId = m004;
shapes = (
{
closed = 1;
nodes = (
(261,270,l),
(354,700,l),
(239,700,l),
(146,270,l)
);
},
{
closed = 1;
nodes = (
(89,471,l),
(405,470,l),
(429,584,l),
(113,585,l)
);
}
);
width = 400;
}
);
unicode = 8224;
}
{
glyphname = daggerdbl;
layers = (
{
layerId = m003;
shapes = (
{
closed = 1;
nodes = (
(238,300,l),
(325,700,l),
(270,700,l),
(183,300,l)
);
},
{
closed = 1;
nodes = (
(136,546,l),
(392,545,l),
(403,599,l),
(147,600,l)
);
},
{
closed = 1;
nodes = (
(105,401,l),
(361,400,l),
(372,454,l),
(116,455,l)
);
}
);
width = 400;
},
{
layerId = m004;
shapes = (
{
closed = 1;
nodes = (
(261,270,l),
(360,730,l),
(245,730,l),
(146,270,l)
);
},
{
closed = 1;
nodes = (
(103,536,l),
(418,535,l),
(443,649,l),
(127,650,l)
);
},
{
closed = 1;
nodes = (
(63,351,l),
(379,350,l),
(403,464,l),
(88,465,l)
);
}
);
width = 400;
}
);
unicode = 8225;
}
{
glyphname = bullet;
layers = (
{
layerId = m003;
shapes = (
{
closed = 1;
nodes = (
(284,150,o),
(338,195,o),
(350,250,cs),
(362,305,o),
(326,350,o),
(271,350,cs),
(216,350,o),
(162,305,o),
(150,250,cs),
(138,195,o),
(174,150,o),
(229,150,cs)
);
}
);
width = 500;
},
{
layerId = m004;
shapes = (
{
closed = 1;
nodes = (
(297,110,o),
(374,173,o),
(390,250,cs),
(406,327,o),
(357,390,o),
(280,390,cs),
(203,390,o),
(126,327,o),
(110,250,cs),
(94,173,o),
(143,110,o),
(220,110,cs)
);
}
);
width = 500;
}
);
note = bullet;
unicode = 8226;
userData = {
KernOnSpecialSpacing = {
L = NoKerning;
R = NoKerning;
};
};
}
{
glyphname = ellipsis;
kernLeft = KO_ellipsis;
kernRight = KO_ellipsis;
layers = (
{
layerId = m003;
shapes = (
{
closed = 1;
nodes = (
(30,-8,o),
(55,12,o),
(60,37,cs),
(65,62,o),
(50,82,o),
(25,82,cs),
(0,82,o),
(-25,62,o),
(-30,37,cs),
(-35,12,o),
(-20,-8,o),
(5,-8,cs)
);
},
{
closed = 1;
nodes = (
(230,-8,o),
(255,12,o),
(260,37,cs),
(265,62,o),
(250,82,o),
(225,82,cs),
(200,82,o),
(175,62,o),
(170,37,cs),
(165,12,o),
(180,-8,o),
(205,-8,cs)
);
},
{
closed = 1;
nodes = (
(430,-8,o),
(455,12,o),
(460,37,cs),
(465,62,o),
(450,82,o),
(425,82,cs),
(400,82,o),
(375,62,o),
(370,37,cs),
(365,12,o),
(380,-8,o),
(405,-8,cs)
);
}
);
width = 520;
},
{
layerId = m004;
shapes = (
{
closed = 1;
nodes = (
(114,-8,o),
(169,36,o),
(180,92,cs),
(192,147,o),
(157,192,o),
(102,192,cs),
(46,192,o),
(-8,147,o),
(-20,92,cs),
(-31,36,o),
(3,-8,o),
(59,-8,cs)
);
},
{
closed = 1;
nodes = (
(394,-8,o),
(449,36,o),
(460,92,cs),
(472,147,o),
(437,192,o),
(382,192,cs),
(326,192,o),
(272,147,o),
(260,92,cs),
(249,36,o),
(283,-8,o),
(339,-8,cs)
);
},
{
closed = 1;
nodes = (
(674,-8,o),
(729,36,o),
(740,92,cs),
(752,147,o),
(717,192,o),
(662,192,cs),
(606,192,o),
(552,147,o),
(540,92,cs),
(529,36,o),
(563,-8,o),
(619,-8,cs)
);
}
);
width = 788;
}
);
metricLeft = "=period";
metricRight = "=|";
note = ellipsis;
unicode = 8230;
}
{
glyphname = guilsinglleft;
kernLeft = KO_guillemotleft;
kernRight = KO_guillemotleft;
layers = (
{
layerId = m004;
shapes = (
{
closed = 1;
nodes = (
(348,50,l),
(242,250,l),
(434,450,l),
(373,500,l),
(72,250,l),
(267,0,l)
);
}
);
width = 463;
},
{
layerId = m003;
shapes = (
{
closed = 1;
nodes = (
(229,99,l),
(140,250,l),
(293,401,l),
(268,430,l),
(72,250,l),
(192,70,l)
);
}
);
width = 333;
}
);
metricRight = "=|";
note = guilsinglleft;
unicode = 8249;
userData = {
KernOnSpecialSpacing = {
L = quotes;
R = quotes;
};
};
}
{
glyphname = guilsinglright;
kernLeft = KO_guillemotright;
kernRight = KO_guillemotright;
layers = (
{
layerId = m004;
shapes = (
{
closed = 1;
nodes = (
(391,250,l),
(196,500,l),
(115,450,l),
(221,250,l),
(29,50,l),
(90,0,l)
);
}
);
width = 463;
},
{
layerId = m003;
shapes = (
{
closed = 1;
nodes = (
(261,250,l),
(141,430,l),
(104,401,l),
(193,250,l),
(40,99,l),
(65,70,l)
);
}
);
width = 333;
}
);
metricRight = "=|";
note = guilsinglright;
unicode = 8250;
userData = {
KernOnSpecialSpacing = {
L = quotes;
R = quotes;
};
};
}
{
glyphname = fraction;
layers = (
{
layerId = m003;
shapes = (
{
closed = 1;
nodes = (
(-245,-24,l),
(-207,-57,l),
(495,691,l),
(457,723,l)
);
}
);
width = 250;
},
{
layerId = m004;
shapes = (
{
closed = 1;
nodes = (
(-256,-14,l),
(-195,-67,l),
(507,681,l),
(446,733,l)
);
}
);
width = 250;
}
);
unicode = 8260;
userData = {
KernOnSpecialSpacing = {
L = fraction;
R = fraction;
};
};
}
{
glyphname = sheqel;
layers = (
{
layerId = m003;
shapes = (
{
closed = 1;
nodes = (
(459,478,l),
(485,600,o),
(418,676,o),
(286,676,cs),
(181,676,o),
(99,667,o),
(99,667,c),
(-43,0,l),
(19,0,l),
(150,612,l),
(150,612,o),
(198,616,o),
(273,616,cs),
(371,616,o),
(415,566,o),
(397,477,c)
);
},
{
closed = 1;
nodes = (
(322,125,l),
(384,125,l),
(459,478,l),
(397,477,l)
);
},
{
closed = 1;
nodes = (
(153,198,l),
(127,76,o),
(194,0,o),
(326,0,cs),
(431,0,o),
(513,9,o),
(513,9,c),
(655,676,l),
(593,676,l),
(462,64,l),
(462,64,o),
(414,60,o),
(339,60,cs),
(241,60,o),
(197,110,o),
(215,199,c)
);
},
{
closed = 1;
nodes = (
(290,551,l),
(228,551,l),
(153,198,l),
(215,199,l)
);
}
);
width = 574;
},
{
layerId = m004;
shapes = (
{
closed = 1;
nodes = (
(604,463,l),
(633,595,o),
(617,677,o),
(405,677,cs),
(260,677,o),
(98,667,o),
(98,667,c),
(-44,0,l),
(138,0,l),
(257,553,l),
(257,553,o),
(294,556,o),
(359,556,cs),
(464,556,o),
(485,520,o),
(472,462,c)
);
},
{
closed = 1;
nodes = (
(413,185,l),
(545,185,l),
(604,463,l),
(472,462,l)
);
},
{
closed = 1;
nodes = (
(235,214,l),
(206,82,o),
(232,0,o),
(434,0,cs),
(579,0,o),
(741,10,o),
(741,10,c),
(883,677,l),
(701,677,l),
(582,124,l),
(582,124,o),
(545,121,o),
(480,121,cs),
(375,121,o),
(354,157,o),
(367,215,c)
);
},
{
closed = 1;
nodes = (
(426,492,l),
(294,492,l),
(235,214,l),
(367,215,l)
);
}
);
width = 801;
}
);
metricLeft = "=P";
metricRight = "=|";
unicode = 8362;
userData = {
KernOnSpecialSpacing = {
L = symbols;
R = symbols;
};
};
}
{
glyphname = euro;
layers = (
{
layerId = m003;
shapes = (
{
pos = (37,0);
ref = C;
},
{
closed = 1;
nodes = (
(24,363,l),
(462,363,l),
(502,423,l),
(64,423,l)
);
},
{
closed = 1;
nodes = (
(-1,243,l),
(384,243,l),
(424,303,l),
(39,303,l)
);
}
);
width = 565;
},
{
layerId = m004;
shapes = (
{
pos = (83,0);
ref = C;
},
{
closed = 1;
nodes = (
(22,353,l),
(590,353,l),
(636,453,l),
(68,453,l)
);
},
{
closed = 1;
nodes = (
(-8,213,l),
(527,213,l),
(573,313,l),
(38,313,l)
);
}
);
width = 636;
}
);
unicode = 8364;
userData = {
KernOnSpecialSpacing = {
L = symbols;
R = symbols;
};
};
}
{
glyphname = hryvnia;
layers = (
{
layerId = m003;
shapes = (
{
closed = 1;
nodes = (
(468,387,l),
(498,416,o),
(519,454,o),
(529,500,c),
(554,618,o),
(467,676,o),
(397,676,c),
(384,616,l),
(447,616,o),
(480,565,o),
(466,500,c),
(455,449,o),
(424,414,o),
(377,396,c)
);
},
{
closed = 1;
nodes = (
(397,676,l),
(332,676,o),
(270,656,o),
(215,630,c),
(233,578,l),
(283,598,o),
(333,616,o),
(384,616,c)
);
},
{
closed = 1;
nodes = (
(251,-10,l),
(316,-10,o),
(377,10,o),
(433,36,c),
(415,88,l),
(364,68,o),
(314,50,o),
(263,50,c)
);
},
{
closed = 1;
nodes = (
(95,274,l),
(78,251,o),
(67,225,o),
(60,194,cs),
(35,77,o),
(91,-10,o),
(251,-10,c),
(263,50,l),
(161,50,o),
(113,106,o),
(132,194,cs),
(139,226,o),
(156,250,o),
(180,269,c)
);
},
{
closed = 1;
nodes = (
(49,363,l),
(549,363,l),
(562,423,l),
(62,423,l)
);
},
{
closed = 1;
nodes = (
(24,243,l),
(524,243,l),
(536,303,l),
(36,303,l)
);
}
);
width = 550;
},
{
layerId = m004;
shapes = (
{
closed = 1;
nodes = (
(566,377,l),
(590,406,o),
(607,441,o),
(615,480,cs),
(640,598,o),
(557,676,o),
(447,676,c),
(381,556,l),
(429,556,o),
(453,531,o),
(446,500,cs),
(441,475,o),
(428,448,o),
(387,433,c)
);
},
{
closed = 1;
nodes = (
(447,676,l),
(355,676,o),
(279,651,o),
(225,630,c),
(230,518,l),
(299,545,o),
(332,556,o),
(381,556,c)
);
},
{
closed = 1;
nodes = (
(301,-10,l),
(393,-10,o),
(468,17,o),
(523,38,c),
(520,160,l),
(451,133,o),
(397,120,o),
(328,120,c)
);
},
{
closed = 1;
nodes = (
(88,258,l),
(82,244,o),
(78,229,o),
(74,214,cs),
(49,97,o),
(101,-10,o),
(301,-10,c),
(328,120,l),
(282,120,o),
(250,137,o),
(262,194,cs),
(267,215,o),
(276,230,o),
(292,242,c)
);
},
{
closed = 1;
nodes = (
(46,348,l),
(646,348,l),
(667,448,l),
(67,448,l)
);
},
{
closed = 1;
nodes = (
(18,218,l),
(618,218,l),
(639,318,l),
(39,318,l)
);
}
);
width = 600;
}
);
unicode = 8372;
userData = {
KernOnSpecialSpacing = {
L = symbols;
R = symbols;
};
};
}
{
glyphname = rupeeIndian;
layers = (
{
layerId = m003;
shapes = (
{
closed = 1;
nodes = (
(319,0,l),
(224,290,l),
(323,313,o),
(400,384,o),
(420,478,cs),
(445,595,o),
(336,676,o),
(238,676,c),
(225,616,l),
(323,616,o),
(367,566,o),
(348,477,cs),
(330,390,o),
(265,342,o),
(167,342,cs),
(142,342,l),
(246,0,l)
);
},
{
closed = 1;
nodes = (
(484,447,l),
(524,507,l),
(107,507,l),
(67,447,l)
);
},
{
closed = 1;
nodes = (
(520,616,l),
(560,676,l),
(143,676,l),
(103,616,l)
);
}
);
width = 494;
},
{
layerId = m004;
shapes = (
{
closed = 1;
nodes = (
(466,0,l),
(377,273,l),
(470,304,o),
(529,371,o),
(549,463,cs),
(577,595,o),
(375,677,o),
(330,677,c),
(309,577,l),
(354,577,o),
(369,520,o),
(357,462,cs),
(345,407,o),
(310,372,o),
(265,372,cs),
(162,372,l),
(275,0,l)
);
},
{
closed = 1;
nodes = (
(612,425,l),
(657,525,l),
(97,525,l),
(52,425,l)
);
},
{
closed = 1;
nodes = (
(645,577,l),
(690,677,l),
(130,677,l),
(85,577,l)
);
}
);
width = 614;
}
);
unicode = 8377;
userData = {
KernOnSpecialSpacing = {
L = symbols;
R = symbols;
};
};
}
{
glyphname = ruble;
layers = (
{
layerId = m003;
shapes = (
{
closed = 1;
nodes = (
(22,282,l),
(307,282,l),
(320,342,l),
(35,342,l)
);
},
{
closed = 1;
nodes = (
(-4,162,l),
(358,162,l),
(371,222,l),
(9,222,l)
);
},
{
closed = 1;
nodes = (
(476,616,o),
(520,566,o),
(501,477,cs),
(483,390,o),
(418,342,o),
(320,342,cs),
(245,342,o),
(196,335,o),
(196,335,c),
(255,612,l),
(255,612,o),
(303,616,o),
(378,616,cs)
);
},
{
closed = 1;
nodes = (
(62,0,l),
(124,0,l),
(184,285,l),
(184,285,o),
(231,282,o),
(306,282,cs),
(439,282,o),
(549,363,o),
(573,478,cs),
(598,595,o),
(523,676,o),
(391,676,cs),
(286,676,o),
(204,667,o),
(204,667,c)
);
}
);
width = 549;
},
{
layerId = m004;
shapes = (
{
closed = 1;
nodes = (
(5,252,l),
(329,252,l),
(351,352,l),
(27,352,l)
);
},
{
closed = 1;
nodes = (
(-24,112,l),
(470,112,l),
(491,212,l),
(-3,212,l)
);
},
{
closed = 1;
nodes = (
(440,556,o),
(460,520,o),
(448,462,cs),
(432,387,o),
(397,352,o),
(352,352,cs),
(327,352,o),
(305,332,o),
(305,332,c),
(352,553,l),
(352,553,o),
(370,556,o),
(395,556,cs)
);
},
{
closed = 1;
nodes = (
(52,0,l),
(234,0,l),
(288,255,l),
(288,255,o),
(304,252,o),
(329,252,cs),
(502,252,o),
(612,331,o),
(640,463,cs),
(668,595,o),
(593,677,o),
(421,677,cs),
(316,677,o),
(194,667,o),
(194,667,c)
);
}
);
width = 660;
}
);
metricRight = "=P";
unicode = 8381;
userData = {
KernOnSpecialSpacing = {
L = symbols;
R = symbols;
};
};
}
{
glyphname = leftArrow;
layers = (
{
layerId = m003;
shapes = (
{
closed = 1;
nodes = (
(374,395,l),
(350,427,l),
(134,250,l),
(159,218,l)
);
},
{
closed = 1;
nodes = (
(312,105,l),
(174,282,l),
(134,250,l),
(273,73,l)
);
},
{
closed = 1;
nodes = (
(660,225,l),
(670,274,l),
(170,275,l),
(160,225,l)
);
}
);
width = 800;
},
{
layerId = m004;
shapes = (
{
closed = 1;
nodes = (
(432,385,l),
(366,469,l),
(100,250,l),
(166,166,l)
);
},
{
closed = 1;
nodes = (
(374,115,l),
(202,334,l),
(100,250,l),
(272,31,l)
);
},
{
closed = 1;
nodes = (
(720,190,l),
(746,310,l),
(186,310,l),
(160,190,l)
);
}
);
width = 800;
}
);
unicode = 8592;
userData = {
KernOnSpecialSpacing = {
L = NoKerning;
R = NoKerning;
};
};
}
{
glyphname = upArrow;
layers = (
{
layerId = m003;
shapes = (
{
closed = 1;
nodes = (
(267,306,l),
(482,483,l),
(456,515,l),
(242,338,l)
);
},
{
closed = 1;
nodes = (
(369,-16,l),
(475,484,l),
(425,484,l),
(319,-16,l)
);
},
{
closed = 1;
nodes = (
(596,338,l),
(456,515,l),
(418,483,l),
(557,306,l)
);
}
);
width = 800;
},
{
layerId = m004;
shapes = (
{
closed = 1;
nodes = (
(265,254,l),
(530,473,l),
(464,557,l),
(199,338,l)
);
},
{
closed = 1;
nodes = (
(396,-46,l),
(509,484,l),
(389,484,l),
(276,-46,l)
);
},
{
closed = 1;
nodes = (
(637,338,l),
(464,557,l),
(362,473,l),
(535,254,l)
);
}
);
width = 800;
}
);
unicode = 8593;
userData = {
KernOnSpecialSpacing = {
L = NoKerning;
R = NoKerning;
};
};
}
{
glyphname = rightArrow;
layers = (
{
layerId = m003;
shapes = (
{
closed = 1;
nodes = (
(128,220,l),
(628,220,l),
(640,280,l),
(140,280,l)
);
},
{
closed = 1;
nodes = (
(475,385,l),
(614,208,l),
(665,250,l),
(526,427,l)
);
},
{
closed = 1;
nodes = (
(450,73,l),
(665,250,l),
(632,292,l),
(417,115,l)
);
}
);
width = 800;
},
{
layerId = m004;
shapes = (
{
closed = 1;
nodes = (
(70,190,l),
(630,190,l),
(656,310,l),
(96,310,l)
);
},
{
closed = 1;
nodes = (
(442,385,l),
(614,166,l),
(716,250,l),
(544,469,l)
);
},
{
closed = 1;
nodes = (
(450,31,l),
(716,250,l),
(650,334,l),
(384,115,l)
);
}
);
width = 800;
}
);
unicode = 8594;
userData = {
KernOnSpecialSpacing = {
L = NoKerning;
R = NoKerning;
};
};
}
{
glyphname = downArrow;
layers = (
{
layerId = m003;
shapes = (
{
closed = 1;
nodes = (
(558,161,l),
(533,193,l),
(318,16,l),
(343,-16,l)
);
},
{
closed = 1;
nodes = (
(382,16,l),
(243,193,l),
(204,161,l),
(343,-16,l)
);
},
{
closed = 1;
nodes = (
(375,15,l),
(481,515,l),
(431,515,l),
(325,15,l)
);
}
);
width = 800;
},
{
layerId = m004;
shapes = (
{
closed = 1;
nodes = (
(598,153,l),
(532,237,l),
(267,18,l),
(333,-66,l)
);
},
{
closed = 1;
nodes = (
(435,18,l),
(262,237,l),
(160,153,l),
(333,-66,l)
);
},
{
closed = 1;
nodes = (
(408,7,l),
(527,567,l),
(407,567,l),
(288,7,l)
);
}
);
width = 800;
}
);
unicode = 8595;
userData = {
KernOnSpecialSpacing = {
L = NoKerning;
R = NoKerning;
};
};
}
{
glyphname = leftRightArrow;
layers = (
{
layerId = m003;
shapes = (
{
closed = 1;
nodes = (
(298,105,l),
(159,282,l),
(120,250,l),
(259,73,l)
);
},
{
closed = 1;
nodes = (
(656,275,l),
(156,275,l),
(146,225,l),
(646,225,l)
);
},
{
closed = 1;
nodes = (
(335,427,l),
(120,250,l),
(145,218,l),
(360,395,l)
);
},
{
closed = 1;
nodes = (
(681,250,l),
(656,282,l),
(441,105,l),
(466,73,l)
);
},
{
closed = 1;
nodes = (
(642,218,l),
(681,250,l),
(542,427,l),
(503,395,l)
);
}
);
width = 800;
},
{
layerId = m004;
shapes = (
{
closed = 1;
nodes = (
(322,115,l),
(149,334,l),
(48,250,l),
(220,31,l)
);
},
{
closed = 1;
nodes = (
(693,310,l),
(133,310,l),
(108,190,l),
(668,190,l)
);
},
{
closed = 1;
nodes = (
(313,469,l),
(48,250,l),
(114,166,l),
(379,385,l)
);
},
{
closed = 1;
nodes = (
(753,250,l),
(686,334,l),
(421,115,l),
(487,31,l)
);
},
{
closed = 1;
nodes = (
(651,166,l),
(753,250,l),
(580,469,l),
(478,385,l)
);
}
);
width = 800;
}
);
unicode = 8596;
}
{
glyphname = upDownArrow;
layers = (
{
layerId = m003;
shapes = (
{
closed = 1;
nodes = (
(599,354,l),
(460,531,l),
(421,499,l),
(560,322,l)
);
},
{
closed = 1;
nodes = (
(379,2,l),
(240,179,l),
(201,147,l),
(340,-30,l)
);
},
{
closed = 1;
nodes = (
(555,147,l),
(530,179,l),
(315,2,l),
(340,-30,l)
);
},
{
closed = 1;
nodes = (
(372,1,l),
(478,501,l),
(428,501,l),
(322,1,l)
);
},
{
closed = 1;
nodes = (
(485,499,l),
(460,531,l),
(245,354,l),
(270,322,l)
);
}
);
width = 800;
},
{
layerId = m004;
shapes = (
{
closed = 1;
nodes = (
(647,383,l),
(475,602,l),
(373,518,l),
(545,299,l)
);
},
{
closed = 1;
nodes = (
(427,-19,l),
(254,200,l),
(153,116,l),
(325,-103,l)
);
},
{
closed = 1;
nodes = (
(591,116,l),
(524,200,l),
(259,-19,l),
(325,-103,l)
);
},
{
closed = 1;
nodes = (
(400,-30,l),
(520,530,l),
(400,530,l),
(280,-30,l)
);
},
{
closed = 1;
nodes = (
(541,518,l),
(475,602,l),
(209,383,l),
(275,299,l)
);
}
);
width = 800;
}
);
unicode = 8597;
}
{
glyphname = northWestArrow;
layers = (
{
layerId = m003;
shapes = (
{
closed = 1;
nodes = (
(562,88,l),
(284,442,l),
(241,407,l),
(520,53,l)
);
},
{
closed = 1;
nodes = (
(238,196,l),
(292,446,l),
(246,446,l),
(193,196,l)
);
},
{
closed = 1;
nodes = (
(486,401,l),
(497,446,l),
(246,446,l),
(236,401,l)
);
}
);
width = 800;
},
{
layerId = m004;
shapes = (
{
closed = 1;
nodes = (
(611,90,l),
(299,486,l),
(196,401,l),
(508,5,l)
);
},
{
closed = 1;
nodes = (
(259,185,l),
(325,495,l),
(207,495,l),
(141,185,l)
);
},
{
closed = 1;
nodes = (
(491,376,l),
(516,495,l),
(207,495,l),
(182,376,l)
);
}
);
width = 800;
}
);
unicode = 8598;
userData = {
KernOnSpecialSpacing = {
L = NoKerning;
R = NoKerning;
};
};
}
{
glyphname = northEastArrow;
layers = (
{
layerId = m003;
shapes = (
{
closed = 1;
nodes = (
(378,401,l),
(628,401,l),
(638,447,l),
(388,447,l)
);
},
{
closed = 1;
nodes = (
(196,54,l),
(625,407,l),
(598,442,l),
(169,89,l)
);
},
{
closed = 1;
nodes = (
(584,196,l),
(638,447,l),
(593,447,l),
(539,196,l)
);
}
);
width = 800;
},
{
layerId = m004;
shapes = (
{
closed = 1;
nodes = (
(350,365,l),
(660,365,l),
(685,484,l),
(375,484,l)
);
},
{
closed = 1;
nodes = (
(201,15,l),
(656,390,l),
(589,475,l),
(134,100,l)
);
},
{
closed = 1;
nodes = (
(619,174,l),
(685,484,l),
(566,484,l),
(500,174,l)
);
}
);
width = 800;
}
);
unicode = 8599;
userData = {
KernOnSpecialSpacing = {
L = NoKerning;
R = NoKerning;
};
};
}
{
glyphname = southEastArrow;
layers = (
{
layerId = m003;
shapes = (
{
closed = 1;
nodes = (
(561,303,l),
(508,53,l),
(554,53,l),
(607,303,l)
);
},
{
closed = 1;
nodes = (
(303,53,l),
(554,53,l),
(564,98,l),
(313,98,l)
);
},
{
closed = 1;
nodes = (
(237,412,l),
(515,58,l),
(558,93,l),
(280,447,l)
);
}
);
width = 800;
},
{
layerId = m004;
shapes = (
{
closed = 1;
nodes = (
(565,324,l),
(499,14,l),
(618,14,l),
(684,324,l)
);
},
{
closed = 1;
nodes = (
(308,14,l),
(618,14,l),
(643,133,l),
(333,133,l)
);
},
{
closed = 1;
nodes = (
(214,420,l),
(526,24,l),
(629,108,l),
(317,504,l)
);
}
);
width = 800;
}
);
unicode = 8600;
userData = {
KernOnSpecialSpacing = {
L = NoKerning;
R = NoKerning;
};
};
}
{
glyphname = southWestArrow;
layers = (
{
layerId = m003;
shapes = (
{
closed = 1;
nodes = (
(635,411,l),
(607,446,l),
(178,93,l),
(206,58,l)
);
},
{
closed = 1;
nodes = (
(416,53,l),
(426,99,l),
(176,99,l),
(166,53,l)
);
},
{
closed = 1;
nodes = (
(211,53,l),
(264,304,l),
(219,304,l),
(166,53,l)
);
}
);
width = 800;
},
{
layerId = m004;
shapes = (
{
closed = 1;
nodes = (
(679,410,l),
(612,495,l),
(132,99,l),
(199,14,l)
);
},
{
closed = 1;
nodes = (
(412,5,l),
(437,124,l),
(128,124,l),
(103,5,l)
);
},
{
closed = 1;
nodes = (
(221,5,l),
(287,315,l),
(169,315,l),
(103,5,l)
);
}
);
width = 800;
}
);
unicode = 8601;
userData = {
KernOnSpecialSpacing = {
L = NoKerning;
R = NoKerning;
};
};
}
